<?xml version="1.0" encoding="utf-8"?>
<!-- Generator: Adobe Illustrator 18.0.0, SVG Export Plug-In . SVG Version: 6.00 Build 0)  -->
<!DOCTYPE svg PUBLIC "-//W3C//DTD SVG 1.1//EN" "http://www.w3.org/Graphics/SVG/1.1/DTD/svg11.dtd">
<svg version="1.1" id="Layer_1" xmlns="http://www.w3.org/2000/svg" xmlns:xlink="http://www.w3.org/1999/xlink" x="0px" y="0px"
	 viewBox="0 0 96.5 56.4" enable-background="new 0 0 96.5 56.4" xml:space="preserve">
<g>
	<defs>
		<filter id="Adobe_OpacityMaskFilter" filterUnits="userSpaceOnUse" x="0" y="49.4" width="96.5" height="7">
			<feColorMatrix  type="matrix" values="1 0 0 0 0  0 1 0 0 0  0 0 1 0 0  0 0 0 1 0"/>
		</filter>
	</defs>
	<mask maskUnits="userSpaceOnUse" x="0" y="49.4" width="96.5" height="7" id="SVGID_1_">
		<g filter="url(#Adobe_OpacityMaskFilter)">
			
				<radialGradient id="SVGID_2_" cx="236.5422" cy="282.0448" r="35.1752" gradientTransform="matrix(1.3795 0 0 0.1 -278.8509 24.5947)" gradientUnits="userSpaceOnUse">
				<stop  offset="0" style="stop-color:#FFFFFF"/>
				<stop  offset="4.595643e-002" style="stop-color:#EBEBEB"/>
				<stop  offset="0.1989" style="stop-color:#AEAEAE"/>
				<stop  offset="0.3507" style="stop-color:#797979"/>
				<stop  offset="0.4976" style="stop-color:#4D4D4D"/>
				<stop  offset="0.6388" style="stop-color:#2C2C2C"/>
				<stop  offset="0.7728" style="stop-color:#141414"/>
				<stop  offset="0.8964" style="stop-color:#050505"/>
				<stop  offset="1" style="stop-color:#000000"/>
			</radialGradient>
			<ellipse fill="url(#SVGID_2_)" cx="47.5" cy="52.8" rx="48.3" ry="3.5"/>
		</g>
	</mask>
	<ellipse opacity="0.32" mask="url(#SVGID_1_)" cx="48.2" cy="52.9" rx="48.3" ry="3.5"/>
	<linearGradient id="SVGID_3_" gradientUnits="userSpaceOnUse" x1="-3.001" y1="27.4654" x2="60.9991" y2="27.4654">
		<stop  offset="1.098900e-002" style="stop-color:#FFFFFF"/>
		<stop  offset="0.1226" style="stop-color:#B7EDFF"/>
		<stop  offset="0.2582" style="stop-color:#63D8FE"/>
		<stop  offset="0.3957" style="stop-color:#49AFE0"/>
		<stop  offset="0.5565" style="stop-color:#2E85C2"/>
		<stop  offset="0.6829" style="stop-color:#1E6BB0"/>
		<stop  offset="0.7582" style="stop-color:#1861A9"/>
		<stop  offset="1" style="stop-color:#124A7F"/>
	</linearGradient>
	<path fill="url(#SVGID_3_)" d="M33.8,49.8c0,2.2-1.6,4.1-3.7,4.1h-8.6c-2,0-3.7-1.8-3.7-4.1V5.1c0-2.2,1.6-4.1,3.7-4.1h8.6
		c2,0,3.7,1.8,3.7,4.1V49.8z"/>
	<linearGradient id="SVGID_4_" gradientUnits="userSpaceOnUse" x1="7.999" y1="28.2163" x2="49.9991" y2="28.2163">
		<stop  offset="1.098900e-002" style="stop-color:#FFFFFF"/>
		<stop  offset="0.1226" style="stop-color:#B7EDFF"/>
		<stop  offset="0.2582" style="stop-color:#63D8FE"/>
		<stop  offset="0.3957" style="stop-color:#49AFE0"/>
		<stop  offset="0.5565" style="stop-color:#2E85C2"/>
		<stop  offset="0.6829" style="stop-color:#1E6BB0"/>
		<stop  offset="0.7582" style="stop-color:#1861A9"/>
		<stop  offset="1" style="stop-color:#124A7F"/>
	</linearGradient>
	<path fill="url(#SVGID_4_)" d="M30.1,4.1h-8.4c-1.2,0-2.1,1.1-2.1,2.5v43.3c0,1.4,0.9,2.5,2.1,2.5h8.4c1.2,0,2.1-1.1,2.1-2.5V6.6
		C32.2,5.2,31.3,4.1,30.1,4.1z"/>
	<linearGradient id="SVGID_5_" gradientUnits="userSpaceOnUse" x1="25.8789" y1="-1.3457" x2="25.8789" y2="61.8839">
		<stop  offset="1.098900e-002" style="stop-color:#FFFFFF"/>
		<stop  offset="0.1226" style="stop-color:#B7EDFF"/>
		<stop  offset="0.2582" style="stop-color:#63D8FE"/>
		<stop  offset="0.3957" style="stop-color:#49AFE0"/>
		<stop  offset="0.5565" style="stop-color:#2E85C2"/>
		<stop  offset="0.6829" style="stop-color:#1E6BB0"/>
		<stop  offset="0.7582" style="stop-color:#1861A9"/>
		<stop  offset="1" style="stop-color:#124A7F"/>
	</linearGradient>
	<path opacity="0.57" fill="url(#SVGID_5_)" d="M30.1,2.9h-8.4c-1.2,0-2.1,1.3-2.1,2.8v1.1c0-1.5,0.9-2.8,2.1-2.8h8.4
		c1.2,0,2.1,1.2,2.1,2.8V5.7C32.2,4.1,31.3,2.9,30.1,2.9z"/>
	<linearGradient id="SVGID_6_" gradientUnits="userSpaceOnUse" x1="41.367" y1="-19.566" x2="42.3768" y2="93.0088">
		<stop  offset="1.098900e-002" style="stop-color:#FFFFFF"/>
		<stop  offset="4.649890e-002" style="stop-color:#E8D6F4"/>
		<stop  offset="8.475413e-002" style="stop-color:#D4B2EB"/>
		<stop  offset="0.1251" style="stop-color:#C394E3"/>
		<stop  offset="0.1676" style="stop-color:#B67DDE"/>
		<stop  offset="0.2131" style="stop-color:#AD6DD9"/>
		<stop  offset="0.2637" style="stop-color:#A863D7"/>
		<stop  offset="0.3297" style="stop-color:#A660D6"/>
		<stop  offset="0.8571" style="stop-color:#754293"/>
		<stop  offset="0.8945" style="stop-color:#723F8F"/>
		<stop  offset="1" style="stop-color:#6D3B88"/>
	</linearGradient>
	<path fill="url(#SVGID_6_)" d="M49.9,49.8c0,2.2-1.7,4-3.7,4h-8.7c-2.1,0-3.7-1.8-3.7-4V5.4c0-2.2,1.7-4,3.7-4h8.7
		c2.1,0,3.7,1.8,3.7,4V49.8z"/>
	<linearGradient id="SVGID_7_" gradientUnits="userSpaceOnUse" x1="29.9991" y1="28.2163" x2="75.9989" y2="28.2163">
		<stop  offset="1.098900e-002" style="stop-color:#FFFFFF"/>
		<stop  offset="4.649890e-002" style="stop-color:#E8D6F4"/>
		<stop  offset="8.475413e-002" style="stop-color:#D4B2EB"/>
		<stop  offset="0.1251" style="stop-color:#C394E3"/>
		<stop  offset="0.1676" style="stop-color:#B67DDE"/>
		<stop  offset="0.2131" style="stop-color:#AD6DD9"/>
		<stop  offset="0.2637" style="stop-color:#A863D7"/>
		<stop  offset="0.3297" style="stop-color:#A660D6"/>
		<stop  offset="0.8571" style="stop-color:#754293"/>
		<stop  offset="0.8945" style="stop-color:#723F8F"/>
		<stop  offset="1" style="stop-color:#6D3B88"/>
	</linearGradient>
	<path opacity="0.83" fill="url(#SVGID_7_)" d="M46,4.1h-8.4c-1.2,0-2.1,1.1-2.1,2.5v43.3c0,1.4,0.9,2.5,2.1,2.5H46
		c1.2,0,2.1-1.1,2.1-2.5V6.6C48.1,5.2,47.2,4.1,46,4.1z"/>
	<linearGradient id="SVGID_8_" gradientUnits="userSpaceOnUse" x1="41.789" y1="2.3317" x2="41.789" y2="121.8762">
		<stop  offset="1.098900e-002" style="stop-color:#FFFFFF"/>
		<stop  offset="4.649890e-002" style="stop-color:#E8D6F4"/>
		<stop  offset="8.475413e-002" style="stop-color:#D4B2EB"/>
		<stop  offset="0.1251" style="stop-color:#C394E3"/>
		<stop  offset="0.1676" style="stop-color:#B67DDE"/>
		<stop  offset="0.2131" style="stop-color:#AD6DD9"/>
		<stop  offset="0.2637" style="stop-color:#A863D7"/>
		<stop  offset="0.3297" style="stop-color:#A660D6"/>
		<stop  offset="0.8571" style="stop-color:#754293"/>
		<stop  offset="0.8945" style="stop-color:#723F8F"/>
		<stop  offset="1" style="stop-color:#6D3B88"/>
	</linearGradient>
	<path opacity="0.57" fill="url(#SVGID_8_)" d="M46,2.9h-8.4c-1.2,0-2.1,1.3-2.1,2.8v1.1c0-1.5,0.9-2.8,2.1-2.8H46
		c1.2,0,2.1,1.2,2.1,2.8V5.7C48.1,4.1,47.2,2.9,46,2.9z"/>
	<linearGradient id="SVGID_9_" gradientUnits="userSpaceOnUse" x1="25.8789" y1="3.4879" x2="25.8789" y2="47.321">
		<stop  offset="1.098900e-002" style="stop-color:#FFFFFF"/>
		<stop  offset="7.473557e-002" style="stop-color:#FFE1CA"/>
		<stop  offset="0.1312" style="stop-color:#FFCBA2"/>
		<stop  offset="0.1759" style="stop-color:#FFBD8A"/>
		<stop  offset="0.2033" style="stop-color:#FFB881"/>
		<stop  offset="0.2236" style="stop-color:#FDB278"/>
		<stop  offset="0.3578" style="stop-color:#EF8B3F"/>
		<stop  offset="0.4575" style="stop-color:#E6731C"/>
		<stop  offset="0.511" style="stop-color:#E36A0F"/>
		<stop  offset="0.5562" style="stop-color:#DA660E"/>
		<stop  offset="0.63" style="stop-color:#C25A0D"/>
		<stop  offset="0.7232" style="stop-color:#9A480A"/>
		<stop  offset="0.8321" style="stop-color:#632E07"/>
		<stop  offset="0.953" style="stop-color:#1D0E02"/>
		<stop  offset="1" style="stop-color:#000000"/>
	</linearGradient>
	<rect x="19.8" y="19" fill="url(#SVGID_9_)" width="12.2" height="2.8"/>
	<linearGradient id="SVGID_10_" gradientUnits="userSpaceOnUse" x1="41.789" y1="3.4879" x2="41.789" y2="47.321">
		<stop  offset="1.098900e-002" style="stop-color:#FFFFFF"/>
		<stop  offset="7.473557e-002" style="stop-color:#FFE1CA"/>
		<stop  offset="0.1312" style="stop-color:#FFCBA2"/>
		<stop  offset="0.1759" style="stop-color:#FFBD8A"/>
		<stop  offset="0.2033" style="stop-color:#FFB881"/>
		<stop  offset="0.2236" style="stop-color:#FDB278"/>
		<stop  offset="0.3578" style="stop-color:#EF8B3F"/>
		<stop  offset="0.4575" style="stop-color:#E6731C"/>
		<stop  offset="0.511" style="stop-color:#E36A0F"/>
		<stop  offset="0.5562" style="stop-color:#DA660E"/>
		<stop  offset="0.63" style="stop-color:#C25A0D"/>
		<stop  offset="0.7232" style="stop-color:#9A480A"/>
		<stop  offset="0.8321" style="stop-color:#632E07"/>
		<stop  offset="0.953" style="stop-color:#1D0E02"/>
		<stop  offset="1" style="stop-color:#000000"/>
	</linearGradient>
	<rect x="35.7" y="19" fill="url(#SVGID_10_)" width="12.2" height="2.8"/>
	<g>
		<path fill="#FFFFFF" d="M21.7,15.5v-0.2c0.5,0,0.9-0.1,1.1-0.2c0.2-0.1,0.2-0.4,0.2-0.8V9.8c0-0.4-0.1-0.6-0.2-0.8
			c-0.2-0.1-0.5-0.2-1.1-0.2V8.6h3.9v0.2c-0.5,0-0.9,0.1-1,0.2c-0.2,0.1-0.3,0.4-0.3,0.8v4.6c0,0.4,0.1,0.6,0.3,0.8
			c0.2,0.1,0.5,0.2,1,0.2v0.2H21.7z"/>
		<path fill="#FFFFFF" d="M26.2,15.5v-0.2c0.6,0,0.9-0.1,1.1-0.2c0.2-0.1,0.2-0.4,0.2-0.8V9.8c0-0.4-0.1-0.6-0.2-0.8
			c-0.2-0.1-0.5-0.2-1.1-0.2V8.6h3.9v0.2c-0.5,0-0.9,0.1-1,0.2c-0.2,0.1-0.3,0.4-0.3,0.8v4.6c0,0.4,0.1,0.6,0.3,0.8
			c0.2,0.1,0.5,0.2,1,0.2v0.2H26.2z"/>
	</g>
	<g>
		<path fill="#FFFFFF" d="M36.7,15.1v-0.2c0.4,0,0.7-0.1,0.8-0.2c0.1-0.1,0.2-0.4,0.2-0.7V9.6c0-0.4-0.1-0.6-0.2-0.7
			c-0.1-0.1-0.4-0.2-0.8-0.2V8.6h2.9v0.2c-0.4,0-0.6,0.1-0.8,0.2c-0.1,0.1-0.2,0.3-0.2,0.7V14c0,0.4,0.1,0.6,0.2,0.7
			c0.1,0.1,0.4,0.2,0.8,0.2v0.2H36.7z"/>
		<path fill="#FFFFFF" d="M46.9,8.6v0.2c-0.2,0-0.4,0.1-0.5,0.2c-0.1,0.1-0.2,0.4-0.4,0.8l-2.2,5.6h-0.2l-2.4-5.4
			c-0.2-0.4-0.3-0.7-0.5-0.8c-0.1-0.1-0.3-0.2-0.6-0.2V8.6h2.6v0.2c-0.3,0-0.5,0-0.6,0.1C42.1,8.9,42,9,42,9.1
			c0,0.1,0.1,0.3,0.2,0.5l0.2,0.5l1.5,3.3l1.4-3.6l0.1-0.4l0.1-0.3c0-0.2-0.1-0.3-0.2-0.4c-0.1-0.1-0.3-0.1-0.5-0.1V8.6H46.9z"/>
	</g>
	<linearGradient id="SVGID_11_" gradientUnits="userSpaceOnUse" x1="41.789" y1="3.4879" x2="41.789" y2="47.321">
		<stop  offset="1.098900e-002" style="stop-color:#FFFFFF"/>
		<stop  offset="7.473557e-002" style="stop-color:#FFE1CA"/>
		<stop  offset="0.1312" style="stop-color:#FFCBA2"/>
		<stop  offset="0.1759" style="stop-color:#FFBD8A"/>
		<stop  offset="0.2033" style="stop-color:#FFB881"/>
		<stop  offset="0.2236" style="stop-color:#FDB278"/>
		<stop  offset="0.3578" style="stop-color:#EF8B3F"/>
		<stop  offset="0.4575" style="stop-color:#E6731C"/>
		<stop  offset="0.511" style="stop-color:#E36A0F"/>
		<stop  offset="0.5562" style="stop-color:#DA660E"/>
		<stop  offset="0.63" style="stop-color:#C25A0D"/>
		<stop  offset="0.7232" style="stop-color:#9A480A"/>
		<stop  offset="0.8321" style="stop-color:#632E07"/>
		<stop  offset="0.953" style="stop-color:#1D0E02"/>
		<stop  offset="1" style="stop-color:#000000"/>
	</linearGradient>
	<rect x="35.7" y="19" fill="url(#SVGID_11_)" width="12.2" height="2.8"/>
	<linearGradient id="SVGID_12_" gradientUnits="userSpaceOnUse" x1="119.1443" y1="4.0283" x2="-32.8602" y2="67.0301">
		<stop  offset="1.098900e-002" style="stop-color:#FFFFFF"/>
		<stop  offset="8.176690e-002" style="stop-color:#D4D4D4"/>
		<stop  offset="0.1735" style="stop-color:#A3A3A3"/>
		<stop  offset="0.2702" style="stop-color:#777777"/>
		<stop  offset="0.3701" style="stop-color:#525252"/>
		<stop  offset="0.474" style="stop-color:#343434"/>
		<stop  offset="0.5833" style="stop-color:#1D1D1D"/>
		<stop  offset="0.7002" style="stop-color:#0D0D0D"/>
		<stop  offset="0.8303" style="stop-color:#030303"/>
		<stop  offset="1" style="stop-color:#000000"/>
	</linearGradient>
	<path fill="url(#SVGID_12_)" d="M80,44.8c0.7,2.1-0.3,4.4-2.2,5l-8.2,2.8c-1.9,0.7-4.1-0.5-4.8-2.6L50.2,8c-0.7-2.1,0.3-4.4,2.2-5
		l8.2-2.8c1.9-0.7,4.1,0.5,4.8,2.6L80,44.8z"/>
	<linearGradient id="SVGID_13_" gradientUnits="userSpaceOnUse" x1="91.5139" y1="13.7626" x2="4.5148" y2="57.7622">
		<stop  offset="1.098900e-002" style="stop-color:#FFFFFF"/>
		<stop  offset="8.176690e-002" style="stop-color:#D4D4D4"/>
		<stop  offset="0.1735" style="stop-color:#A3A3A3"/>
		<stop  offset="0.2702" style="stop-color:#777777"/>
		<stop  offset="0.3701" style="stop-color:#525252"/>
		<stop  offset="0.474" style="stop-color:#343434"/>
		<stop  offset="0.5833" style="stop-color:#1D1D1D"/>
		<stop  offset="0.7002" style="stop-color:#0D0D0D"/>
		<stop  offset="0.8303" style="stop-color:#030303"/>
		<stop  offset="1" style="stop-color:#000000"/>
	</linearGradient>
	<path opacity="0.83" fill="url(#SVGID_13_)" d="M61.5,2.8l-8,2.7c-1.1,0.4-1.6,1.7-1.2,3l14.1,40.9c0.4,1.3,1.7,2.1,2.8,1.7l8-2.7
		c1.1-0.4,1.6-1.8,1.2-3.1L64.3,4.5C63.8,3.2,62.6,2.5,61.5,2.8z"/>
	<linearGradient id="SVGID_14_" gradientUnits="userSpaceOnUse" x1="57.3343" y1="3.2401" x2="78.3365" y2="79.9152">
		<stop  offset="1.098900e-002" style="stop-color:#FFFFFF"/>
		<stop  offset="8.176690e-002" style="stop-color:#D4D4D4"/>
		<stop  offset="0.1735" style="stop-color:#A3A3A3"/>
		<stop  offset="0.2702" style="stop-color:#777777"/>
		<stop  offset="0.3701" style="stop-color:#525252"/>
		<stop  offset="0.474" style="stop-color:#343434"/>
		<stop  offset="0.5833" style="stop-color:#1D1D1D"/>
		<stop  offset="0.7002" style="stop-color:#0D0D0D"/>
		<stop  offset="0.8303" style="stop-color:#030303"/>
		<stop  offset="1" style="stop-color:#000000"/>
	</linearGradient>
	<path opacity="0.57" fill="url(#SVGID_14_)" d="M61.1,1.7l-8,2.7C52,4.8,51.5,6.3,52,7.8l0.3,1c-0.5-1.4,0-2.9,1.1-3.3l8-2.7
		c1.1-0.4,2.4,0.5,2.9,1.9l-0.3-1C63.5,2.2,62.2,1.3,61.1,1.7z"/>
	
		<linearGradient id="SVGID_15_" gradientUnits="userSpaceOnUse" x1="69.1449" y1="-235.3931" x2="69.1449" y2="-191.5577" gradientTransform="matrix(0.9457 -0.3249 0.3249 0.9458 68.3551 248.7323)">
		<stop  offset="1.098900e-002" style="stop-color:#FFFFFF"/>
		<stop  offset="7.473557e-002" style="stop-color:#FFE1CA"/>
		<stop  offset="0.1312" style="stop-color:#FFCBA2"/>
		<stop  offset="0.1759" style="stop-color:#FFBD8A"/>
		<stop  offset="0.2033" style="stop-color:#FFB881"/>
		<stop  offset="0.2236" style="stop-color:#FDB278"/>
		<stop  offset="0.3578" style="stop-color:#EF8B3F"/>
		<stop  offset="0.4575" style="stop-color:#E6731C"/>
		<stop  offset="0.511" style="stop-color:#E36A0F"/>
		<stop  offset="0.5562" style="stop-color:#DA660E"/>
		<stop  offset="0.63" style="stop-color:#C25A0D"/>
		<stop  offset="0.7232" style="stop-color:#9A480A"/>
		<stop  offset="0.8321" style="stop-color:#632E07"/>
		<stop  offset="0.953" style="stop-color:#1D0E02"/>
		<stop  offset="1" style="stop-color:#000000"/>
	</linearGradient>
	<polygon fill="url(#SVGID_15_)" points="69,19 57.5,22.9 56.5,20.2 68,16.3 	"/>
	<g>
		<path fill="#FFFFFF" d="M56.3,16.3l-0.1-0.2c0.4-0.1,0.6-0.3,0.7-0.4c0.1-0.1,0-0.4-0.1-0.7l-1.4-4.2c-0.1-0.3-0.3-0.6-0.4-0.6
			c-0.1-0.1-0.4,0-0.8,0.1l-0.1-0.2l2.8-1L57,9.3c-0.4,0.1-0.6,0.3-0.7,0.4c-0.1,0.1-0.1,0.4,0.1,0.8l1.4,4.2
			c0.1,0.3,0.3,0.6,0.4,0.6c0.2,0.1,0.4,0,0.8-0.1l0.1,0.2L56.3,16.3z"/>
		<path fill="#FFFFFF" d="M63.7,6.8L63.8,7c-0.2,0.1-0.4,0.2-0.4,0.3c-0.1,0.1-0.1,0.4-0.1,0.9l-0.3,6l-0.2,0.1l-4.1-4.4
			c-0.3-0.4-0.6-0.6-0.7-0.6c-0.2-0.1-0.4-0.1-0.6,0L57.3,9l2.5-0.9l0.1,0.2c-0.3,0.1-0.4,0.2-0.5,0.3c-0.1,0.1-0.1,0.2,0,0.3
			c0,0.1,0.1,0.2,0.3,0.4L60,9.7l2.5,2.7l0.2-3.9l0-0.4l0-0.3c-0.1-0.2-0.2-0.3-0.3-0.3c-0.1,0-0.3,0-0.5,0.1l-0.1-0.2L63.7,6.8z"/>
	</g>
	
		<linearGradient id="SVGID_16_" gradientUnits="userSpaceOnUse" x1="69.1449" y1="-235.3931" x2="69.1449" y2="-191.5577" gradientTransform="matrix(0.9457 -0.3249 0.3249 0.9458 68.3551 248.7323)">
		<stop  offset="1.098900e-002" style="stop-color:#FFFFFF"/>
		<stop  offset="7.473557e-002" style="stop-color:#FFE1CA"/>
		<stop  offset="0.1312" style="stop-color:#FFCBA2"/>
		<stop  offset="0.1759" style="stop-color:#FFBD8A"/>
		<stop  offset="0.2033" style="stop-color:#FFB881"/>
		<stop  offset="0.2236" style="stop-color:#FDB278"/>
		<stop  offset="0.3578" style="stop-color:#EF8B3F"/>
		<stop  offset="0.4575" style="stop-color:#E6731C"/>
		<stop  offset="0.511" style="stop-color:#E36A0F"/>
		<stop  offset="0.5562" style="stop-color:#DA660E"/>
		<stop  offset="0.63" style="stop-color:#C25A0D"/>
		<stop  offset="0.7232" style="stop-color:#9A480A"/>
		<stop  offset="0.8321" style="stop-color:#632E07"/>
		<stop  offset="0.953" style="stop-color:#1D0E02"/>
		<stop  offset="1" style="stop-color:#000000"/>
	</linearGradient>
	<polygon fill="url(#SVGID_16_)" points="69,19 57.5,22.9 56.5,20.2 68,16.3 	"/>
</g>
</svg>
