<?xml version="1.0" encoding="utf-8"?>
<!-- Generator: Adobe Illustrator 18.0.0, SVG Export Plug-In . SVG Version: 6.00 Build 0)  -->
<!DOCTYPE svg PUBLIC "-//W3C//DTD SVG 1.1//EN" "http://www.w3.org/Graphics/SVG/1.1/DTD/svg11.dtd">
<svg version="1.1" id="Layer_1" xmlns="http://www.w3.org/2000/svg" xmlns:xlink="http://www.w3.org/1999/xlink" x="0px" y="0px"
	 viewBox="0 0 71 58.2" enable-background="new 0 0 71 58.2" xml:space="preserve">
<g>
	<defs>
		<filter id="Adobe_OpacityMaskFilter" filterUnits="userSpaceOnUse" x="0" y="49" width="71" height="9.2">
			<feColorMatrix  type="matrix" values="1 0 0 0 0  0 1 0 0 0  0 0 1 0 0  0 0 0 1 0"/>
		</filter>
	</defs>
	<mask maskUnits="userSpaceOnUse" x="0" y="49" width="71" height="9.2" id="SVGID_1_">
		<g filter="url(#Adobe_OpacityMaskFilter)">
			
				<radialGradient id="SVGID_2_" cx="15.5839" cy="58.7597" r="35.1738" gradientTransform="matrix(1.015 0 0 0.1311 19.1013 45.808)" gradientUnits="userSpaceOnUse">
				<stop  offset="0" style="stop-color:#FFFFFF"/>
				<stop  offset="4.371321e-002" style="stop-color:#ECECEC"/>
				<stop  offset="0.197" style="stop-color:#AFAFAF"/>
				<stop  offset="0.3492" style="stop-color:#7A7A7A"/>
				<stop  offset="0.4965" style="stop-color:#4E4E4E"/>
				<stop  offset="0.638" style="stop-color:#2D2D2D"/>
				<stop  offset="0.7723" style="stop-color:#151515"/>
				<stop  offset="0.8962" style="stop-color:#060606"/>
				<stop  offset="1" style="stop-color:#010101"/>
			</radialGradient>
			<ellipse fill="url(#SVGID_2_)" cx="34.9" cy="53.6" rx="35.5" ry="4.6"/>
		</g>
	</mask>
	<ellipse opacity="0.3" mask="url(#SVGID_1_)" cx="35.5" cy="53.6" rx="35.5" ry="4.6"/>
	<g>
		<linearGradient id="SVGID_3_" gradientUnits="userSpaceOnUse" x1="50.0807" y1="-26.4515" x2="42.8702" y2="20.4169">
			<stop  offset="0" style="stop-color:#FFFFFF"/>
			<stop  offset="2.248450e-002" style="stop-color:#F6FAF0"/>
			<stop  offset="0.1098" style="stop-color:#D4EABB"/>
			<stop  offset="0.1953" style="stop-color:#B8DC8F"/>
			<stop  offset="0.2772" style="stop-color:#A2D16D"/>
			<stop  offset="0.3544" style="stop-color:#93C954"/>
			<stop  offset="0.4252" style="stop-color:#89C545"/>
			<stop  offset="0.4835" style="stop-color:#86C340"/>
			<stop  offset="0.6136" style="stop-color:#7AB13F"/>
			<stop  offset="0.8686" style="stop-color:#618D3C"/>
			<stop  offset="0.9505" style="stop-color:#59813A"/>
			<stop  offset="0.9774" style="stop-color:#5C7936"/>
			<stop  offset="1" style="stop-color:#5D7031"/>
		</linearGradient>
		<path fill="url(#SVGID_3_)" d="M33.3,12.5c0,0,0.8-5.5,8.6-7.8C49.7,2.3,56.8,0,56.8,0s-2.3,4.7-7,10.2
			c-4.7,5.5-15.6,3.9-15.6,3.9L33.3,12.5z"/>
		<linearGradient id="SVGID_4_" gradientUnits="userSpaceOnUse" x1="36.3794" y1="-9.9516" x2="31.8361" y2="19.5794">
			<stop  offset="0" style="stop-color:#FFFFFF"/>
			<stop  offset="2.248450e-002" style="stop-color:#F6FAF0"/>
			<stop  offset="0.1098" style="stop-color:#D4EABB"/>
			<stop  offset="0.1953" style="stop-color:#B8DC8F"/>
			<stop  offset="0.2772" style="stop-color:#A2D16D"/>
			<stop  offset="0.3544" style="stop-color:#93C954"/>
			<stop  offset="0.4252" style="stop-color:#89C545"/>
			<stop  offset="0.4835" style="stop-color:#86C340"/>
			<stop  offset="0.6136" style="stop-color:#7AB13F"/>
			<stop  offset="0.8686" style="stop-color:#618D3C"/>
			<stop  offset="0.9505" style="stop-color:#59813A"/>
			<stop  offset="0.9774" style="stop-color:#5C7936"/>
			<stop  offset="1" style="stop-color:#5D7031"/>
		</linearGradient>
		<path fill="url(#SVGID_4_)" d="M31.8,16.4c0,0-2.3-3.4-0.8-6.4c1.6-3.2,1.6-4.5,1.6-4.5l3.1,0.6c0,0-0.8,1.9-1.6,3.9
			c-0.8,1.9,0.8,6.4,0.8,6.4H31.8z"/>
		<linearGradient id="SVGID_5_" gradientUnits="userSpaceOnUse" x1="42.1276" y1="-32.035" x2="28.0513" y2="68.8452">
			<stop  offset="0" style="stop-color:#FFFFFF"/>
			<stop  offset="1.279073e-002" style="stop-color:#FDF6ED"/>
			<stop  offset="5.927226e-002" style="stop-color:#F7D6B1"/>
			<stop  offset="0.104" style="stop-color:#F2BC7E"/>
			<stop  offset="0.1458" style="stop-color:#EEA857"/>
			<stop  offset="0.1839" style="stop-color:#EB993B"/>
			<stop  offset="0.2173" style="stop-color:#EA902A"/>
			<stop  offset="0.2421" style="stop-color:#E98D24"/>
			<stop  offset="0.6044" style="stop-color:#C33026"/>
			<stop  offset="0.656" style="stop-color:#BF3126"/>
			<stop  offset="0.7103" style="stop-color:#B13326"/>
			<stop  offset="0.7658" style="stop-color:#9C3426"/>
			<stop  offset="0.8222" style="stop-color:#7F3325"/>
			<stop  offset="0.8792" style="stop-color:#5D2D22"/>
			<stop  offset="0.9368" style="stop-color:#39221C"/>
			<stop  offset="0.9939" style="stop-color:#090706"/>
			<stop  offset="1" style="stop-color:#010101"/>
		</linearGradient>
		<path fill="url(#SVGID_5_)" d="M41.9,12.1c6.7,0,16.4,5.9,14.1,20.8c-1.4,9.1-4.3,17-11.2,20.9c-2.8,1.6-5.2-0.6-10.4-0.6
			c-3.3,0-7,2.4-9.7,1c-7.2-3.7-11.8-12-13.4-21.3C9.2,19.6,16.6,12.5,24,12.5c6.7,0,4.5,2.7,9.7,2.7C37.4,15.3,36.7,12.1,41.9,12.1
			z"/>
		<linearGradient id="SVGID_6_" gradientUnits="userSpaceOnUse" x1="19.8379" y1="16.3793" x2="24.5342" y2="67.2554">
			<stop  offset="0" style="stop-color:#FFFFFF"/>
			<stop  offset="1.279073e-002" style="stop-color:#FDF6ED"/>
			<stop  offset="5.927226e-002" style="stop-color:#F7D6B1"/>
			<stop  offset="0.104" style="stop-color:#F2BC7E"/>
			<stop  offset="0.1458" style="stop-color:#EEA857"/>
			<stop  offset="0.1839" style="stop-color:#EB993B"/>
			<stop  offset="0.2173" style="stop-color:#EA902A"/>
			<stop  offset="0.2421" style="stop-color:#E98D24"/>
			<stop  offset="0.6044" style="stop-color:#C33026"/>
			<stop  offset="0.656" style="stop-color:#BF3126"/>
			<stop  offset="0.7103" style="stop-color:#B13326"/>
			<stop  offset="0.7658" style="stop-color:#9C3426"/>
			<stop  offset="0.8222" style="stop-color:#7F3325"/>
			<stop  offset="0.8792" style="stop-color:#5D2D22"/>
			<stop  offset="0.9368" style="stop-color:#39221C"/>
			<stop  offset="0.9939" style="stop-color:#090706"/>
			<stop  offset="1" style="stop-color:#010101"/>
		</linearGradient>
		<path opacity="0.34" fill="url(#SVGID_6_)" d="M24,18.2c1.8-1.4,1-2.5-1.5-1.8c-1.2,0.4-2.5,1-3.7,2.3c-3.7,3.9-3.7,10.9-1.5,17.2
			c2.2,6.3,2.2,5.4,1.1-0.8c-0.8-4.9-0.8-10.2,1.8-13.3C21.7,20.2,23,19.1,24,18.2z"/>
		<linearGradient id="SVGID_7_" gradientUnits="userSpaceOnUse" x1="47.0189" y1="10.1676" x2="47.0189" y2="87.583">
			<stop  offset="0" style="stop-color:#FFFFFF"/>
			<stop  offset="1.279073e-002" style="stop-color:#FDF6ED"/>
			<stop  offset="5.927226e-002" style="stop-color:#F7D6B1"/>
			<stop  offset="0.104" style="stop-color:#F2BC7E"/>
			<stop  offset="0.1458" style="stop-color:#EEA857"/>
			<stop  offset="0.1839" style="stop-color:#EB993B"/>
			<stop  offset="0.2173" style="stop-color:#EA902A"/>
			<stop  offset="0.2421" style="stop-color:#E98D24"/>
			<stop  offset="0.6044" style="stop-color:#C33026"/>
			<stop  offset="0.656" style="stop-color:#BF3126"/>
			<stop  offset="0.7103" style="stop-color:#B13326"/>
			<stop  offset="0.7658" style="stop-color:#9C3426"/>
			<stop  offset="0.8222" style="stop-color:#7F3325"/>
			<stop  offset="0.8792" style="stop-color:#5D2D22"/>
			<stop  offset="0.9368" style="stop-color:#39221C"/>
			<stop  offset="0.9939" style="stop-color:#090706"/>
			<stop  offset="1" style="stop-color:#010101"/>
		</linearGradient>
		<path opacity="0.17" fill="url(#SVGID_7_)" d="M42.6,14.9c1.5-0.8,9.7,2.3,10.4,10.9c0.6,7.2-0.7,15.6-3.7,19.6
			c-2.5,3.3-3.7,5.5-1.5,0c2.2-5.5,5.2-13.3,2.2-20.3c-2.3-5.4-8.2-7-8.9-8.6C40.4,14.9,41.1,15.6,42.6,14.9z"/>
		<linearGradient id="SVGID_8_" gradientUnits="userSpaceOnUse" x1="88.1054" y1="-34.2418" x2="29.458" y2="20.4959">
			<stop  offset="0" style="stop-color:#FFFFFF"/>
			<stop  offset="2.248450e-002" style="stop-color:#F6FAF0"/>
			<stop  offset="0.1098" style="stop-color:#D4EABB"/>
			<stop  offset="0.1953" style="stop-color:#B8DC8F"/>
			<stop  offset="0.2772" style="stop-color:#A2D16D"/>
			<stop  offset="0.3544" style="stop-color:#93C954"/>
			<stop  offset="0.4252" style="stop-color:#89C545"/>
			<stop  offset="0.4835" style="stop-color:#86C340"/>
			<stop  offset="0.6136" style="stop-color:#7AB13F"/>
			<stop  offset="0.8686" style="stop-color:#618D3C"/>
			<stop  offset="0.9505" style="stop-color:#59813A"/>
			<stop  offset="0.9774" style="stop-color:#5C7936"/>
			<stop  offset="1" style="stop-color:#5D7031"/>
		</linearGradient>
		<path fill="url(#SVGID_8_)" d="M34.1,12.5c0,0,3.9-3.9,8.6-5.5c4.7-1.6,11.7-5.5,11.7-5.5s-8.6,6.3-11.7,7
			c-3.1,0.8-8.6,4.7-8.6,4.7l-0.8-0.8"/>
	</g>
</g>
</svg>
