<?xml version="1.0" encoding="utf-8"?>
<!-- Generator: Adobe Illustrator 18.0.0, SVG Export Plug-In . SVG Version: 6.00 Build 0)  -->
<!DOCTYPE svg PUBLIC "-//W3C//DTD SVG 1.1//EN" "http://www.w3.org/Graphics/SVG/1.1/DTD/svg11.dtd">
<svg version="1.1" id="Layer_1" xmlns="http://www.w3.org/2000/svg" xmlns:xlink="http://www.w3.org/1999/xlink" x="0px" y="0px"
	 viewBox="0 0 1536 2048" enable-background="new 0 0 1536 2048" xml:space="preserve">
<g>
	<g>
		<g>
			<defs>
				<filter id="Adobe_OpacityMaskFilter" filterUnits="userSpaceOnUse" x="0" y="1546.5" width="1536" height="292.1">
					<feColorMatrix  type="matrix" values="1 0 0 0 0  0 1 0 0 0  0 0 1 0 0  0 0 0 1 0"/>
				</filter>
			</defs>
			<mask maskUnits="userSpaceOnUse" x="0" y="1546.5" width="1536" height="292.1" id="SVGID_10_">
				<g filter="url(#Adobe_OpacityMaskFilter)">
					
						<radialGradient id="SVGID_2_" cx="-1861.8243" cy="1238.2952" r="35.168" gradientTransform="matrix(-21.9572 0 0 -4.1396 -40099.9453 6814.9639)" gradientUnits="userSpaceOnUse">
						<stop  offset="0" style="stop-color:#FFFFFF"/>
						<stop  offset="4.371321e-002" style="stop-color:#ECECEC"/>
						<stop  offset="0.197" style="stop-color:#AFAFAF"/>
						<stop  offset="0.3492" style="stop-color:#7A7A7A"/>
						<stop  offset="0.4965" style="stop-color:#4E4E4E"/>
						<stop  offset="0.638" style="stop-color:#2D2D2D"/>
						<stop  offset="0.7723" style="stop-color:#151515"/>
						<stop  offset="0.8962" style="stop-color:#060606"/>
						<stop  offset="1" style="stop-color:#010101"/>
					</radialGradient>
					<path fill="url(#SVGID_2_)" d="M12.6,1690c0,80.6,345,146,768,146s768-65.5,768-146c0-80.6-345-146-768-146
						C357.6,1546.5,12.6,1609.4,12.6,1690z"/>
				</g>
			</mask>
			<ellipse opacity="0.66" mask="url(#SVGID_10_)" enable-background="new    " cx="768" cy="1692.5" rx="768" ry="146"/>
			<g>
				<path fill="#E1E1E1" d="M1160.8,793.6c0,244.2-37.8,413-113.3,506.1c-52.9,65.5-128.4,93.2-246.8,93.2
					c-120.9,0-193.9-27.7-246.8-90.6c-75.5-90.6-113.3-261.9-113.3-508.6c0-12.6,0-25.2,0-37.8H322.3c0,12.6,0,25.2,0,37.8
					c0,599.3,214,717.6,478.4,717.6s478.4-125.9,478.4-717.6c0-12.6,0-25.2,0-37.8h-120.9C1160.8,768.4,1160.8,781,1160.8,793.6z"/>
				
					<linearGradient id="SVGID_3_" gradientUnits="userSpaceOnUse" x1="14.6631" y1="2011.4" x2="48.875" y2="2011.4" gradientTransform="matrix(25.1803 0 0 -25.1803 0 51781.2461)">
					<stop  offset="0" style="stop-color:#FFFFFF"/>
					<stop  offset="1" style="stop-color:#FFFFFF"/>
				</linearGradient>
				<path opacity="0.48" fill="url(#SVGID_3_)" enable-background="new    " d="M800.7,1463.4c-221.6,0-428.1-80.6-430.6-659.7h22.7
					c0,254.3,42.8,430.6,123.4,528.8c63,75.5,148.6,108.3,284.5,108.3c130.9,0,221.6-35.3,282-110.8
					c80.6-98.2,123.4-277,123.4-526.3h22.7C1228.8,1385.3,1012.2,1463.4,800.7,1463.4L800.7,1463.4z"/>
				
					<linearGradient id="SVGID_4_" gradientUnits="userSpaceOnUse" x1="15.6938" y1="2034.5792" x2="15.4514" y2="2016.0323" gradientTransform="matrix(25.1803 0 0 -25.1803 0 51781.2461)">
					<stop  offset="1.098900e-002" style="stop-color:#FFFFFF"/>
					<stop  offset="9.323062e-002" style="stop-color:#CFEDFB"/>
					<stop  offset="0.2582" style="stop-color:#6ECFF5"/>
					<stop  offset="0.3263" style="stop-color:#60B7E4"/>
					<stop  offset="0.4742" style="stop-color:#448EC8"/>
					<stop  offset="0.6007" style="stop-color:#2F75B7"/>
					<stop  offset="0.6994" style="stop-color:#2067AD"/>
					<stop  offset="0.7582" style="stop-color:#1A62AA"/>
					<stop  offset="1" style="stop-color:#134B7F"/>
				</linearGradient>
				<path fill="url(#SVGID_4_)" d="M546.4,730.6c0,40.3-37.8,70.5-83.1,70.5h-141c-45.3,0-83.1-32.7-83.1-70.5l0,0
					c0-40.3,37.8-70.5,83.1-70.5h141C508.6,660.1,546.4,692.9,546.4,730.6L546.4,730.6z"/>
				
					<linearGradient id="SVGID_5_" gradientUnits="userSpaceOnUse" x1="47.5938" y1="2034.5789" x2="47.3514" y2="2016.032" gradientTransform="matrix(25.1803 0 0 -25.1803 0 51781.2461)">
					<stop  offset="1.098900e-002" style="stop-color:#FFFFFF"/>
					<stop  offset="9.323062e-002" style="stop-color:#CFEDFB"/>
					<stop  offset="0.2582" style="stop-color:#6ECFF5"/>
					<stop  offset="0.3263" style="stop-color:#60B7E4"/>
					<stop  offset="0.4742" style="stop-color:#448EC8"/>
					<stop  offset="0.6007" style="stop-color:#2F75B7"/>
					<stop  offset="0.6994" style="stop-color:#2067AD"/>
					<stop  offset="0.7582" style="stop-color:#1A62AA"/>
					<stop  offset="1" style="stop-color:#134B7F"/>
				</linearGradient>
				<path fill="url(#SVGID_5_)" d="M1349.7,730.6c0,40.3-37.8,70.5-83.1,70.5h-141c-45.3,0-83.1-32.7-83.1-70.5l0,0
					c0-40.3,37.8-70.5,83.1-70.5h141C1311.9,660.1,1349.7,692.9,1349.7,730.6L1349.7,730.6z"/>
				
					<linearGradient id="SVGID_6_" gradientUnits="userSpaceOnUse" x1="31.5" y1="2065.75" x2="31.5" y2="1852.0007" gradientTransform="matrix(25.1803 0 0 -25.1803 0 51781.2461)">
					<stop  offset="1.098900e-002" style="stop-color:#FFFFFF"/>
					<stop  offset="4.183016e-002" style="stop-color:#DDDBDB"/>
					<stop  offset="0.1377" style="stop-color:#9C9999"/>
					<stop  offset="0.2385" style="stop-color:#6C6969"/>
					<stop  offset="0.3428" style="stop-color:#4B4948"/>
					<stop  offset="0.4512" style="stop-color:#333231"/>
					<stop  offset="0.5651" style="stop-color:#20201F"/>
					<stop  offset="0.6872" style="stop-color:#111111"/>
					<stop  offset="0.8229" style="stop-color:#050505"/>
					<stop  offset="1" style="stop-color:#010101"/>
				</linearGradient>
				<path fill="url(#SVGID_6_)" d="M1087.8,496.5c0-158.6-125.9-284.5-282-284.5h-22.7c-156.1,0-284.5,125.9-284.5,284.5V708h589.2
					V496.5L1087.8,496.5z"/>
				
					<linearGradient id="SVGID_7_" gradientUnits="userSpaceOnUse" x1="31.5" y1="2058.7488" x2="31.5" y2="1867.01" gradientTransform="matrix(25.1803 0 0 -25.1803 0 51781.2461)">
					<stop  offset="1.098900e-002" style="stop-color:#FFFFFF"/>
					<stop  offset="4.183016e-002" style="stop-color:#DDDBDB"/>
					<stop  offset="0.1377" style="stop-color:#9C9999"/>
					<stop  offset="0.2385" style="stop-color:#6C6969"/>
					<stop  offset="0.3428" style="stop-color:#4B4948"/>
					<stop  offset="0.4512" style="stop-color:#333231"/>
					<stop  offset="0.5651" style="stop-color:#20201F"/>
					<stop  offset="0.6872" style="stop-color:#111111"/>
					<stop  offset="0.8229" style="stop-color:#050505"/>
					<stop  offset="1" style="stop-color:#010101"/>
				</linearGradient>
				<path fill="url(#SVGID_7_)" d="M1057.6,677.8H528.8V496.5c0-138.5,113.3-251.8,251.8-251.8h25.2
					c138.5,0,251.8,113.3,251.8,251.8V677.8L1057.6,677.8z"/>
				
					<linearGradient id="SVGID_8_" gradientUnits="userSpaceOnUse" x1="36.1" y1="2042.167" x2="36.1" y2="1844.1676" gradientTransform="matrix(25.1803 0 0 -25.1803 0 51781.2461)">
					<stop  offset="1.098900e-002" style="stop-color:#FFFFFF"/>
					<stop  offset="4.183016e-002" style="stop-color:#DDDBDB"/>
					<stop  offset="0.1377" style="stop-color:#9C9999"/>
					<stop  offset="0.2385" style="stop-color:#6C6969"/>
					<stop  offset="0.3428" style="stop-color:#4B4948"/>
					<stop  offset="0.4512" style="stop-color:#333231"/>
					<stop  offset="0.5651" style="stop-color:#20201F"/>
					<stop  offset="0.6872" style="stop-color:#111111"/>
					<stop  offset="0.8229" style="stop-color:#050505"/>
					<stop  offset="1" style="stop-color:#010101"/>
				</linearGradient>
				<path fill="url(#SVGID_8_)" d="M838.5,267.3c0,0,95.7,22.7,118.3,95.7s22.7,70.5,22.7,141s0,188.9,0,188.9h-47.8
					c0,0,0-95.7,0-188.9s0-118.3-22.7-166.2C886.3,290,838.5,267.3,838.5,267.3z"/>
				
					<linearGradient id="SVGID_11_" gradientUnits="userSpaceOnUse" x1="27.7" y1="2042.167" x2="27.7" y2="1844.1678" gradientTransform="matrix(25.1803 0 0 -25.1803 0 51781.2461)">
					<stop  offset="1.098900e-002" style="stop-color:#FFFFFF"/>
					<stop  offset="4.183016e-002" style="stop-color:#DDDBDB"/>
					<stop  offset="0.1377" style="stop-color:#9C9999"/>
					<stop  offset="0.2385" style="stop-color:#6C6969"/>
					<stop  offset="0.3428" style="stop-color:#4B4948"/>
					<stop  offset="0.4512" style="stop-color:#333231"/>
					<stop  offset="0.5651" style="stop-color:#20201F"/>
					<stop  offset="0.6872" style="stop-color:#111111"/>
					<stop  offset="0.8229" style="stop-color:#050505"/>
					<stop  offset="1" style="stop-color:#010101"/>
				</linearGradient>
				<path fill="url(#SVGID_11_)" d="M800.7,259.8c0,0-130.9,27.7-166.2,83.1s-40.3,90.6-40.3,161.2s0,188.9,0,188.9l70.5,5
					c0,0,0-95.7,0-188.9s12.6-130.9,35.3-176.3S800.7,259.8,800.7,259.8z"/>
				
					<linearGradient id="SVGID_12_" gradientUnits="userSpaceOnUse" x1="35.0434" y1="2076.9277" x2="27.5436" y2="1959.7407" gradientTransform="matrix(25.1803 0 0 -25.1803 0 51781.2461)">
					<stop  offset="1.098900e-002" style="stop-color:#FFFFFF"/>
					<stop  offset="4.183016e-002" style="stop-color:#DDDBDB"/>
					<stop  offset="0.1377" style="stop-color:#9C9999"/>
					<stop  offset="0.2385" style="stop-color:#6C6969"/>
					<stop  offset="0.3428" style="stop-color:#4B4948"/>
					<stop  offset="0.4512" style="stop-color:#333231"/>
					<stop  offset="0.5651" style="stop-color:#20201F"/>
					<stop  offset="0.6872" style="stop-color:#111111"/>
					<stop  offset="0.8229" style="stop-color:#050505"/>
					<stop  offset="1" style="stop-color:#010101"/>
				</linearGradient>
				<path fill="url(#SVGID_12_)" d="M783.1,1322.4h22.7c156.1,0,282-125.9,282-284.5V708H498.6v329.9
					C498.6,1194,624.5,1322.4,783.1,1322.4z"/>
				
					<linearGradient id="SVGID_13_" gradientUnits="userSpaceOnUse" x1="39.0776" y1="2052.8062" x2="31.5776" y2="1954.369" gradientTransform="matrix(25.1803 0 0 -25.1803 0 51781.2461)">
					<stop  offset="1.098900e-002" style="stop-color:#FFFFFF"/>
					<stop  offset="4.183016e-002" style="stop-color:#DDDBDB"/>
					<stop  offset="0.1377" style="stop-color:#9C9999"/>
					<stop  offset="0.2385" style="stop-color:#6C6969"/>
					<stop  offset="0.3428" style="stop-color:#4B4948"/>
					<stop  offset="0.4512" style="stop-color:#333231"/>
					<stop  offset="0.5651" style="stop-color:#20201F"/>
					<stop  offset="0.6872" style="stop-color:#111111"/>
					<stop  offset="0.8229" style="stop-color:#050505"/>
					<stop  offset="1" style="stop-color:#010101"/>
				</linearGradient>
				<path opacity="0.76" fill="url(#SVGID_13_)" enable-background="new    " d="M904,708v317.3c0,103.2-45.3,193.9-113.3,239.2
					c125.9-15.1,226.6-123.4,226.6-256.8V705.5H904V708z"/>
				
					<linearGradient id="SVGID_14_" gradientUnits="userSpaceOnUse" x1="32.6449" y1="2035.7534" x2="30.2666" y2="1942.9962" gradientTransform="matrix(25.1803 0 0 -25.1803 0 51781.2461)">
					<stop  offset="1.098900e-002" style="stop-color:#FFFFFF"/>
					<stop  offset="4.183016e-002" style="stop-color:#DDDBDB"/>
					<stop  offset="0.1377" style="stop-color:#9C9999"/>
					<stop  offset="0.2385" style="stop-color:#6C6969"/>
					<stop  offset="0.3428" style="stop-color:#4B4948"/>
					<stop  offset="0.4512" style="stop-color:#333231"/>
					<stop  offset="0.5651" style="stop-color:#20201F"/>
					<stop  offset="0.6872" style="stop-color:#111111"/>
					<stop  offset="0.8229" style="stop-color:#050505"/>
					<stop  offset="1" style="stop-color:#010101"/>
				</linearGradient>
				<ellipse fill="url(#SVGID_14_)" cx="793.2" cy="1644.7" rx="339.9" ry="103.2"/>
				
					<linearGradient id="SVGID_15_" gradientUnits="userSpaceOnUse" x1="32.99" y1="2057.2102" x2="30.5676" y2="2003.1101" gradientTransform="matrix(25.1803 0 0 -25.1803 0 51781.2461)">
					<stop  offset="1.098900e-002" style="stop-color:#FFFFFF"/>
					<stop  offset="4.183016e-002" style="stop-color:#DDDBDB"/>
					<stop  offset="0.1377" style="stop-color:#9C9999"/>
					<stop  offset="0.2385" style="stop-color:#6C6969"/>
					<stop  offset="0.3428" style="stop-color:#4B4948"/>
					<stop  offset="0.4512" style="stop-color:#333231"/>
					<stop  offset="0.5651" style="stop-color:#20201F"/>
					<stop  offset="0.6872" style="stop-color:#111111"/>
					<stop  offset="0.8229" style="stop-color:#050505"/>
					<stop  offset="1" style="stop-color:#010101"/>
				</linearGradient>
				<rect x="475.9" y="730.6" fill="url(#SVGID_15_)" width="637.1" height="118.3"/>
				
					<linearGradient id="SVGID_16_" gradientUnits="userSpaceOnUse" x1="31.5" y1="2060.75" x2="31.5" y2="1979.75" gradientTransform="matrix(25.1803 0 0 -25.1803 0 51781.2461)">
					<stop  offset="1.098900e-002" style="stop-color:#FFFFFF"/>
					<stop  offset="4.183016e-002" style="stop-color:#DDDBDB"/>
					<stop  offset="0.1377" style="stop-color:#9C9999"/>
					<stop  offset="0.2385" style="stop-color:#6C6969"/>
					<stop  offset="0.3428" style="stop-color:#4B4948"/>
					<stop  offset="0.4512" style="stop-color:#333231"/>
					<stop  offset="0.5651" style="stop-color:#20201F"/>
					<stop  offset="0.6872" style="stop-color:#111111"/>
					<stop  offset="0.8229" style="stop-color:#050505"/>
					<stop  offset="1" style="stop-color:#010101"/>
				</linearGradient>
				<path fill="url(#SVGID_16_)" d="M1135.6,685.3c0,22.7,0,70.5,0,95.7c0,25.2,0,47.8-47.8,47.8c-47.8,0-543.9,0-589.2,0
					c-47.8,0-47.8-22.7-47.8-47.8c0-25.2,0-70.5,0-95.7c0-25.2,22.7-47.8,70.5-47.8s543.9,0,566.6,0
					C1110.5,637.5,1135.6,660.1,1135.6,685.3z"/>
				
					<linearGradient id="SVGID_17_" gradientUnits="userSpaceOnUse" x1="31.6" y1="2023.6255" x2="31.6" y2="1960.813" gradientTransform="matrix(25.1803 0 0 -25.1803 0 51781.2461)">
					<stop  offset="1.098900e-002" style="stop-color:#FFFFFF"/>
					<stop  offset="4.183016e-002" style="stop-color:#DDDBDB"/>
					<stop  offset="0.1377" style="stop-color:#9C9999"/>
					<stop  offset="0.2385" style="stop-color:#6C6969"/>
					<stop  offset="0.3428" style="stop-color:#4B4948"/>
					<stop  offset="0.4512" style="stop-color:#333231"/>
					<stop  offset="0.5651" style="stop-color:#20201F"/>
					<stop  offset="0.6872" style="stop-color:#111111"/>
					<stop  offset="0.8229" style="stop-color:#050505"/>
					<stop  offset="1" style="stop-color:#010101"/>
				</linearGradient>
				<path fill="url(#SVGID_17_)" d="M926.6,1450.8c0-45.3-37.8-83.1-83.1-83.1h-95.7c-45.3,0-83.1,37.8-83.1,83.1
					c0,20.1,7.6,37.8,17.6,50.4v103.2c0,0,2.5,47.8,98.2,47.8c118.3,0,125.9-47.8,125.9-47.8v-103.2
					C919.1,1488.6,926.6,1471,926.6,1450.8z"/>
				
					<linearGradient id="SVGID_18_" gradientUnits="userSpaceOnUse" x1="42.2254" y1="1993.4081" x2="4.7274" y2="1996.2205" gradientTransform="matrix(25.1803 0 0 -25.1803 0 51781.2461)">
					<stop  offset="1.098900e-002" style="stop-color:#FFFFFF"/>
					<stop  offset="4.183016e-002" style="stop-color:#DDDBDB"/>
					<stop  offset="0.1377" style="stop-color:#9C9999"/>
					<stop  offset="0.2385" style="stop-color:#6C6969"/>
					<stop  offset="0.3428" style="stop-color:#4B4948"/>
					<stop  offset="0.4512" style="stop-color:#333231"/>
					<stop  offset="0.5651" style="stop-color:#20201F"/>
					<stop  offset="0.6872" style="stop-color:#111111"/>
					<stop  offset="0.8229" style="stop-color:#050505"/>
					<stop  offset="1" style="stop-color:#010101"/>
				</linearGradient>
				<path opacity="0.5" fill="url(#SVGID_18_)" enable-background="new    " d="M853.6,1604.4c0,12.6-10.1,22.7-22.7,22.7l0,0
					c-12.6,0-22.7-10.1-22.7-22.7v-70.5c0-12.6,10.1-22.7,22.7-22.7l0,0c12.6,0,22.7,10.1,22.7,22.7V1604.4z"/>
				
					<linearGradient id="SVGID_19_" gradientUnits="userSpaceOnUse" x1="31.05" y1="2033" x2="31.05" y2="2017.0625" gradientTransform="matrix(25.1803 0 0 -25.1803 0 51781.2461)">
					<stop  offset="1.098900e-002" style="stop-color:#FFFFFF"/>
					<stop  offset="4.183016e-002" style="stop-color:#DDDBDB"/>
					<stop  offset="0.1377" style="stop-color:#9C9999"/>
					<stop  offset="0.2385" style="stop-color:#6C6969"/>
					<stop  offset="0.3428" style="stop-color:#4B4948"/>
					<stop  offset="0.4512" style="stop-color:#333231"/>
					<stop  offset="0.5651" style="stop-color:#20201F"/>
					<stop  offset="0.6872" style="stop-color:#111111"/>
					<stop  offset="0.8229" style="stop-color:#050505"/>
					<stop  offset="1" style="stop-color:#010101"/>
				</linearGradient>
				<path fill="url(#SVGID_19_)" d="M1065.1,672.7c0,7.6-5,12.6-12.6,12.6H511.2c-7.6,0-12.6-5-12.6-12.6l0,0
					c0-7.6,5-12.6,12.6-12.6h543.9C1060.1,660.1,1065.1,665.2,1065.1,672.7L1065.1,672.7z"/>
				
					<linearGradient id="SVGID_20_" gradientUnits="userSpaceOnUse" x1="24.0406" y1="2047.2483" x2="23.7904" y2="2028.6117" gradientTransform="matrix(25.1803 0 0 -25.1803 0 51781.2461)">
					<stop  offset="1.098900e-002" style="stop-color:#FFFFFF"/>
					<stop  offset="4.183016e-002" style="stop-color:#DDDBDB"/>
					<stop  offset="0.1377" style="stop-color:#9C9999"/>
					<stop  offset="0.2385" style="stop-color:#6C6969"/>
					<stop  offset="0.3428" style="stop-color:#4B4948"/>
					<stop  offset="0.4512" style="stop-color:#333231"/>
					<stop  offset="0.5651" style="stop-color:#20201F"/>
					<stop  offset="0.6872" style="stop-color:#111111"/>
					<stop  offset="0.8229" style="stop-color:#050505"/>
					<stop  offset="1" style="stop-color:#010101"/>
				</linearGradient>
				<rect x="591.7" y="388.2" opacity="0.68" fill="url(#SVGID_20_)" enable-background="new    " width="22.7" height="25.2"/>
				
					<linearGradient id="SVGID_21_" gradientUnits="userSpaceOnUse" x1="27.3406" y1="2047.2485" x2="27.0904" y2="2028.6119" gradientTransform="matrix(25.1803 0 0 -25.1803 0 51781.2461)">
					<stop  offset="1.098900e-002" style="stop-color:#FFFFFF"/>
					<stop  offset="4.183016e-002" style="stop-color:#DDDBDB"/>
					<stop  offset="0.1377" style="stop-color:#9C9999"/>
					<stop  offset="0.2385" style="stop-color:#6C6969"/>
					<stop  offset="0.3428" style="stop-color:#4B4948"/>
					<stop  offset="0.4512" style="stop-color:#333231"/>
					<stop  offset="0.5651" style="stop-color:#20201F"/>
					<stop  offset="0.6872" style="stop-color:#111111"/>
					<stop  offset="0.8229" style="stop-color:#050505"/>
					<stop  offset="1" style="stop-color:#010101"/>
				</linearGradient>
				<rect x="674.8" y="388.2" opacity="0.68" fill="url(#SVGID_21_)" enable-background="new    " width="22.7" height="25.2"/>
				
					<linearGradient id="SVGID_22_" gradientUnits="userSpaceOnUse" x1="31.2406" y1="2047.249" x2="30.9904" y2="2028.6124" gradientTransform="matrix(25.1803 0 0 -25.1803 0 51781.2461)">
					<stop  offset="1.098900e-002" style="stop-color:#FFFFFF"/>
					<stop  offset="4.183016e-002" style="stop-color:#DDDBDB"/>
					<stop  offset="0.1377" style="stop-color:#9C9999"/>
					<stop  offset="0.2385" style="stop-color:#6C6969"/>
					<stop  offset="0.3428" style="stop-color:#4B4948"/>
					<stop  offset="0.4512" style="stop-color:#333231"/>
					<stop  offset="0.5651" style="stop-color:#20201F"/>
					<stop  offset="0.6872" style="stop-color:#111111"/>
					<stop  offset="0.8229" style="stop-color:#050505"/>
					<stop  offset="1" style="stop-color:#010101"/>
				</linearGradient>
				<rect x="773" y="388.2" opacity="0.68" fill="url(#SVGID_22_)" enable-background="new    " width="22.7" height="25.2"/>
				
					<linearGradient id="SVGID_23_" gradientUnits="userSpaceOnUse" x1="34.6406" y1="2047.2478" x2="34.3904" y2="2028.6112" gradientTransform="matrix(25.1803 0 0 -25.1803 0 51781.2461)">
					<stop  offset="1.098900e-002" style="stop-color:#FFFFFF"/>
					<stop  offset="4.183016e-002" style="stop-color:#DDDBDB"/>
					<stop  offset="0.1377" style="stop-color:#9C9999"/>
					<stop  offset="0.2385" style="stop-color:#6C6969"/>
					<stop  offset="0.3428" style="stop-color:#4B4948"/>
					<stop  offset="0.4512" style="stop-color:#333231"/>
					<stop  offset="0.5651" style="stop-color:#20201F"/>
					<stop  offset="0.6872" style="stop-color:#111111"/>
					<stop  offset="0.8229" style="stop-color:#050505"/>
					<stop  offset="1" style="stop-color:#010101"/>
				</linearGradient>
				<rect x="858.6" y="388.2" opacity="0.68" fill="url(#SVGID_23_)" enable-background="new    " width="22.7" height="25.2"/>
				
					<linearGradient id="SVGID_24_" gradientUnits="userSpaceOnUse" x1="27.3406" y1="2050.2485" x2="27.0904" y2="2031.6119" gradientTransform="matrix(25.1803 0 0 -25.1803 0 51781.2461)">
					<stop  offset="1.098900e-002" style="stop-color:#FFFFFF"/>
					<stop  offset="4.183016e-002" style="stop-color:#DDDBDB"/>
					<stop  offset="0.1377" style="stop-color:#9C9999"/>
					<stop  offset="0.2385" style="stop-color:#6C6969"/>
					<stop  offset="0.3428" style="stop-color:#4B4948"/>
					<stop  offset="0.4512" style="stop-color:#333231"/>
					<stop  offset="0.5651" style="stop-color:#20201F"/>
					<stop  offset="0.6872" style="stop-color:#111111"/>
					<stop  offset="0.8229" style="stop-color:#050505"/>
					<stop  offset="1" style="stop-color:#010101"/>
				</linearGradient>
				<rect x="674.8" y="312.7" opacity="0.68" fill="url(#SVGID_24_)" enable-background="new    " width="22.7" height="25.2"/>
				
					<linearGradient id="SVGID_25_" gradientUnits="userSpaceOnUse" x1="31.2406" y1="2050.249" x2="30.9904" y2="2031.6124" gradientTransform="matrix(25.1803 0 0 -25.1803 0 51781.2461)">
					<stop  offset="1.098900e-002" style="stop-color:#FFFFFF"/>
					<stop  offset="4.183016e-002" style="stop-color:#DDDBDB"/>
					<stop  offset="0.1377" style="stop-color:#9C9999"/>
					<stop  offset="0.2385" style="stop-color:#6C6969"/>
					<stop  offset="0.3428" style="stop-color:#4B4948"/>
					<stop  offset="0.4512" style="stop-color:#333231"/>
					<stop  offset="0.5651" style="stop-color:#20201F"/>
					<stop  offset="0.6872" style="stop-color:#111111"/>
					<stop  offset="0.8229" style="stop-color:#050505"/>
					<stop  offset="1" style="stop-color:#010101"/>
				</linearGradient>
				<rect x="773" y="312.7" opacity="0.68" fill="url(#SVGID_25_)" enable-background="new    " width="22.7" height="25.2"/>
				
					<linearGradient id="SVGID_26_" gradientUnits="userSpaceOnUse" x1="34.6406" y1="2050.2478" x2="34.3904" y2="2031.6112" gradientTransform="matrix(25.1803 0 0 -25.1803 0 51781.2461)">
					<stop  offset="1.098900e-002" style="stop-color:#FFFFFF"/>
					<stop  offset="4.183016e-002" style="stop-color:#DDDBDB"/>
					<stop  offset="0.1377" style="stop-color:#9C9999"/>
					<stop  offset="0.2385" style="stop-color:#6C6969"/>
					<stop  offset="0.3428" style="stop-color:#4B4948"/>
					<stop  offset="0.4512" style="stop-color:#333231"/>
					<stop  offset="0.5651" style="stop-color:#20201F"/>
					<stop  offset="0.6872" style="stop-color:#111111"/>
					<stop  offset="0.8229" style="stop-color:#050505"/>
					<stop  offset="1" style="stop-color:#010101"/>
				</linearGradient>
				<rect x="858.6" y="312.7" opacity="0.68" fill="url(#SVGID_26_)" enable-background="new    " width="22.7" height="25.2"/>
				
					<linearGradient id="SVGID_27_" gradientUnits="userSpaceOnUse" x1="31.2399" y1="2052.499" x2="30.9897" y2="2033.8624" gradientTransform="matrix(25.1803 0 0 -25.1803 0 51781.2461)">
					<stop  offset="1.098900e-002" style="stop-color:#FFFFFF"/>
					<stop  offset="4.183016e-002" style="stop-color:#DDDBDB"/>
					<stop  offset="0.1377" style="stop-color:#9C9999"/>
					<stop  offset="0.2385" style="stop-color:#6C6969"/>
					<stop  offset="0.3428" style="stop-color:#4B4948"/>
					<stop  offset="0.4512" style="stop-color:#333231"/>
					<stop  offset="0.5651" style="stop-color:#20201F"/>
					<stop  offset="0.6872" style="stop-color:#111111"/>
					<stop  offset="0.8229" style="stop-color:#050505"/>
					<stop  offset="1" style="stop-color:#010101"/>
				</linearGradient>
				<rect x="773" y="254.7" opacity="0.68" fill="url(#SVGID_27_)" enable-background="new    " width="22.7" height="25.2"/>
				
					<linearGradient id="SVGID_28_" gradientUnits="userSpaceOnUse" x1="37.8406" y1="2047.2485" x2="37.5904" y2="2028.6119" gradientTransform="matrix(25.1803 0 0 -25.1803 0 51781.2461)">
					<stop  offset="1.098900e-002" style="stop-color:#FFFFFF"/>
					<stop  offset="4.183016e-002" style="stop-color:#DDDBDB"/>
					<stop  offset="0.1377" style="stop-color:#9C9999"/>
					<stop  offset="0.2385" style="stop-color:#6C6969"/>
					<stop  offset="0.3428" style="stop-color:#4B4948"/>
					<stop  offset="0.4512" style="stop-color:#333231"/>
					<stop  offset="0.5651" style="stop-color:#20201F"/>
					<stop  offset="0.6872" style="stop-color:#111111"/>
					<stop  offset="0.8229" style="stop-color:#050505"/>
					<stop  offset="1" style="stop-color:#010101"/>
				</linearGradient>
				<rect x="939.2" y="388.2" opacity="0.68" fill="url(#SVGID_28_)" enable-background="new    " width="22.7" height="25.2"/>
				
					<linearGradient id="SVGID_29_" gradientUnits="userSpaceOnUse" x1="23.0403" y1="2044.1233" x2="22.7901" y2="2025.4867" gradientTransform="matrix(25.1803 0 0 -25.1803 0 51781.2461)">
					<stop  offset="1.098900e-002" style="stop-color:#FFFFFF"/>
					<stop  offset="4.183016e-002" style="stop-color:#DDDBDB"/>
					<stop  offset="0.1377" style="stop-color:#9C9999"/>
					<stop  offset="0.2385" style="stop-color:#6C6969"/>
					<stop  offset="0.3428" style="stop-color:#4B4948"/>
					<stop  offset="0.4512" style="stop-color:#333231"/>
					<stop  offset="0.5651" style="stop-color:#20201F"/>
					<stop  offset="0.6872" style="stop-color:#111111"/>
					<stop  offset="0.8229" style="stop-color:#050505"/>
					<stop  offset="1" style="stop-color:#010101"/>
				</linearGradient>
				<rect x="566.6" y="466.3" opacity="0.68" fill="url(#SVGID_29_)" enable-background="new    " width="22.7" height="25.2"/>
				
					<linearGradient id="SVGID_30_" gradientUnits="userSpaceOnUse" x1="27.3403" y1="2044.1235" x2="27.0901" y2="2025.4869" gradientTransform="matrix(25.1803 0 0 -25.1803 0 51781.2461)">
					<stop  offset="1.098900e-002" style="stop-color:#FFFFFF"/>
					<stop  offset="4.183016e-002" style="stop-color:#DDDBDB"/>
					<stop  offset="0.1377" style="stop-color:#9C9999"/>
					<stop  offset="0.2385" style="stop-color:#6C6969"/>
					<stop  offset="0.3428" style="stop-color:#4B4948"/>
					<stop  offset="0.4512" style="stop-color:#333231"/>
					<stop  offset="0.5651" style="stop-color:#20201F"/>
					<stop  offset="0.6872" style="stop-color:#111111"/>
					<stop  offset="0.8229" style="stop-color:#050505"/>
					<stop  offset="1" style="stop-color:#010101"/>
				</linearGradient>
				<rect x="674.8" y="466.3" opacity="0.68" fill="url(#SVGID_30_)" enable-background="new    " width="22.7" height="25.2"/>
				
					<linearGradient id="SVGID_31_" gradientUnits="userSpaceOnUse" x1="31.2403" y1="2044.124" x2="30.9901" y2="2025.4874" gradientTransform="matrix(25.1803 0 0 -25.1803 0 51781.2461)">
					<stop  offset="1.098900e-002" style="stop-color:#FFFFFF"/>
					<stop  offset="4.183016e-002" style="stop-color:#DDDBDB"/>
					<stop  offset="0.1377" style="stop-color:#9C9999"/>
					<stop  offset="0.2385" style="stop-color:#6C6969"/>
					<stop  offset="0.3428" style="stop-color:#4B4948"/>
					<stop  offset="0.4512" style="stop-color:#333231"/>
					<stop  offset="0.5651" style="stop-color:#20201F"/>
					<stop  offset="0.6872" style="stop-color:#111111"/>
					<stop  offset="0.8229" style="stop-color:#050505"/>
					<stop  offset="1" style="stop-color:#010101"/>
				</linearGradient>
				<rect x="773" y="466.3" opacity="0.68" fill="url(#SVGID_31_)" enable-background="new    " width="22.7" height="25.2"/>
				
					<linearGradient id="SVGID_32_" gradientUnits="userSpaceOnUse" x1="34.6403" y1="2044.1228" x2="34.3901" y2="2025.4862" gradientTransform="matrix(25.1803 0 0 -25.1803 0 51781.2461)">
					<stop  offset="1.098900e-002" style="stop-color:#FFFFFF"/>
					<stop  offset="4.183016e-002" style="stop-color:#DDDBDB"/>
					<stop  offset="0.1377" style="stop-color:#9C9999"/>
					<stop  offset="0.2385" style="stop-color:#6C6969"/>
					<stop  offset="0.3428" style="stop-color:#4B4948"/>
					<stop  offset="0.4512" style="stop-color:#333231"/>
					<stop  offset="0.5651" style="stop-color:#20201F"/>
					<stop  offset="0.6872" style="stop-color:#111111"/>
					<stop  offset="0.8229" style="stop-color:#050505"/>
					<stop  offset="1" style="stop-color:#010101"/>
				</linearGradient>
				<rect x="858.6" y="466.3" opacity="0.68" fill="url(#SVGID_32_)" enable-background="new    " width="22.7" height="25.2"/>
				
					<linearGradient id="SVGID_33_" gradientUnits="userSpaceOnUse" x1="37.8403" y1="2044.1235" x2="37.5901" y2="2025.4869" gradientTransform="matrix(25.1803 0 0 -25.1803 0 51781.2461)">
					<stop  offset="1.098900e-002" style="stop-color:#FFFFFF"/>
					<stop  offset="4.183016e-002" style="stop-color:#DDDBDB"/>
					<stop  offset="0.1377" style="stop-color:#9C9999"/>
					<stop  offset="0.2385" style="stop-color:#6C6969"/>
					<stop  offset="0.3428" style="stop-color:#4B4948"/>
					<stop  offset="0.4512" style="stop-color:#333231"/>
					<stop  offset="0.5651" style="stop-color:#20201F"/>
					<stop  offset="0.6872" style="stop-color:#111111"/>
					<stop  offset="0.8229" style="stop-color:#050505"/>
					<stop  offset="1" style="stop-color:#010101"/>
				</linearGradient>
				<rect x="939.2" y="466.3" opacity="0.68" fill="url(#SVGID_33_)" enable-background="new    " width="22.7" height="25.2"/>
				
					<linearGradient id="SVGID_34_" gradientUnits="userSpaceOnUse" x1="40.8403" y1="2044.1235" x2="40.5901" y2="2025.4869" gradientTransform="matrix(25.1803 0 0 -25.1803 0 51781.2461)">
					<stop  offset="1.098900e-002" style="stop-color:#FFFFFF"/>
					<stop  offset="4.183016e-002" style="stop-color:#DDDBDB"/>
					<stop  offset="0.1377" style="stop-color:#9C9999"/>
					<stop  offset="0.2385" style="stop-color:#6C6969"/>
					<stop  offset="0.3428" style="stop-color:#4B4948"/>
					<stop  offset="0.4512" style="stop-color:#333231"/>
					<stop  offset="0.5651" style="stop-color:#20201F"/>
					<stop  offset="0.6872" style="stop-color:#111111"/>
					<stop  offset="0.8229" style="stop-color:#050505"/>
					<stop  offset="1" style="stop-color:#010101"/>
				</linearGradient>
				<rect x="1014.8" y="466.3" opacity="0.68" fill="url(#SVGID_34_)" enable-background="new    " width="22.7" height="25.2"/>
				
					<linearGradient id="SVGID_35_" gradientUnits="userSpaceOnUse" x1="23.0403" y1="2041.1233" x2="22.7901" y2="2022.4867" gradientTransform="matrix(25.1803 0 0 -25.1803 0 51781.2461)">
					<stop  offset="1.098900e-002" style="stop-color:#FFFFFF"/>
					<stop  offset="4.183016e-002" style="stop-color:#DDDBDB"/>
					<stop  offset="0.1377" style="stop-color:#9C9999"/>
					<stop  offset="0.2385" style="stop-color:#6C6969"/>
					<stop  offset="0.3428" style="stop-color:#4B4948"/>
					<stop  offset="0.4512" style="stop-color:#333231"/>
					<stop  offset="0.5651" style="stop-color:#20201F"/>
					<stop  offset="0.6872" style="stop-color:#111111"/>
					<stop  offset="0.8229" style="stop-color:#050505"/>
					<stop  offset="1" style="stop-color:#010101"/>
				</linearGradient>
				<rect x="566.6" y="541.8" opacity="0.68" fill="url(#SVGID_35_)" enable-background="new    " width="22.7" height="25.2"/>
				
					<linearGradient id="SVGID_36_" gradientUnits="userSpaceOnUse" x1="27.3403" y1="2041.1235" x2="27.0901" y2="2022.4869" gradientTransform="matrix(25.1803 0 0 -25.1803 0 51781.2461)">
					<stop  offset="1.098900e-002" style="stop-color:#FFFFFF"/>
					<stop  offset="4.183016e-002" style="stop-color:#DDDBDB"/>
					<stop  offset="0.1377" style="stop-color:#9C9999"/>
					<stop  offset="0.2385" style="stop-color:#6C6969"/>
					<stop  offset="0.3428" style="stop-color:#4B4948"/>
					<stop  offset="0.4512" style="stop-color:#333231"/>
					<stop  offset="0.5651" style="stop-color:#20201F"/>
					<stop  offset="0.6872" style="stop-color:#111111"/>
					<stop  offset="0.8229" style="stop-color:#050505"/>
					<stop  offset="1" style="stop-color:#010101"/>
				</linearGradient>
				<rect x="674.8" y="541.8" opacity="0.68" fill="url(#SVGID_36_)" enable-background="new    " width="22.7" height="25.2"/>
				
					<linearGradient id="SVGID_37_" gradientUnits="userSpaceOnUse" x1="31.2403" y1="2041.124" x2="30.9901" y2="2022.4874" gradientTransform="matrix(25.1803 0 0 -25.1803 0 51781.2461)">
					<stop  offset="1.098900e-002" style="stop-color:#FFFFFF"/>
					<stop  offset="4.183016e-002" style="stop-color:#DDDBDB"/>
					<stop  offset="0.1377" style="stop-color:#9C9999"/>
					<stop  offset="0.2385" style="stop-color:#6C6969"/>
					<stop  offset="0.3428" style="stop-color:#4B4948"/>
					<stop  offset="0.4512" style="stop-color:#333231"/>
					<stop  offset="0.5651" style="stop-color:#20201F"/>
					<stop  offset="0.6872" style="stop-color:#111111"/>
					<stop  offset="0.8229" style="stop-color:#050505"/>
					<stop  offset="1" style="stop-color:#010101"/>
				</linearGradient>
				<rect x="773" y="541.8" opacity="0.68" fill="url(#SVGID_37_)" enable-background="new    " width="22.7" height="25.2"/>
				
					<linearGradient id="SVGID_38_" gradientUnits="userSpaceOnUse" x1="34.6403" y1="2041.1228" x2="34.3901" y2="2022.4862" gradientTransform="matrix(25.1803 0 0 -25.1803 0 51781.2461)">
					<stop  offset="1.098900e-002" style="stop-color:#FFFFFF"/>
					<stop  offset="4.183016e-002" style="stop-color:#DDDBDB"/>
					<stop  offset="0.1377" style="stop-color:#9C9999"/>
					<stop  offset="0.2385" style="stop-color:#6C6969"/>
					<stop  offset="0.3428" style="stop-color:#4B4948"/>
					<stop  offset="0.4512" style="stop-color:#333231"/>
					<stop  offset="0.5651" style="stop-color:#20201F"/>
					<stop  offset="0.6872" style="stop-color:#111111"/>
					<stop  offset="0.8229" style="stop-color:#050505"/>
					<stop  offset="1" style="stop-color:#010101"/>
				</linearGradient>
				<rect x="858.6" y="541.8" opacity="0.68" fill="url(#SVGID_38_)" enable-background="new    " width="22.7" height="25.2"/>
				
					<linearGradient id="SVGID_39_" gradientUnits="userSpaceOnUse" x1="37.8403" y1="2041.1235" x2="37.5901" y2="2022.4869" gradientTransform="matrix(25.1803 0 0 -25.1803 0 51781.2461)">
					<stop  offset="1.098900e-002" style="stop-color:#FFFFFF"/>
					<stop  offset="4.183016e-002" style="stop-color:#DDDBDB"/>
					<stop  offset="0.1377" style="stop-color:#9C9999"/>
					<stop  offset="0.2385" style="stop-color:#6C6969"/>
					<stop  offset="0.3428" style="stop-color:#4B4948"/>
					<stop  offset="0.4512" style="stop-color:#333231"/>
					<stop  offset="0.5651" style="stop-color:#20201F"/>
					<stop  offset="0.6872" style="stop-color:#111111"/>
					<stop  offset="0.8229" style="stop-color:#050505"/>
					<stop  offset="1" style="stop-color:#010101"/>
				</linearGradient>
				<rect x="939.2" y="541.8" opacity="0.68" fill="url(#SVGID_39_)" enable-background="new    " width="22.7" height="25.2"/>
				
					<linearGradient id="SVGID_40_" gradientUnits="userSpaceOnUse" x1="40.8403" y1="2041.1235" x2="40.5901" y2="2022.4869" gradientTransform="matrix(25.1803 0 0 -25.1803 0 51781.2461)">
					<stop  offset="1.098900e-002" style="stop-color:#FFFFFF"/>
					<stop  offset="4.183016e-002" style="stop-color:#DDDBDB"/>
					<stop  offset="0.1377" style="stop-color:#9C9999"/>
					<stop  offset="0.2385" style="stop-color:#6C6969"/>
					<stop  offset="0.3428" style="stop-color:#4B4948"/>
					<stop  offset="0.4512" style="stop-color:#333231"/>
					<stop  offset="0.5651" style="stop-color:#20201F"/>
					<stop  offset="0.6872" style="stop-color:#111111"/>
					<stop  offset="0.8229" style="stop-color:#050505"/>
					<stop  offset="1" style="stop-color:#010101"/>
				</linearGradient>
				<rect x="1014.8" y="541.8" opacity="0.68" fill="url(#SVGID_40_)" enable-background="new    " width="22.7" height="25.2"/>
			</g>
			
				<linearGradient id="SVGID_41_" gradientUnits="userSpaceOnUse" x1="32.2243" y1="1988.1702" x2="31.8915" y2="2010.4878" gradientTransform="matrix(25.1803 0 0 -25.1803 0 51781.2461)">
				<stop  offset="1.098900e-002" style="stop-color:#FFFFFF"/>
				<stop  offset="4.183016e-002" style="stop-color:#DDDBDB"/>
				<stop  offset="0.1377" style="stop-color:#9C9999"/>
				<stop  offset="0.2385" style="stop-color:#6C6969"/>
				<stop  offset="0.3428" style="stop-color:#4B4948"/>
				<stop  offset="0.4512" style="stop-color:#333231"/>
				<stop  offset="0.5651" style="stop-color:#20201F"/>
				<stop  offset="0.6872" style="stop-color:#111111"/>
				<stop  offset="0.8229" style="stop-color:#050505"/>
				<stop  offset="1" style="stop-color:#010101"/>
			</linearGradient>
			<path opacity="0.25" fill="url(#SVGID_41_)" enable-background="new    " d="M546.4,1677.4c0,0,143.5,32.7,269.4,32.7
				s259.4-32.7,259.4-32.7H546.4z"/>
		</g>
	</g>
	<defs>
		<filter id="Adobe_OpacityMaskFilter_1_" filterUnits="userSpaceOnUse" x="0" y="211.9" width="1536" height="1626.6">
			<feFlood  style="flood-color:white;flood-opacity:1" result="back"/>
			<feBlend  in="SourceGraphic" in2="back" mode="normal"/>
		</filter>
	</defs>
	<mask maskUnits="userSpaceOnUse" x="0" y="211.9" width="1536" height="1626.6" id="SVGID_42_">
		<g filter="url(#Adobe_OpacityMaskFilter_1_)">
			<image overflow="visible" width="1540" height="1632" xlink:href="ACCA9890.jpg"  transform="matrix(1 0 0 1 -2 209)">
			</image>
		</g>
	</mask>
	<g opacity="0.5" mask="url(#SVGID_42_)">
		<g>
			<defs>
				<filter id="Adobe_OpacityMaskFilter_2_" filterUnits="userSpaceOnUse" x="0" y="1546.5" width="1536" height="292.1">
					<feColorMatrix  type="matrix" values="1 0 0 0 0  0 1 0 0 0  0 0 1 0 0  0 0 0 1 0"/>
				</filter>
			</defs>
			<mask maskUnits="userSpaceOnUse" x="0" y="1546.5" width="1536" height="292.1" id="SVGID_9_">
				<g filter="url(#Adobe_OpacityMaskFilter_2_)">
					
						<radialGradient id="SVGID_43_" cx="-1861.8243" cy="1238.2952" r="35.168" gradientTransform="matrix(-21.9572 0 0 -4.1396 -40099.9453 6814.9639)" gradientUnits="userSpaceOnUse">
						<stop  offset="0" style="stop-color:#FFFFFF"/>
						<stop  offset="4.371321e-002" style="stop-color:#ECECEC"/>
						<stop  offset="0.197" style="stop-color:#AFAFAF"/>
						<stop  offset="0.3492" style="stop-color:#7A7A7A"/>
						<stop  offset="0.4965" style="stop-color:#4E4E4E"/>
						<stop  offset="0.638" style="stop-color:#2D2D2D"/>
						<stop  offset="0.7723" style="stop-color:#151515"/>
						<stop  offset="0.8962" style="stop-color:#060606"/>
						<stop  offset="1" style="stop-color:#010101"/>
					</radialGradient>
					<path fill="url(#SVGID_43_)" d="M12.6,1690c0,80.6,345,146,768,146s768-65.5,768-146c0-80.6-345-146-768-146
						C357.6,1546.5,12.6,1609.4,12.6,1690z"/>
				</g>
			</mask>
			
				<ellipse opacity="0.66" mask="url(#SVGID_9_)" fill="#FF5722" enable-background="new    " cx="768" cy="1692.5" rx="768" ry="146"/>
			<g>
				<path fill="#FF5722" d="M1160.8,793.6c0,244.2-37.8,413-113.3,506.1c-52.9,65.5-128.4,93.2-246.8,93.2
					c-120.9,0-193.9-27.7-246.8-90.6c-75.5-90.6-113.3-261.9-113.3-508.6c0-12.6,0-25.2,0-37.8H322.3c0,12.6,0,25.2,0,37.8
					c0,599.3,214,717.6,478.4,717.6s478.4-125.9,478.4-717.6c0-12.6,0-25.2,0-37.8h-120.9C1160.8,768.4,1160.8,781,1160.8,793.6z"/>
				<path opacity="0.48" fill="#FF5722" enable-background="new    " d="M800.7,1463.4c-221.6,0-428.1-80.6-430.6-659.7h22.7
					c0,254.3,42.8,430.6,123.4,528.8c63,75.5,148.6,108.3,284.5,108.3c130.9,0,221.6-35.3,282-110.8
					c80.6-98.2,123.4-277,123.4-526.3h22.7C1228.8,1385.3,1012.2,1463.4,800.7,1463.4L800.7,1463.4z"/>
				<path fill="#FF5722" d="M546.4,730.6c0,40.3-37.8,70.5-83.1,70.5h-141c-45.3,0-83.1-32.7-83.1-70.5l0,0
					c0-40.3,37.8-70.5,83.1-70.5h141C508.6,660.1,546.4,692.9,546.4,730.6L546.4,730.6z"/>
				<path fill="#FF5722" d="M1349.7,730.6c0,40.3-37.8,70.5-83.1,70.5h-141c-45.3,0-83.1-32.7-83.1-70.5l0,0
					c0-40.3,37.8-70.5,83.1-70.5h141C1311.9,660.1,1349.7,692.9,1349.7,730.6L1349.7,730.6z"/>
				<path fill="#FF5722" d="M1087.8,496.5c0-158.6-125.9-284.5-282-284.5h-22.7c-156.1,0-284.5,125.9-284.5,284.5V708h589.2V496.5
					L1087.8,496.5z"/>
				<path fill="#FF5722" d="M1057.6,677.8H528.8V496.5c0-138.5,113.3-251.8,251.8-251.8h25.2c138.5,0,251.8,113.3,251.8,251.8V677.8
					L1057.6,677.8z"/>
				<path fill="#FF5722" d="M838.5,267.3c0,0,95.7,22.7,118.3,95.7s22.7,70.5,22.7,141s0,188.9,0,188.9h-47.8c0,0,0-95.7,0-188.9
					s0-118.3-22.7-166.2C886.3,290,838.5,267.3,838.5,267.3z"/>
				<path fill="#FF5722" d="M800.7,259.8c0,0-130.9,27.7-166.2,83.1s-40.3,90.6-40.3,161.2s0,188.9,0,188.9l70.5,5
					c0,0,0-95.7,0-188.9s12.6-130.9,35.3-176.3S800.7,259.8,800.7,259.8z"/>
				<path fill="#FF5722" d="M783.1,1322.4h22.7c156.1,0,282-125.9,282-284.5V708H498.6v329.9C498.6,1194,624.5,1322.4,783.1,1322.4z
					"/>
				<path opacity="0.76" fill="#FF5722" enable-background="new    " d="M904,708v317.3c0,103.2-45.3,193.9-113.3,239.2
					c125.9-15.1,226.6-123.4,226.6-256.8V705.5H904V708z"/>
				<ellipse fill="#FF5722" cx="793.2" cy="1644.7" rx="339.9" ry="103.2"/>
				<rect x="475.9" y="730.6" fill="#FF5722" width="637.1" height="118.3"/>
				<path fill="#FF5722" d="M1135.6,685.3c0,22.7,0,70.5,0,95.7c0,25.2,0,47.8-47.8,47.8c-47.8,0-543.9,0-589.2,0
					c-47.8,0-47.8-22.7-47.8-47.8c0-25.2,0-70.5,0-95.7c0-25.2,22.7-47.8,70.5-47.8s543.9,0,566.6,0
					C1110.5,637.5,1135.6,660.1,1135.6,685.3z"/>
				<path fill="#FF5722" d="M926.6,1450.8c0-45.3-37.8-83.1-83.1-83.1h-95.7c-45.3,0-83.1,37.8-83.1,83.1c0,20.1,7.6,37.8,17.6,50.4
					v103.2c0,0,2.5,47.8,98.2,47.8c118.3,0,125.9-47.8,125.9-47.8v-103.2C919.1,1488.6,926.6,1471,926.6,1450.8z"/>
				<path opacity="0.5" fill="#FF5722" enable-background="new    " d="M853.6,1604.4c0,12.6-10.1,22.7-22.7,22.7l0,0
					c-12.6,0-22.7-10.1-22.7-22.7v-70.5c0-12.6,10.1-22.7,22.7-22.7l0,0c12.6,0,22.7,10.1,22.7,22.7V1604.4z"/>
				<path fill="#FF5722" d="M1065.1,672.7c0,7.6-5,12.6-12.6,12.6H511.2c-7.6,0-12.6-5-12.6-12.6l0,0c0-7.6,5-12.6,12.6-12.6h543.9
					C1060.1,660.1,1065.1,665.2,1065.1,672.7L1065.1,672.7z"/>
				<rect x="591.7" y="388.2" opacity="0.68" fill="#FF5722" enable-background="new    " width="22.7" height="25.2"/>
				<rect x="674.8" y="388.2" opacity="0.68" fill="#FF5722" enable-background="new    " width="22.7" height="25.2"/>
				<rect x="773" y="388.2" opacity="0.68" fill="#FF5722" enable-background="new    " width="22.7" height="25.2"/>
				<rect x="858.6" y="388.2" opacity="0.68" fill="#FF5722" enable-background="new    " width="22.7" height="25.2"/>
				<rect x="674.8" y="312.7" opacity="0.68" fill="#FF5722" enable-background="new    " width="22.7" height="25.2"/>
				<rect x="773" y="312.7" opacity="0.68" fill="#FF5722" enable-background="new    " width="22.7" height="25.2"/>
				<rect x="858.6" y="312.7" opacity="0.68" fill="#FF5722" enable-background="new    " width="22.7" height="25.2"/>
				<rect x="773" y="254.7" opacity="0.68" fill="#FF5722" enable-background="new    " width="22.7" height="25.2"/>
				<rect x="939.2" y="388.2" opacity="0.68" fill="#FF5722" enable-background="new    " width="22.7" height="25.2"/>
				<rect x="566.6" y="466.3" opacity="0.68" fill="#FF5722" enable-background="new    " width="22.7" height="25.2"/>
				<rect x="674.8" y="466.3" opacity="0.68" fill="#FF5722" enable-background="new    " width="22.7" height="25.2"/>
				<rect x="773" y="466.3" opacity="0.68" fill="#FF5722" enable-background="new    " width="22.7" height="25.2"/>
				<rect x="858.6" y="466.3" opacity="0.68" fill="#FF5722" enable-background="new    " width="22.7" height="25.2"/>
				<rect x="939.2" y="466.3" opacity="0.68" fill="#FF5722" enable-background="new    " width="22.7" height="25.2"/>
				<rect x="1014.8" y="466.3" opacity="0.68" fill="#FF5722" enable-background="new    " width="22.7" height="25.2"/>
				<rect x="566.6" y="541.8" opacity="0.68" fill="#FF5722" enable-background="new    " width="22.7" height="25.2"/>
				<rect x="674.8" y="541.8" opacity="0.68" fill="#FF5722" enable-background="new    " width="22.7" height="25.2"/>
				<rect x="773" y="541.8" opacity="0.68" fill="#FF5722" enable-background="new    " width="22.7" height="25.2"/>
				<rect x="858.6" y="541.8" opacity="0.68" fill="#FF5722" enable-background="new    " width="22.7" height="25.2"/>
				<rect x="939.2" y="541.8" opacity="0.68" fill="#FF5722" enable-background="new    " width="22.7" height="25.2"/>
				<rect x="1014.8" y="541.8" opacity="0.68" fill="#FF5722" enable-background="new    " width="22.7" height="25.2"/>
			</g>
			<path opacity="0.25" fill="#FF5722" enable-background="new    " d="M546.4,1677.4c0,0,143.5,32.7,269.4,32.7
				s259.4-32.7,259.4-32.7H546.4z"/>
		</g>
	</g>
</g>
</svg>
