<?xml version="1.0" encoding="utf-8"?>
<!-- Generator: Adobe Illustrator 18.0.0, SVG Export Plug-In . SVG Version: 6.00 Build 0)  -->
<!DOCTYPE svg PUBLIC "-//W3C//DTD SVG 1.1//EN" "http://www.w3.org/Graphics/SVG/1.1/DTD/svg11.dtd" [
	<!ENTITY ns_flows "http://ns.adobe.com/Flows/1.0/">
	<!ENTITY ns_extend "http://ns.adobe.com/Extensibility/1.0/">
	<!ENTITY ns_ai "http://ns.adobe.com/AdobeIllustrator/10.0/">
	<!ENTITY ns_graphs "http://ns.adobe.com/Graphs/1.0/">
	<!ENTITY ns_vars "http://ns.adobe.com/Variables/1.0/">
	<!ENTITY ns_imrep "http://ns.adobe.com/ImageReplacement/1.0/">
	<!ENTITY ns_sfw "http://ns.adobe.com/SaveForWeb/1.0/">
	<!ENTITY ns_custom "http://ns.adobe.com/GenericCustomNamespace/1.0/">
	<!ENTITY ns_adobe_xpath "http://ns.adobe.com/XPath/1.0/">
]>
<svg version="1.1" id="Layer_1" xmlns:x="&ns_extend;" xmlns:i="&ns_ai;" xmlns:graph="&ns_graphs;"
	 xmlns="http://www.w3.org/2000/svg" xmlns:xlink="http://www.w3.org/1999/xlink" xmlns:a="http://ns.adobe.com/AdobeSVGViewerExtensions/3.0/"
	 x="0px" y="0px" viewBox="0 0 57 63.4" enable-background="new 0 0 57 63.4" xml:space="preserve">
<metadata>
	<sfw  xmlns="&ns_sfw;">
		<slices></slices>
		<sliceSourceBounds  width="57" height="63.4" x="996.1" y="-288.4" bottomLeftOrigin="true"></sliceSourceBounds>
	</sfw>
</metadata>
<g>
	<defs>
		<filter id="Adobe_OpacityMaskFilter" filterUnits="userSpaceOnUse" x="0" y="56.5" width="57" height="6.9">
			<feColorMatrix  type="matrix" values="1 0 0 0 0  0 1 0 0 0  0 0 1 0 0  0 0 0 1 0"/>
		</filter>
	</defs>
	<mask maskUnits="userSpaceOnUse" x="0" y="56.5" width="57" height="6.9" id="SVGID_1_">
		<g filter="url(#Adobe_OpacityMaskFilter)">
			
				<radialGradient id="SVGID_2_" cx="-101.4774" cy="-5349.5039" r="35.1638" gradientTransform="matrix(0.8145 0 0 9.890000e-002 110.6758 588.9451)" gradientUnits="userSpaceOnUse">
				<stop  offset="0" style="stop-color:#FFFFFF"/>
				<stop  offset="4.595643e-002" style="stop-color:#EBEBEB"/>
				<stop  offset="0.1989" style="stop-color:#AEAEAE"/>
				<stop  offset="0.3507" style="stop-color:#797979"/>
				<stop  offset="0.4976" style="stop-color:#4D4D4D"/>
				<stop  offset="0.6388" style="stop-color:#2C2C2C"/>
				<stop  offset="0.7728" style="stop-color:#141414"/>
				<stop  offset="0.8964" style="stop-color:#050505"/>
				<stop  offset="1" style="stop-color:#000000"/>
				<a:midPointStop  offset="0" style="stop-color:#FFFFFF"/>
				<a:midPointStop  offset="0.3297" style="stop-color:#FFFFFF"/>
				<a:midPointStop  offset="1" style="stop-color:#000000"/>
			</radialGradient>
			<ellipse fill="url(#SVGID_2_)" cx="28" cy="59.9" rx="28.5" ry="3.5"/>
		</g>
	</mask>
	<ellipse opacity="0.38" mask="url(#SVGID_1_)" cx="28.5" cy="59.9" rx="28.5" ry="3.5"/>
	<linearGradient id="SVGID_3_" gradientUnits="userSpaceOnUse" x1="30.1699" y1="0.9889" x2="30.1699" y2="81.519">
		<stop  offset="0" style="stop-color:#FFFFFF"/>
		<stop  offset="1.169922e-002" style="stop-color:#FDFBF7"/>
		<stop  offset="8.514196e-002" style="stop-color:#F1E3CC"/>
		<stop  offset="0.1561" style="stop-color:#E8D1AA"/>
		<stop  offset="0.2231" style="stop-color:#E1C491"/>
		<stop  offset="0.2845" style="stop-color:#DDBC82"/>
		<stop  offset="0.3352" style="stop-color:#DCB97D"/>
		<stop  offset="1" style="stop-color:#965625"/>
		<a:midPointStop  offset="0" style="stop-color:#FFFFFF"/>
		<a:midPointStop  offset="0.3333" style="stop-color:#FFFFFF"/>
		<a:midPointStop  offset="0.3352" style="stop-color:#DCB97D"/>
		<a:midPointStop  offset="0.5" style="stop-color:#DCB97D"/>
		<a:midPointStop  offset="1" style="stop-color:#965625"/>
	</linearGradient>
	<rect x="22.9" y="25.2" fill="url(#SVGID_3_)" width="14.6" height="10.9"/>
	<rect x="21.1" y="32.1" fill="#FFFFFF" width="15.8" height="18.8"/>
	<linearGradient id="SVGID_4_" gradientUnits="userSpaceOnUse" x1="30.3252" y1="17.7875" x2="30.3252" y2="379.4129">
		<stop  offset="0" style="stop-color:#FFFFFF"/>
		<stop  offset="0.5394" style="stop-color:#777777"/>
		<stop  offset="1" style="stop-color:#000000"/>
		<a:midPointStop  offset="0" style="stop-color:#FFFFFF"/>
		<a:midPointStop  offset="0.5068" style="stop-color:#FFFFFF"/>
		<a:midPointStop  offset="1" style="stop-color:#000000"/>
	</linearGradient>
	<path fill="url(#SVGID_4_)" d="M39.9,29.2L32,46.9H26l-5.7-18.7c0,0-7.2,3.9-9.2,11.8s2,14.8,4.9,16.8c3,2,5.1,3.2,5.1,3.2h17.7
		c0,0,4-2.2,6.9-5.2c3-3,6.5-8.7,2-17.8C43.8,29.1,39.9,29.2,39.9,29.2z"/>
	<linearGradient id="SVGID_5_" gradientUnits="userSpaceOnUse" x1="30.3364" y1="21.2454" x2="30.3364" y2="375.4706">
		<stop  offset="0" style="stop-color:#FFFFFF"/>
		<stop  offset="1" style="stop-color:#000000"/>
		<a:midPointStop  offset="0" style="stop-color:#FFFFFF"/>
		<a:midPointStop  offset="0.4997" style="stop-color:#FFFFFF"/>
		<a:midPointStop  offset="1" style="stop-color:#000000"/>
	</linearGradient>
	<path fill="url(#SVGID_5_)" d="M38.6,59.1H21.5c-0.6-0.4-2.4-1.5-4.8-3.1c-2.5-1.6-6.4-8.1-4.5-15.7c1.4-5.6,5.6-9.1,7.6-10.5
		l5.3,17.5l0.2,0.7H26H32h0.6l0.3-0.6l7.6-17c1.1,0.4,3.7,1.8,6.4,7.2c3.3,6.6,2.7,12.2-1.8,16.6C42.7,56.6,39.5,58.6,38.6,59.1
		L38.6,59.1z"/>
	<linearGradient id="SVGID_6_" gradientUnits="userSpaceOnUse" x1="30.7759" y1="3.5334" x2="27.3178" y2="143.3421">
		<stop  offset="1.098900e-002" style="stop-color:#FFFFFF"/>
		<stop  offset="0.1226" style="stop-color:#B7EDFF"/>
		<stop  offset="0.2582" style="stop-color:#63D8FE"/>
		<stop  offset="0.3957" style="stop-color:#49AFE0"/>
		<stop  offset="0.5565" style="stop-color:#2E85C2"/>
		<stop  offset="0.6829" style="stop-color:#1E6BB0"/>
		<stop  offset="0.7582" style="stop-color:#1861A9"/>
		<stop  offset="1" style="stop-color:#124A7F"/>
		<a:midPointStop  offset="1.098900e-002" style="stop-color:#FFFFFF"/>
		<a:midPointStop  offset="0.4889" style="stop-color:#FFFFFF"/>
		<a:midPointStop  offset="0.2582" style="stop-color:#63D8FE"/>
		<a:midPointStop  offset="0.4066" style="stop-color:#63D8FE"/>
		<a:midPointStop  offset="0.7582" style="stop-color:#1861A9"/>
		<a:midPointStop  offset="0.5" style="stop-color:#1861A9"/>
		<a:midPointStop  offset="1" style="stop-color:#124A7F"/>
	</linearGradient>
	<polygon fill="url(#SVGID_6_)" points="28,37.1 25.1,54.8 29,58.8 34,54.8 31,37.1 	"/>
	<linearGradient id="SVGID_7_" gradientUnits="userSpaceOnUse" x1="30.0322" y1="12.3812" x2="28.5504" y2="79.0653">
		<stop  offset="1.098900e-002" style="stop-color:#FFFFFF"/>
		<stop  offset="0.1226" style="stop-color:#B7EDFF"/>
		<stop  offset="0.2582" style="stop-color:#63D8FE"/>
		<stop  offset="0.3957" style="stop-color:#49AFE0"/>
		<stop  offset="0.5565" style="stop-color:#2E85C2"/>
		<stop  offset="0.6829" style="stop-color:#1E6BB0"/>
		<stop  offset="0.7582" style="stop-color:#1861A9"/>
		<stop  offset="1" style="stop-color:#124A7F"/>
		<a:midPointStop  offset="1.098900e-002" style="stop-color:#FFFFFF"/>
		<a:midPointStop  offset="0.4889" style="stop-color:#FFFFFF"/>
		<a:midPointStop  offset="0.2582" style="stop-color:#63D8FE"/>
		<a:midPointStop  offset="0.4066" style="stop-color:#63D8FE"/>
		<a:midPointStop  offset="0.7582" style="stop-color:#1861A9"/>
		<a:midPointStop  offset="0.5" style="stop-color:#1861A9"/>
		<a:midPointStop  offset="1" style="stop-color:#124A7F"/>
	</linearGradient>
	<polygon fill="url(#SVGID_7_)" points="33,36.1 31,39 28,39 26,36.1 28,33.1 31,33.1 	"/>
	<polygon fill="#FFFFFF" points="30,33.1 34.9,39 40.4,28.4 	"/>
	<polygon fill="#FFFFFF" points="29.3,32.8 23.6,39 20.1,28.4 	"/>
	
		<linearGradient id="SVGID_8_" gradientUnits="userSpaceOnUse" x1="19.0892" y1="-57.0401" x2="19.0892" y2="136.7836" gradientTransform="matrix(0.9788 0 0 0.9788 11.627 49.9043)">
		<stop  offset="0" style="stop-color:#FFFFFF"/>
		<stop  offset="1.169922e-002" style="stop-color:#FDFBF7"/>
		<stop  offset="8.514196e-002" style="stop-color:#F1E3CC"/>
		<stop  offset="0.1561" style="stop-color:#E8D1AA"/>
		<stop  offset="0.2231" style="stop-color:#E1C491"/>
		<stop  offset="0.2845" style="stop-color:#DDBC82"/>
		<stop  offset="0.3352" style="stop-color:#DCB97D"/>
		<stop  offset="1" style="stop-color:#965625"/>
		<a:midPointStop  offset="0" style="stop-color:#FFFFFF"/>
		<a:midPointStop  offset="0.3333" style="stop-color:#FFFFFF"/>
		<a:midPointStop  offset="0.3352" style="stop-color:#DCB97D"/>
		<a:midPointStop  offset="0.5" style="stop-color:#DCB97D"/>
		<a:midPointStop  offset="1" style="stop-color:#965625"/>
	</linearGradient>
	<path fill="url(#SVGID_8_)" d="M42.5,18.2c0,6.7-5.5,12.2-12.2,12.2s-12.2-5.5-12.2-12.2C18.1,11.4,23.6,6,30.3,6
		S42.5,11.4,42.5,18.2z"/>
	<linearGradient id="SVGID_9_" gradientUnits="userSpaceOnUse" x1="30.1241" y1="-16.7992" x2="30.1241" y2="53.3627">
		<stop  offset="1.098900e-002" style="stop-color:#FFFFFF"/>
		<stop  offset="0.1226" style="stop-color:#B7EDFF"/>
		<stop  offset="0.2582" style="stop-color:#63D8FE"/>
		<stop  offset="0.3957" style="stop-color:#49AFE0"/>
		<stop  offset="0.5565" style="stop-color:#2E85C2"/>
		<stop  offset="0.6829" style="stop-color:#1E6BB0"/>
		<stop  offset="0.7582" style="stop-color:#1861A9"/>
		<stop  offset="1" style="stop-color:#124A7F"/>
		<a:midPointStop  offset="1.098900e-002" style="stop-color:#FFFFFF"/>
		<a:midPointStop  offset="0.4889" style="stop-color:#FFFFFF"/>
		<a:midPointStop  offset="0.2582" style="stop-color:#63D8FE"/>
		<a:midPointStop  offset="0.4066" style="stop-color:#63D8FE"/>
		<a:midPointStop  offset="0.7582" style="stop-color:#1861A9"/>
		<a:midPointStop  offset="0.5" style="stop-color:#1861A9"/>
		<a:midPointStop  offset="1" style="stop-color:#124A7F"/>
	</linearGradient>
	<path fill="url(#SVGID_9_)" d="M40.9,12.6c0,0-4.8-1.8-10.4-1.8c-5.7,0-11,1.8-11,1.8l1.2-9.5c0,0,1.5-2.1,9.3-2.1
		c7.7,0,9.8,2.1,9.8,2.1L40.9,12.6z"/>
	<linearGradient id="SVGID_10_" gradientUnits="userSpaceOnUse" x1="30.1241" y1="7.1644" x2="30.1241" y2="14.0818">
		<stop  offset="0" style="stop-color:#F0F0F0"/>
		<stop  offset="0.956" style="stop-color:#DCDAD4"/>
		<a:midPointStop  offset="0" style="stop-color:#F0F0F0"/>
		<a:midPointStop  offset="0.5" style="stop-color:#F0F0F0"/>
		<a:midPointStop  offset="0.956" style="stop-color:#DCDAD4"/>
	</linearGradient>
	<path fill="url(#SVGID_10_)" d="M40.9,11.6c0,0-4.8-1.8-10.4-1.8c-5.7,0-11,1.8-11,1.8l1.2-9.5c0,0,1.5-2.1,9.3-2.1
		c7.7,0,9.8,2.1,9.8,2.1L40.9,11.6z"/>
	<linearGradient id="SVGID_11_" gradientUnits="userSpaceOnUse" x1="30.332" y1="-16.7927" x2="30.332" y2="27.9095">
		<stop  offset="0" style="stop-color:#FFFFFF"/>
		<stop  offset="2.278286e-002" style="stop-color:#FCEEDD"/>
		<stop  offset="6.721234e-002" style="stop-color:#F7D1A1"/>
		<stop  offset="0.11" style="stop-color:#F2B86E"/>
		<stop  offset="0.15" style="stop-color:#EFA547"/>
		<stop  offset="0.1865" style="stop-color:#EC972B"/>
		<stop  offset="0.2184" style="stop-color:#EB8F1A"/>
		<stop  offset="0.2421" style="stop-color:#EA8C14"/>
		<stop  offset="0.5421" style="stop-color:#C42B03"/>
		<stop  offset="0.7211" style="stop-color:#A11900"/>
		<stop  offset="0.8579" style="stop-color:#821301"/>
		<stop  offset="1" style="stop-color:#000000"/>
		<a:midPointStop  offset="0" style="stop-color:#FFFFFF"/>
		<a:midPointStop  offset="0.3556" style="stop-color:#FFFFFF"/>
		<a:midPointStop  offset="0.2421" style="stop-color:#EA8C14"/>
		<a:midPointStop  offset="0.5" style="stop-color:#EA8C14"/>
		<a:midPointStop  offset="0.5421" style="stop-color:#C42B03"/>
		<a:midPointStop  offset="0.5161" style="stop-color:#C42B03"/>
		<a:midPointStop  offset="0.7211" style="stop-color:#A11900"/>
		<a:midPointStop  offset="0.5" style="stop-color:#A11900"/>
		<a:midPointStop  offset="0.8579" style="stop-color:#821301"/>
		<a:midPointStop  offset="0.5" style="stop-color:#821301"/>
		<a:midPointStop  offset="1" style="stop-color:#000000"/>
	</linearGradient>
	<polygon fill="url(#SVGID_11_)" points="34,4.2 31.5,4.2 31.5,1.6 29.3,1.6 29.3,4.2 26.6,4.2 26.6,6.4 29.3,6.4 29.3,9 31.5,9 
		31.5,6.4 34,6.4 	"/>
</g>
</svg>
