<?xml version="1.0" encoding="utf-8"?>
<!-- Generator: Adobe Illustrator 18.0.0, SVG Export Plug-In . SVG Version: 6.00 Build 0)  -->
<!DOCTYPE svg PUBLIC "-//W3C//DTD SVG 1.1//EN" "http://www.w3.org/Graphics/SVG/1.1/DTD/svg11.dtd" [
	<!ENTITY ns_flows "http://ns.adobe.com/Flows/1.0/">
	<!ENTITY ns_extend "http://ns.adobe.com/Extensibility/1.0/">
	<!ENTITY ns_ai "http://ns.adobe.com/AdobeIllustrator/10.0/">
	<!ENTITY ns_graphs "http://ns.adobe.com/Graphs/1.0/">
	<!ENTITY ns_vars "http://ns.adobe.com/Variables/1.0/">
	<!ENTITY ns_imrep "http://ns.adobe.com/ImageReplacement/1.0/">
	<!ENTITY ns_sfw "http://ns.adobe.com/SaveForWeb/1.0/">
	<!ENTITY ns_custom "http://ns.adobe.com/GenericCustomNamespace/1.0/">
	<!ENTITY ns_adobe_xpath "http://ns.adobe.com/XPath/1.0/">
]>
<svg version="1.1" id="Layer_1" xmlns:x="&ns_extend;" xmlns:i="&ns_ai;" xmlns:graph="&ns_graphs;"
	 xmlns="http://www.w3.org/2000/svg" xmlns:xlink="http://www.w3.org/1999/xlink" xmlns:a="http://ns.adobe.com/AdobeSVGViewerExtensions/3.0/"
	 x="0px" y="0px" viewBox="0 0 70 63" enable-background="new 0 0 70 63" xml:space="preserve">
<metadata>
	<sfw  xmlns="&ns_sfw;">
		<slices></slices>
		<sliceSourceBounds  width="70" height="63" x="988.8" y="-288.4" bottomLeftOrigin="true"></sliceSourceBounds>
	</sfw>
</metadata>
<g>
	<g>
		<defs>
			<filter id="Adobe_OpacityMaskFilter" filterUnits="userSpaceOnUse" x="0" y="53.8" width="70" height="9.2">
				<feColorMatrix  type="matrix" values="1 0 0 0 0  0 1 0 0 0  0 0 1 0 0  0 0 0 1 0"/>
			</filter>
		</defs>
		<mask maskUnits="userSpaceOnUse" x="0" y="53.8" width="70" height="9.2" id="SVGID_1_">
			<g filter="url(#Adobe_OpacityMaskFilter)">
				
					<radialGradient id="SVGID_2_" cx="968.7706" cy="82.4872" r="35.1726" gradientTransform="matrix(-1 0 0 0.1311 1004.3204 47.5221)" gradientUnits="userSpaceOnUse">
					<stop  offset="0" style="stop-color:#FFFFFF"/>
					<stop  offset="4.595643e-002" style="stop-color:#EBEBEB"/>
					<stop  offset="0.1989" style="stop-color:#AEAEAE"/>
					<stop  offset="0.3507" style="stop-color:#797979"/>
					<stop  offset="0.4976" style="stop-color:#4D4D4D"/>
					<stop  offset="0.6388" style="stop-color:#2C2C2C"/>
					<stop  offset="0.7728" style="stop-color:#141414"/>
					<stop  offset="0.8964" style="stop-color:#050505"/>
					<stop  offset="1" style="stop-color:#000000"/>
					<a:midPointStop  offset="0" style="stop-color:#FFFFFF"/>
					<a:midPointStop  offset="0.3297" style="stop-color:#FFFFFF"/>
					<a:midPointStop  offset="1" style="stop-color:#000000"/>
				</radialGradient>
				<path fill="url(#SVGID_2_)" d="M0.6,58.4c0,2.5,15.7,4.6,35,4.6c19.3,0,35-2.1,35-4.6c0-2.5-15.7-4.6-35-4.6
					C16.2,53.8,0.6,55.9,0.6,58.4z"/>
			</g>
		</mask>
		<ellipse opacity="0.33" mask="url(#SVGID_1_)" cx="35" cy="58.4" rx="35" ry="4.6"/>
		<linearGradient id="SVGID_3_" gradientUnits="userSpaceOnUse" x1="34.9766" y1="-46.9531" x2="34.9766" y2="146.0472">
			<stop  offset="1.098900e-002" style="stop-color:#FFFFFF"/>
			<stop  offset="0.1226" style="stop-color:#B7EDFF"/>
			<stop  offset="0.2582" style="stop-color:#63D8FE"/>
			<stop  offset="0.3957" style="stop-color:#49AFE0"/>
			<stop  offset="0.5565" style="stop-color:#2E85C2"/>
			<stop  offset="0.6829" style="stop-color:#1E6BB0"/>
			<stop  offset="0.7582" style="stop-color:#1861A9"/>
			<stop  offset="1" style="stop-color:#124A7F"/>
			<a:midPointStop  offset="1.098900e-002" style="stop-color:#FFFFFF"/>
			<a:midPointStop  offset="0.4889" style="stop-color:#FFFFFF"/>
			<a:midPointStop  offset="0.2582" style="stop-color:#63D8FE"/>
			<a:midPointStop  offset="0.4066" style="stop-color:#63D8FE"/>
			<a:midPointStop  offset="0.7582" style="stop-color:#1861A9"/>
			<a:midPointStop  offset="0.5" style="stop-color:#1861A9"/>
			<a:midPointStop  offset="1" style="stop-color:#124A7F"/>
		</linearGradient>
		<circle fill="url(#SVGID_3_)" cx="35" cy="29.3" r="29.3"/>
		<linearGradient id="SVGID_4_" gradientUnits="userSpaceOnUse" x1="34.9766" y1="-0.9531" x2="34.9766" y2="57.0467">
			<stop  offset="1.098900e-002" style="stop-color:#FFFFFF"/>
			<stop  offset="0.1226" style="stop-color:#B7EDFF"/>
			<stop  offset="0.2582" style="stop-color:#63D8FE"/>
			<stop  offset="0.3957" style="stop-color:#49AFE0"/>
			<stop  offset="0.5565" style="stop-color:#2E85C2"/>
			<stop  offset="0.6829" style="stop-color:#1E6BB0"/>
			<stop  offset="0.7582" style="stop-color:#1861A9"/>
			<stop  offset="1" style="stop-color:#124A7F"/>
			<a:midPointStop  offset="1.098900e-002" style="stop-color:#FFFFFF"/>
			<a:midPointStop  offset="0.4889" style="stop-color:#FFFFFF"/>
			<a:midPointStop  offset="0.2582" style="stop-color:#63D8FE"/>
			<a:midPointStop  offset="0.4066" style="stop-color:#63D8FE"/>
			<a:midPointStop  offset="0.7582" style="stop-color:#1861A9"/>
			<a:midPointStop  offset="0.5" style="stop-color:#1861A9"/>
			<a:midPointStop  offset="1" style="stop-color:#124A7F"/>
		</linearGradient>
		<path opacity="0.56" fill="url(#SVGID_4_)" d="M35,4.6c10.8,0,20.2,6.1,24.6,14.9C55.7,9.7,46.2,2.7,35,2.7S14.2,9.7,10.3,19.5
			C14.8,10.7,24.2,4.6,35,4.6z"/>
	</g>
	<path fill="#FFFFFF" d="M26.2,28.5l-1.6-1.2c2.4-2.7,4.7-4.6,6.7-5.7c2-1.1,3.7-1.7,5.1-1.7c0.8,0,1.4,0.2,1.8,0.5
		c0.4,0.3,0.6,0.8,0.6,1.4c0,0.7-0.8,3.7-2.4,9c-2.6,8.7-3.9,13.9-3.9,15.7c0,0.3,0.1,0.6,0.3,0.9c0.2,0.2,0.4,0.3,0.5,0.3
		c0.8,0,2.8-1.5,6-4.5l1.4,1.4c-3.3,3.2-5.8,5.2-7.3,6c-1.5,0.9-2.8,1.3-3.8,1.3c-0.9,0-1.5-0.3-2-0.8S27,49.7,27,48.8
		c0-3.1,1.8-10.5,5.5-22.4c0.2-0.6,0.3-1.1,0.3-1.5c0-0.5-0.2-0.7-0.7-0.7c-0.5,0-1,0.2-1.7,0.6C29.8,25.1,28.4,26.4,26.2,28.5z"/>
	<path fill="#FFFFFF" d="M39.8,8.6c1,0,1.8,0.3,2.5,0.9c0.7,0.6,1,1.4,1,2.3c0,1.3-0.5,2.4-1.5,3.4c-1,1-2.1,1.5-3.4,1.5
		c-1,0-1.8-0.3-2.5-0.9c-0.7-0.6-1-1.4-1-2.4c0-1.3,0.5-2.4,1.4-3.3C37.4,9,38.5,8.6,39.8,8.6z"/>
</g>
</svg>
