<?xml version="1.0" encoding="utf-8"?>
<!-- Generator: Adobe Illustrator 18.0.0, SVG Export Plug-In . SVG Version: 6.00 Build 0)  -->
<!DOCTYPE svg PUBLIC "-//W3C//DTD SVG 1.1//EN" "http://www.w3.org/Graphics/SVG/1.1/DTD/svg11.dtd" [
	<!ENTITY ns_flows "http://ns.adobe.com/Flows/1.0/">
	<!ENTITY ns_extend "http://ns.adobe.com/Extensibility/1.0/">
	<!ENTITY ns_ai "http://ns.adobe.com/AdobeIllustrator/10.0/">
	<!ENTITY ns_graphs "http://ns.adobe.com/Graphs/1.0/">
	<!ENTITY ns_vars "http://ns.adobe.com/Variables/1.0/">
	<!ENTITY ns_imrep "http://ns.adobe.com/ImageReplacement/1.0/">
	<!ENTITY ns_sfw "http://ns.adobe.com/SaveForWeb/1.0/">
	<!ENTITY ns_custom "http://ns.adobe.com/GenericCustomNamespace/1.0/">
	<!ENTITY ns_adobe_xpath "http://ns.adobe.com/XPath/1.0/">
]>
<svg version="1.1" id="Layer_1" xmlns:x="&ns_extend;" xmlns:i="&ns_ai;" xmlns:graph="&ns_graphs;"
	 xmlns="http://www.w3.org/2000/svg" xmlns:xlink="http://www.w3.org/1999/xlink" xmlns:a="http://ns.adobe.com/AdobeSVGViewerExtensions/3.0/"
	 x="0px" y="0px" viewBox="0 0 63.2 53" enable-background="new 0 0 63.2 53" xml:space="preserve">
<metadata>
	<sfw  xmlns="&ns_sfw;">
		<slices></slices>
		<sliceSourceBounds  width="63.2" height="53" x="992.9" y="-283.3" bottomLeftOrigin="true"></sliceSourceBounds>
	</sfw>
</metadata>
<g>
	<g>
		<defs>
			<filter id="Adobe_OpacityMaskFilter" filterUnits="userSpaceOnUse" x="4.8" y="46.7" width="52" height="6.3">
				<feColorMatrix  type="matrix" values="1 0 0 0 0  0 1 0 0 0  0 0 1 0 0  0 0 0 1 0"/>
			</filter>
		</defs>
		<mask maskUnits="userSpaceOnUse" x="4.8" y="46.7" width="52" height="6.3" id="SVGID_1_">
			<g filter="url(#Adobe_OpacityMaskFilter)">
				
					<radialGradient id="SVGID_2_" cx="-123.4099" cy="-7720.4072" r="35.1682" gradientTransform="matrix(0.7439 0 0 9.030000e-002 122.2099 746.9404)" gradientUnits="userSpaceOnUse">
					<stop  offset="0" style="stop-color:#FFFFFF"/>
					<stop  offset="4.595643e-002" style="stop-color:#EBEBEB"/>
					<stop  offset="0.1989" style="stop-color:#AEAEAE"/>
					<stop  offset="0.3507" style="stop-color:#797979"/>
					<stop  offset="0.4976" style="stop-color:#4D4D4D"/>
					<stop  offset="0.6388" style="stop-color:#2C2C2C"/>
					<stop  offset="0.7728" style="stop-color:#141414"/>
					<stop  offset="0.8964" style="stop-color:#050505"/>
					<stop  offset="1" style="stop-color:#000000"/>
					<a:midPointStop  offset="0" style="stop-color:#FFFFFF"/>
					<a:midPointStop  offset="0.3297" style="stop-color:#FFFFFF"/>
					<a:midPointStop  offset="1" style="stop-color:#000000"/>
				</radialGradient>
				<ellipse fill="url(#SVGID_2_)" cx="30.4" cy="49.8" rx="26" ry="3.2"/>
			</g>
		</mask>
		<ellipse opacity="0.2" mask="url(#SVGID_1_)" cx="30.8" cy="49.8" rx="26" ry="3.2"/>
		<g>
			<g>
				<linearGradient id="SVGID_3_" gradientUnits="userSpaceOnUse" x1="33.4325" y1="-11.1786" x2="27.7923" y2="96.4366">
					<stop  offset="1.098900e-002" style="stop-color:#FFFFFF"/>
					<stop  offset="0.1226" style="stop-color:#B7EDFF"/>
					<stop  offset="0.2582" style="stop-color:#63D8FE"/>
					<stop  offset="0.3957" style="stop-color:#49AFE0"/>
					<stop  offset="0.5565" style="stop-color:#2E85C2"/>
					<stop  offset="0.6829" style="stop-color:#1E6BB0"/>
					<stop  offset="0.7582" style="stop-color:#1861A9"/>
					<stop  offset="1" style="stop-color:#124A7F"/>
					<a:midPointStop  offset="1.098900e-002" style="stop-color:#FFFFFF"/>
					<a:midPointStop  offset="0.4889" style="stop-color:#FFFFFF"/>
					<a:midPointStop  offset="0.2582" style="stop-color:#63D8FE"/>
					<a:midPointStop  offset="0.4066" style="stop-color:#63D8FE"/>
					<a:midPointStop  offset="0.7582" style="stop-color:#1861A9"/>
					<a:midPointStop  offset="0.5" style="stop-color:#1861A9"/>
					<a:midPointStop  offset="1" style="stop-color:#124A7F"/>
				</linearGradient>
				<path fill="url(#SVGID_3_)" d="M31.2,28.3c-3.8,0-7,2.1-7,5c0,2.9,3.3,5.4,7.1,5.4c3.8,0,6.7-2.5,6.7-5.4
					C38,30.4,35,28.3,31.2,28.3z M31.2,36.8c-2.7,0-4.9-1.6-4.9-3.1c0-1.5,2.2-3.3,4.9-3.3c2.7,0,4.9,1.7,4.9,3.3
					C36.1,35.2,33.9,36.8,31.2,36.8z"/>
				<linearGradient id="SVGID_4_" gradientUnits="userSpaceOnUse" x1="32.8945" y1="-11.2087" x2="27.2537" y2="96.4175">
					<stop  offset="1.098900e-002" style="stop-color:#FFFFFF"/>
					<stop  offset="0.1226" style="stop-color:#B7EDFF"/>
					<stop  offset="0.2582" style="stop-color:#63D8FE"/>
					<stop  offset="0.3957" style="stop-color:#49AFE0"/>
					<stop  offset="0.5565" style="stop-color:#2E85C2"/>
					<stop  offset="0.6829" style="stop-color:#1E6BB0"/>
					<stop  offset="0.7582" style="stop-color:#1861A9"/>
					<stop  offset="1" style="stop-color:#124A7F"/>
					<a:midPointStop  offset="1.098900e-002" style="stop-color:#FFFFFF"/>
					<a:midPointStop  offset="0.4889" style="stop-color:#FFFFFF"/>
					<a:midPointStop  offset="0.2582" style="stop-color:#63D8FE"/>
					<a:midPointStop  offset="0.4066" style="stop-color:#63D8FE"/>
					<a:midPointStop  offset="0.7582" style="stop-color:#1861A9"/>
					<a:midPointStop  offset="0.5" style="stop-color:#1861A9"/>
					<a:midPointStop  offset="1" style="stop-color:#124A7F"/>
				</linearGradient>
				<path fill="url(#SVGID_4_)" d="M37.1,19.5c-1,0-1.5-0.7-2.5,0.4c-1,1.1-1.4,2.7-1.4,2.7c2.2-0.6,5-1.8,5,0.4
					c0,2.9-4.9,5.3-7.3,5.3c-2.4,0-7-2.4-7-5.3c0-2,2.7-0.9,4.9-0.3c0,0-0.3-1.7-1.3-2.8c-1.4-1.3-1.6-0.4-2.6-0.4
					c-2.6,0-3.2,1.7-3.2,3.5c0,4.4,5.9,7.5,9.2,7.5c3.3,0,9.4-3.1,9.4-7.5C40.4,20.9,39.2,19.5,37.1,19.5z"/>
				<linearGradient id="SVGID_5_" gradientUnits="userSpaceOnUse" x1="33.8296" y1="-11.1542" x2="28.1896" y2="96.4551">
					<stop  offset="1.098900e-002" style="stop-color:#FFFFFF"/>
					<stop  offset="0.1226" style="stop-color:#B7EDFF"/>
					<stop  offset="0.2582" style="stop-color:#63D8FE"/>
					<stop  offset="0.3957" style="stop-color:#49AFE0"/>
					<stop  offset="0.5565" style="stop-color:#2E85C2"/>
					<stop  offset="0.6829" style="stop-color:#1E6BB0"/>
					<stop  offset="0.7582" style="stop-color:#1861A9"/>
					<stop  offset="1" style="stop-color:#124A7F"/>
					<a:midPointStop  offset="1.098900e-002" style="stop-color:#FFFFFF"/>
					<a:midPointStop  offset="0.4889" style="stop-color:#FFFFFF"/>
					<a:midPointStop  offset="0.2582" style="stop-color:#63D8FE"/>
					<a:midPointStop  offset="0.4066" style="stop-color:#63D8FE"/>
					<a:midPointStop  offset="0.7582" style="stop-color:#1861A9"/>
					<a:midPointStop  offset="0.5" style="stop-color:#1861A9"/>
					<a:midPointStop  offset="1" style="stop-color:#124A7F"/>
				</linearGradient>
				<path fill="url(#SVGID_5_)" d="M31.6,36c0,0-0.9,0-0.9,0c-2.6,0-5.9,2.3-5.9,4.8c0,0.9,0.3,1.8,1.3,3.5c0.5,0.8,2.6,3.2,3.3,4.8
					c0.5-0.4-3-6.4-2.4-8.3c0.3-1,2-2.7,3.8-2.7c0.1,0,0.7,0,0.8,0c1.8,0,3.5,1.7,3.8,2.7c0.6,1.9-2.9,7.9-2.4,8.3
					c0.7-1.7,2.8-4,3.3-4.8c1-1.7,1.3-2.6,1.3-3.5C37.5,38.3,34.2,36,31.6,36z"/>
			</g>
			<linearGradient id="SVGID_6_" gradientUnits="userSpaceOnUse" x1="31.584" y1="18.1027" x2="31.584" y2="24.4193">
				<stop  offset="0" style="stop-color:#F0F0F0"/>
				<stop  offset="0.2308" style="stop-color:#E1E1E1"/>
				<stop  offset="0.764" style="stop-color:#DEDDD9"/>
				<stop  offset="1" style="stop-color:#DCDAD4"/>
				<a:midPointStop  offset="0" style="stop-color:#F0F0F0"/>
				<a:midPointStop  offset="0.5" style="stop-color:#F0F0F0"/>
				<a:midPointStop  offset="0.2308" style="stop-color:#E1E1E1"/>
				<a:midPointStop  offset="0.6148" style="stop-color:#E1E1E1"/>
				<a:midPointStop  offset="1" style="stop-color:#DCDAD4"/>
			</linearGradient>
			<path fill="url(#SVGID_6_)" d="M54.5,12.8c5-0.5,8.7-2.8,8.7-2.8S44,8.4,37.3,4c0.9,3.7-0.6,4.3-2.2,4.8
				c-2.5,0.8-1.8,0.6-2.9-0.1c0-0.8,0-1.5,0-2c1.3-0.5,2.1-1.6,2.1-2.9c0-1.7-1.5-3.2-3.3-3.2c-1.9,0-3.3,1.4-3.3,3.2
				c0,1.3,0.8,2.4,2.1,2.9c0,0.6,0,1.5,0,2.5c-1.3,0.7-0.6,0.2-2.6-0.4c-1.6-0.5-2.9-1.1-2-4.8C18.5,8.5,0,10,0,10s3.3,2.3,8.4,2.8
				c-1.3,0.9-4.5,0.8-4.5,0.8s2.2,1.6,7.6,1.6c0,0.4-3.6,0.8-3.6,0.8s2.3,1.2,6.9,0.8c0.2,0.5-2.6,1.3-2.6,1.3s2.3,0.5,4.7,0.3
				c0.1,0.4-1.2,1.2-1.2,1.2s2.3,0.3,4.1-0.9c0.2,0.4-1.6,1.8-1.6,1.8s1.7-0.1,3.9-1.1c0,0.4-0.2,0.8-0.5,1.4
				c2.9-1.1,2.6-1.9,6.1-1.9c1,0,1.8,0.2,2.3,0.5c0.1,15.5,0.3,32.5,1.2,32.5c0.8,0,1.2-16.9,1.3-32.3c0.6-0.3,1.1-0.9,3-0.9
				c3.4,0,3.3,1.1,6.2,2.2c-0.4-0.6-0.5-1-0.5-1.4c2.1,1,3.9,1.1,3.9,1.1s-1.8-1.4-1.6-1.8c1.8,1.2,4.1,0.9,4.1,0.9
				s-1.3-0.8-1.2-1.2c2.4,0.2,4.7-0.3,4.7-0.3s-2.8-0.8-2.6-1.3C52.7,17.2,55,16,55,16s-3.6-0.4-3.6-0.8c5.4,0,7.6-1.6,7.6-1.6
				S55.8,13.7,54.5,12.8z"/>
			<path opacity="0.4" fill="#FFFFFF" d="M41.7,6.6c0,0,2.3,1.1,6.8,2C53,9.5,58.7,10,58.7,10s-5.8,0.3-10.4-0.2
				c-5.9-0.7-7-1.6-7-1.6L41.7,6.6z"/>
			<path opacity="0.4" fill="#FFFFFF" d="M39.4,10.6c0,0,1.5,0.8,4.6,1.4c3.1,0.6,6.9,0.9,6.9,0.9s-4,0.2-7.1-0.2
				c-4-0.5-4.8-1.1-4.8-1.1L39.4,10.6z"/>
			<path opacity="0.4" fill="#FFFFFF" d="M24,10.6c0,0-1.5,0.8-4.6,1.4s-6.9,0.9-6.9,0.9s4,0.2,7.1-0.2c4-0.5,4.8-1.1,4.8-1.1
				L24,10.6z"/>
			<path opacity="0.4" fill="#FFFFFF" d="M21.7,6.6c0,0-2.3,1.1-6.8,2C10.4,9.5,4.7,10,4.7,10s5.8,0.3,10.4-0.2c5.9-0.7,7-1.6,7-1.6
				L21.7,6.6z"/>
		</g>
	</g>
	<linearGradient id="SVGID_7_" gradientUnits="userSpaceOnUse" x1="30.918" y1="-40" x2="30.918" y2="384.9998">
		<stop  offset="1.098900e-002" style="stop-color:#FFFFFF"/>
		<stop  offset="4.649890e-002" style="stop-color:#E8D6F4"/>
		<stop  offset="8.475413e-002" style="stop-color:#D4B2EB"/>
		<stop  offset="0.1251" style="stop-color:#C394E3"/>
		<stop  offset="0.1676" style="stop-color:#B67DDE"/>
		<stop  offset="0.2131" style="stop-color:#AD6DD9"/>
		<stop  offset="0.2637" style="stop-color:#A863D7"/>
		<stop  offset="0.3297" style="stop-color:#A660D6"/>
		<stop  offset="0.8571" style="stop-color:#754293"/>
		<stop  offset="0.8945" style="stop-color:#723F8F"/>
		<stop  offset="1" style="stop-color:#6D3B88"/>
		<a:midPointStop  offset="1.098900e-002" style="stop-color:#FFFFFF"/>
		<a:midPointStop  offset="0.2414" style="stop-color:#FFFFFF"/>
		<a:midPointStop  offset="0.3297" style="stop-color:#A660D6"/>
		<a:midPointStop  offset="0.4936" style="stop-color:#A660D6"/>
		<a:midPointStop  offset="0.8571" style="stop-color:#754293"/>
		<a:midPointStop  offset="0.375" style="stop-color:#754293"/>
		<a:midPointStop  offset="1" style="stop-color:#6D3B88"/>
	</linearGradient>
	<path fill="url(#SVGID_7_)" d="M34.9,4c0-2.2-1.8-4-4-4c-2.2,0-4,1.8-4,4c0,1.7,1.1,3.2,2.6,3.7V50c0,0.6,0.6,1,1.4,1
		c0.8,0,1.4-0.5,1.4-1V7.7C33.8,7.2,34.9,5.7,34.9,4z"/>
</g>
</svg>
