<?xml version="1.0" encoding="utf-8"?>
<!-- Generator: Adobe Illustrator 18.0.0, SVG Export Plug-In . SVG Version: 6.00 Build 0)  -->
<!DOCTYPE svg PUBLIC "-//W3C//DTD SVG 1.1//EN" "http://www.w3.org/Graphics/SVG/1.1/DTD/svg11.dtd" [
	<!ENTITY ns_flows "http://ns.adobe.com/Flows/1.0/">
	<!ENTITY ns_extend "http://ns.adobe.com/Extensibility/1.0/">
	<!ENTITY ns_ai "http://ns.adobe.com/AdobeIllustrator/10.0/">
	<!ENTITY ns_graphs "http://ns.adobe.com/Graphs/1.0/">
	<!ENTITY ns_vars "http://ns.adobe.com/Variables/1.0/">
	<!ENTITY ns_imrep "http://ns.adobe.com/ImageReplacement/1.0/">
	<!ENTITY ns_sfw "http://ns.adobe.com/SaveForWeb/1.0/">
	<!ENTITY ns_custom "http://ns.adobe.com/GenericCustomNamespace/1.0/">
	<!ENTITY ns_adobe_xpath "http://ns.adobe.com/XPath/1.0/">
]>
<svg version="1.1" id="Layer_1" xmlns:x="&ns_extend;" xmlns:i="&ns_ai;" xmlns:graph="&ns_graphs;"
	 xmlns="http://www.w3.org/2000/svg" xmlns:xlink="http://www.w3.org/1999/xlink" xmlns:a="http://ns.adobe.com/AdobeSVGViewerExtensions/3.0/"
	 x="0px" y="0px" viewBox="0 0 68.3 62.1" enable-background="new 0 0 68.3 62.1" xml:space="preserve">
<metadata>
	<sfw  xmlns="&ns_sfw;">
		<slices></slices>
		<sliceSourceBounds  width="68.3" height="62.1" x="989.7" y="-287.4" bottomLeftOrigin="true"></sliceSourceBounds>
	</sfw>
</metadata>
<g>
	<defs>
		<filter id="Adobe_OpacityMaskFilter" filterUnits="userSpaceOnUse" x="0" y="53.2" width="68.3" height="8.8">
			<feColorMatrix  type="matrix" values="1 0 0 0 0  0 1 0 0 0  0 0 1 0 0  0 0 0 1 0"/>
		</filter>
	</defs>
	<mask maskUnits="userSpaceOnUse" x="0" y="53.2" width="68.3" height="8.8" id="SVGID_1_">
		<g filter="url(#Adobe_OpacityMaskFilter)">
			
				<radialGradient id="SVGID_2_" cx="30.3592" cy="-527.5298" r="35.1727" gradientTransform="matrix(0.9769 0 0 0.1262 3.9515 124.1442)" gradientUnits="userSpaceOnUse">
				<stop  offset="0" style="stop-color:#FFFFFF"/>
				<stop  offset="4.595643e-002" style="stop-color:#EBEBEB"/>
				<stop  offset="0.1989" style="stop-color:#AEAEAE"/>
				<stop  offset="0.3507" style="stop-color:#797979"/>
				<stop  offset="0.4976" style="stop-color:#4D4D4D"/>
				<stop  offset="0.6388" style="stop-color:#2C2C2C"/>
				<stop  offset="0.7728" style="stop-color:#141414"/>
				<stop  offset="0.8964" style="stop-color:#050505"/>
				<stop  offset="1" style="stop-color:#000000"/>
				<a:midPointStop  offset="0" style="stop-color:#FFFFFF"/>
				<a:midPointStop  offset="0.3297" style="stop-color:#FFFFFF"/>
				<a:midPointStop  offset="1" style="stop-color:#000000"/>
			</radialGradient>
			<ellipse fill="url(#SVGID_2_)" cx="33.6" cy="57.6" rx="34.2" ry="4.4"/>
		</g>
	</mask>
	<ellipse opacity="0.36" mask="url(#SVGID_1_)" cx="34.2" cy="57.6" rx="34.2" ry="4.4"/>
	<g>
		<linearGradient id="SVGID_3_" gradientUnits="userSpaceOnUse" x1="65.5674" y1="19.3357" x2="36.0658" y2="71.8065">
			<stop  offset="0" style="stop-color:#F0F0F0"/>
			<stop  offset="0.2308" style="stop-color:#E1E1E1"/>
			<stop  offset="0.764" style="stop-color:#DEDDD9"/>
			<stop  offset="1" style="stop-color:#DCDAD4"/>
			<a:midPointStop  offset="0" style="stop-color:#F0F0F0"/>
			<a:midPointStop  offset="0.5" style="stop-color:#F0F0F0"/>
			<a:midPointStop  offset="0.2308" style="stop-color:#E1E1E1"/>
			<a:midPointStop  offset="0.6148" style="stop-color:#E1E1E1"/>
			<a:midPointStop  offset="1" style="stop-color:#DCDAD4"/>
		</linearGradient>
		<path fill="url(#SVGID_3_)" d="M63.7,37l-4.8-0.2l-9.1-4.4c-0.6-0.3-1.3,0-1.5,0.5c-0.3,0.6,0,1.3,0.5,1.5l8.1,3.9
			c0.1,0.4,0.6,0.3,0.9,0.3l6.1,0.2c0.4,0,0.4-0.2,0.4-0.8C64.3,37.5,64,37,63.7,37z"/>
		<linearGradient id="SVGID_4_" gradientUnits="userSpaceOnUse" x1="49.6883" y1="18.1097" x2="50.5312" y2="56.8809">
			<stop  offset="0" style="stop-color:#F0F0F0"/>
			<stop  offset="0.2308" style="stop-color:#E1E1E1"/>
			<stop  offset="0.764" style="stop-color:#DEDDD9"/>
			<stop  offset="1" style="stop-color:#DCDAD4"/>
			<a:midPointStop  offset="0" style="stop-color:#F0F0F0"/>
			<a:midPointStop  offset="0.5" style="stop-color:#F0F0F0"/>
			<a:midPointStop  offset="0.2308" style="stop-color:#E1E1E1"/>
			<a:midPointStop  offset="0.6148" style="stop-color:#E1E1E1"/>
			<a:midPointStop  offset="1" style="stop-color:#DCDAD4"/>
		</linearGradient>
		<path fill="url(#SVGID_4_)" d="M51,47c0,0.5-0.4,0.8-0.8,0.8l0,0c-0.5,0-0.8-0.4-0.8-0.8V34.3c0-0.5,0.4-0.8,0.8-0.8l0,0
			c0.5,0,0.8,0.4,0.8,0.8V47z"/>
		<linearGradient id="SVGID_5_" gradientUnits="userSpaceOnUse" x1="34.5859" y1="-1.2207" x2="34.5859" y2="136.7794">
			<stop  offset="0" style="stop-color:#DEDEDE"/>
			<stop  offset="0.489" style="stop-color:#C2C2C2"/>
			<stop  offset="0.8873" style="stop-color:#CAC8C6"/>
			<stop  offset="1" style="stop-color:#CDCAC7"/>
			<a:midPointStop  offset="0" style="stop-color:#DEDEDE"/>
			<a:midPointStop  offset="0.5" style="stop-color:#DEDEDE"/>
			<a:midPointStop  offset="0.489" style="stop-color:#C2C2C2"/>
			<a:midPointStop  offset="0.6148" style="stop-color:#C2C2C2"/>
			<a:midPointStop  offset="1" style="stop-color:#CDCAC7"/>
		</linearGradient>
		<path fill="url(#SVGID_5_)" d="M46.8,18.1H27c-0.5,0-1,0.1-1.4,0.2V7c0-0.2,0-0.5-0.1-0.7c0.1-0.2,0.1-0.4,0.1-0.6
			c0-1-0.8-1.9-1.9-1.9h-6.3c-1,0-1.9,0.8-1.9,1.9s0.8,1.9,1.9,1.9H20v22.2c0,3.8,3.1,6.9,6.9,6.9h19.9c3.8,0,6.9-3.1,6.9-6.9V25
			C53.8,21.2,50.7,18.1,46.8,18.1z M43.4,30.8H32.9c-2.7,0-4.8-2.2-4.8-4.8c0-2.7,2.2-4.8,4.8-4.8h10.5c2.7,0,4.8,2.2,4.8,4.8
			C48.3,28.6,46.1,30.8,43.4,30.8z"/>
		<g>
			<linearGradient id="SVGID_6_" gradientUnits="userSpaceOnUse" x1="23.418" y1="-19.2207" x2="23.418" y2="186.7791">
				<stop  offset="1.098900e-002" style="stop-color:#FFFFFF"/>
				<stop  offset="0.1226" style="stop-color:#B7EDFF"/>
				<stop  offset="0.2582" style="stop-color:#63D8FE"/>
				<stop  offset="0.3957" style="stop-color:#49AFE0"/>
				<stop  offset="0.5565" style="stop-color:#2E85C2"/>
				<stop  offset="0.6829" style="stop-color:#1E6BB0"/>
				<stop  offset="0.7582" style="stop-color:#1861A9"/>
				<stop  offset="1" style="stop-color:#124A7F"/>
				<a:midPointStop  offset="1.098900e-002" style="stop-color:#FFFFFF"/>
				<a:midPointStop  offset="0.4889" style="stop-color:#FFFFFF"/>
				<a:midPointStop  offset="0.2582" style="stop-color:#63D8FE"/>
				<a:midPointStop  offset="0.4066" style="stop-color:#63D8FE"/>
				<a:midPointStop  offset="0.7582" style="stop-color:#1861A9"/>
				<a:midPointStop  offset="0.5" style="stop-color:#1861A9"/>
				<a:midPointStop  offset="1" style="stop-color:#124A7F"/>
			</linearGradient>
			<path fill="url(#SVGID_6_)" d="M23.4,25.3c-9.3,0-16.9,7.5-16.9,16.9c0,9.3,7.5,16.9,16.9,16.9c9.3,0,16.9-7.5,16.9-16.9
				C40.3,32.8,32.7,25.3,23.4,25.3z M23.4,55.6c-7.4,0-13.5-6-13.5-13.5c0-7.4,6-13.5,13.5-13.5c7.4,0,13.5,6,13.5,13.5
				C36.9,49.6,30.9,55.6,23.4,55.6z"/>
			<linearGradient id="SVGID_7_" gradientUnits="userSpaceOnUse" x1="25.8841" y1="3.02" x2="18.8833" y2="114.0323">
				<stop  offset="0" style="stop-color:#FFFFFF"/>
				<stop  offset="1" style="stop-color:#070808"/>
				<a:midPointStop  offset="0" style="stop-color:#FFFFFF"/>
				<a:midPointStop  offset="0.5" style="stop-color:#FFFFFF"/>
				<a:midPointStop  offset="1" style="stop-color:#070808"/>
			</linearGradient>
			<path fill="url(#SVGID_7_)" d="M23.4,37.1c-2.8,0-5.1,2.3-5.1,5.1c0,2.8,2.3,5.1,5.1,5.1c2.8,0,5.1-2.3,5.1-5.1
				C28.5,39.4,26.2,37.1,23.4,37.1z"/>
			<linearGradient id="SVGID_8_" gradientUnits="userSpaceOnUse" x1="32.6379" y1="-23.6934" x2="24.6384" y2="154.2945">
				<stop  offset="1.098900e-002" style="stop-color:#FFFFFF"/>
				<stop  offset="0.1226" style="stop-color:#B7EDFF"/>
				<stop  offset="0.2582" style="stop-color:#63D8FE"/>
				<stop  offset="0.3957" style="stop-color:#49AFE0"/>
				<stop  offset="0.5565" style="stop-color:#2E85C2"/>
				<stop  offset="0.6829" style="stop-color:#1E6BB0"/>
				<stop  offset="0.7582" style="stop-color:#1861A9"/>
				<stop  offset="1" style="stop-color:#124A7F"/>
				<a:midPointStop  offset="1.098900e-002" style="stop-color:#FFFFFF"/>
				<a:midPointStop  offset="0.4889" style="stop-color:#FFFFFF"/>
				<a:midPointStop  offset="0.2582" style="stop-color:#63D8FE"/>
				<a:midPointStop  offset="0.4066" style="stop-color:#63D8FE"/>
				<a:midPointStop  offset="0.7582" style="stop-color:#1861A9"/>
				<a:midPointStop  offset="0.5" style="stop-color:#1861A9"/>
				<a:midPointStop  offset="1" style="stop-color:#124A7F"/>
			</linearGradient>
			<path fill="url(#SVGID_8_)" d="M28.8,38.6c-0.5,0.5-1.3,0.5-1.8,0l0,0c-0.5-0.5-0.5-1.3,0-1.8l4.2-4.2c0.5-0.5,1.3-0.5,1.8,0l0,0
				c0.5,0.5,0.5,1.3,0,1.8L28.8,38.6z"/>
			<linearGradient id="SVGID_9_" gradientUnits="userSpaceOnUse" x1="20.141" y1="-24.251" x2="12.1417" y2="153.73">
				<stop  offset="1.098900e-002" style="stop-color:#FFFFFF"/>
				<stop  offset="0.1226" style="stop-color:#B7EDFF"/>
				<stop  offset="0.2582" style="stop-color:#63D8FE"/>
				<stop  offset="0.3957" style="stop-color:#49AFE0"/>
				<stop  offset="0.5565" style="stop-color:#2E85C2"/>
				<stop  offset="0.6829" style="stop-color:#1E6BB0"/>
				<stop  offset="0.7582" style="stop-color:#1861A9"/>
				<stop  offset="1" style="stop-color:#124A7F"/>
				<a:midPointStop  offset="1.098900e-002" style="stop-color:#FFFFFF"/>
				<a:midPointStop  offset="0.4889" style="stop-color:#FFFFFF"/>
				<a:midPointStop  offset="0.2582" style="stop-color:#63D8FE"/>
				<a:midPointStop  offset="0.4066" style="stop-color:#63D8FE"/>
				<a:midPointStop  offset="0.7582" style="stop-color:#1861A9"/>
				<a:midPointStop  offset="0.5" style="stop-color:#1861A9"/>
				<a:midPointStop  offset="1" style="stop-color:#124A7F"/>
			</linearGradient>
			<path fill="url(#SVGID_9_)" d="M15.7,51.7c-0.5,0.5-1.3,0.5-1.8,0l0,0c-0.5-0.5-0.5-1.3,0-1.8l4.2-4.2c0.5-0.5,1.3-0.5,1.8,0l0,0
				c0.5,0.5,0.5,1.3,0,1.8L15.7,51.7z"/>
			<linearGradient id="SVGID_10_" gradientUnits="userSpaceOnUse" x1="33.2259" y1="-23.6638" x2="25.2265" y2="154.3204">
				<stop  offset="1.098900e-002" style="stop-color:#FFFFFF"/>
				<stop  offset="0.1226" style="stop-color:#B7EDFF"/>
				<stop  offset="0.2582" style="stop-color:#63D8FE"/>
				<stop  offset="0.3957" style="stop-color:#49AFE0"/>
				<stop  offset="0.5565" style="stop-color:#2E85C2"/>
				<stop  offset="0.6829" style="stop-color:#1E6BB0"/>
				<stop  offset="0.7582" style="stop-color:#1861A9"/>
				<stop  offset="1" style="stop-color:#124A7F"/>
				<a:midPointStop  offset="1.098900e-002" style="stop-color:#FFFFFF"/>
				<a:midPointStop  offset="0.4889" style="stop-color:#FFFFFF"/>
				<a:midPointStop  offset="0.2582" style="stop-color:#63D8FE"/>
				<a:midPointStop  offset="0.4066" style="stop-color:#63D8FE"/>
				<a:midPointStop  offset="0.7582" style="stop-color:#1861A9"/>
				<a:midPointStop  offset="0.5" style="stop-color:#1861A9"/>
				<a:midPointStop  offset="1" style="stop-color:#124A7F"/>
			</linearGradient>
			<path fill="url(#SVGID_10_)" d="M27,47.5c-0.5-0.5-0.5-1.3,0-1.8l0,0c0.5-0.5,1.3-0.5,1.8,0l4.2,4.2c0.5,0.5,0.5,1.3,0,1.8l0,0
				c-0.5,0.5-1.3,0.5-1.8,0L27,47.5z"/>
			<linearGradient id="SVGID_11_" gradientUnits="userSpaceOnUse" x1="19.5528" y1="-24.275" x2="11.554" y2="153.6945">
				<stop  offset="1.098900e-002" style="stop-color:#FFFFFF"/>
				<stop  offset="0.1226" style="stop-color:#B7EDFF"/>
				<stop  offset="0.2582" style="stop-color:#63D8FE"/>
				<stop  offset="0.3957" style="stop-color:#49AFE0"/>
				<stop  offset="0.5565" style="stop-color:#2E85C2"/>
				<stop  offset="0.6829" style="stop-color:#1E6BB0"/>
				<stop  offset="0.7582" style="stop-color:#1861A9"/>
				<stop  offset="1" style="stop-color:#124A7F"/>
				<a:midPointStop  offset="1.098900e-002" style="stop-color:#FFFFFF"/>
				<a:midPointStop  offset="0.4889" style="stop-color:#FFFFFF"/>
				<a:midPointStop  offset="0.2582" style="stop-color:#63D8FE"/>
				<a:midPointStop  offset="0.4066" style="stop-color:#63D8FE"/>
				<a:midPointStop  offset="0.7582" style="stop-color:#1861A9"/>
				<a:midPointStop  offset="0.5" style="stop-color:#1861A9"/>
				<a:midPointStop  offset="1" style="stop-color:#124A7F"/>
			</linearGradient>
			<path fill="url(#SVGID_11_)" d="M13.9,34.4c-0.5-0.5-0.5-1.3,0-1.8l0,0c0.5-0.5,1.3-0.5,1.8,0l4.2,4.2c0.5,0.5,0.5,1.3,0,1.8l0,0
				c-0.5,0.5-1.3,0.5-1.8,0L13.9,34.4z"/>
		</g>
		<g>
			<linearGradient id="SVGID_12_" gradientUnits="userSpaceOnUse" x1="50.706" y1="19.5598" x2="50.706" y2="89.8662">
				<stop  offset="1.098900e-002" style="stop-color:#FFFFFF"/>
				<stop  offset="0.1226" style="stop-color:#B7EDFF"/>
				<stop  offset="0.2582" style="stop-color:#63D8FE"/>
				<stop  offset="0.3957" style="stop-color:#49AFE0"/>
				<stop  offset="0.5565" style="stop-color:#2E85C2"/>
				<stop  offset="0.6829" style="stop-color:#1E6BB0"/>
				<stop  offset="0.7582" style="stop-color:#1861A9"/>
				<stop  offset="1" style="stop-color:#124A7F"/>
				<a:midPointStop  offset="1.098900e-002" style="stop-color:#FFFFFF"/>
				<a:midPointStop  offset="0.4889" style="stop-color:#FFFFFF"/>
				<a:midPointStop  offset="0.2582" style="stop-color:#63D8FE"/>
				<a:midPointStop  offset="0.4066" style="stop-color:#63D8FE"/>
				<a:midPointStop  offset="0.7582" style="stop-color:#1861A9"/>
				<a:midPointStop  offset="0.5" style="stop-color:#1861A9"/>
				<a:midPointStop  offset="1" style="stop-color:#124A7F"/>
			</linearGradient>
			<path fill="url(#SVGID_12_)" d="M50.7,39.4c-5.4,0-9.8,4.4-9.8,9.8s4.4,9.8,9.8,9.8s9.8-4.4,9.8-9.8S56.1,39.4,50.7,39.4z
				 M50.7,57c-4.3,0-7.8-3.5-7.8-7.8s3.5-7.8,7.8-7.8s7.8,3.5,7.8,7.8S55,57,50.7,57z"/>
			<linearGradient id="SVGID_13_" gradientUnits="userSpaceOnUse" x1="50.7041" y1="19.7735" x2="50.7041" y2="105.7891">
				<stop  offset="0" style="stop-color:#FFFFFF"/>
				<stop  offset="1" style="stop-color:#070808"/>
				<a:midPointStop  offset="0" style="stop-color:#FFFFFF"/>
				<a:midPointStop  offset="0.5" style="stop-color:#FFFFFF"/>
				<a:midPointStop  offset="1" style="stop-color:#070808"/>
			</linearGradient>
			<circle fill="url(#SVGID_13_)" cx="50.7" cy="49.2" r="2.9"/>
			<linearGradient id="SVGID_14_" gradientUnits="userSpaceOnUse" x1="54.5156" y1="19.5684" x2="54.5156" y2="89.8552">
				<stop  offset="1.098900e-002" style="stop-color:#FFFFFF"/>
				<stop  offset="0.1226" style="stop-color:#B7EDFF"/>
				<stop  offset="0.2582" style="stop-color:#63D8FE"/>
				<stop  offset="0.3957" style="stop-color:#49AFE0"/>
				<stop  offset="0.5565" style="stop-color:#2E85C2"/>
				<stop  offset="0.6829" style="stop-color:#1E6BB0"/>
				<stop  offset="0.7582" style="stop-color:#1861A9"/>
				<stop  offset="1" style="stop-color:#124A7F"/>
				<a:midPointStop  offset="1.098900e-002" style="stop-color:#FFFFFF"/>
				<a:midPointStop  offset="0.4889" style="stop-color:#FFFFFF"/>
				<a:midPointStop  offset="0.2582" style="stop-color:#63D8FE"/>
				<a:midPointStop  offset="0.4066" style="stop-color:#63D8FE"/>
				<a:midPointStop  offset="0.7582" style="stop-color:#1861A9"/>
				<a:midPointStop  offset="0.5" style="stop-color:#1861A9"/>
				<a:midPointStop  offset="1" style="stop-color:#124A7F"/>
			</linearGradient>
			<path fill="url(#SVGID_14_)" d="M53.8,47.1c-0.3,0.3-0.8,0.3-1,0l0,0c-0.3-0.3-0.3-0.8,0-1l2.4-2.4c0.3-0.3,0.8-0.3,1,0l0,0
				c0.3,0.3,0.3,0.8,0,1L53.8,47.1z"/>
			<linearGradient id="SVGID_15_" gradientUnits="userSpaceOnUse" x1="46.8955" y1="19.5517" x2="46.8955" y2="89.8745">
				<stop  offset="1.098900e-002" style="stop-color:#FFFFFF"/>
				<stop  offset="0.1226" style="stop-color:#B7EDFF"/>
				<stop  offset="0.2582" style="stop-color:#63D8FE"/>
				<stop  offset="0.3957" style="stop-color:#49AFE0"/>
				<stop  offset="0.5565" style="stop-color:#2E85C2"/>
				<stop  offset="0.6829" style="stop-color:#1E6BB0"/>
				<stop  offset="0.7582" style="stop-color:#1861A9"/>
				<stop  offset="1" style="stop-color:#124A7F"/>
				<a:midPointStop  offset="1.098900e-002" style="stop-color:#FFFFFF"/>
				<a:midPointStop  offset="0.4889" style="stop-color:#FFFFFF"/>
				<a:midPointStop  offset="0.2582" style="stop-color:#63D8FE"/>
				<a:midPointStop  offset="0.4066" style="stop-color:#63D8FE"/>
				<a:midPointStop  offset="0.7582" style="stop-color:#1861A9"/>
				<a:midPointStop  offset="0.5" style="stop-color:#1861A9"/>
				<a:midPointStop  offset="1" style="stop-color:#124A7F"/>
			</linearGradient>
			<path fill="url(#SVGID_15_)" d="M46.2,54.7c-0.3,0.3-0.8,0.3-1,0l0,0c-0.3-0.3-0.3-0.8,0-1l2.4-2.4c0.3-0.3,0.8-0.3,1,0l0,0
				c0.3,0.3,0.3,0.8,0,1L46.2,54.7z"/>
			<linearGradient id="SVGID_16_" gradientUnits="userSpaceOnUse" x1="54.5156" y1="19.5517" x2="54.5156" y2="89.8745">
				<stop  offset="1.098900e-002" style="stop-color:#FFFFFF"/>
				<stop  offset="0.1226" style="stop-color:#B7EDFF"/>
				<stop  offset="0.2582" style="stop-color:#63D8FE"/>
				<stop  offset="0.3957" style="stop-color:#49AFE0"/>
				<stop  offset="0.5565" style="stop-color:#2E85C2"/>
				<stop  offset="0.6829" style="stop-color:#1E6BB0"/>
				<stop  offset="0.7582" style="stop-color:#1861A9"/>
				<stop  offset="1" style="stop-color:#124A7F"/>
				<a:midPointStop  offset="1.098900e-002" style="stop-color:#FFFFFF"/>
				<a:midPointStop  offset="0.4889" style="stop-color:#FFFFFF"/>
				<a:midPointStop  offset="0.2582" style="stop-color:#63D8FE"/>
				<a:midPointStop  offset="0.4066" style="stop-color:#63D8FE"/>
				<a:midPointStop  offset="0.7582" style="stop-color:#1861A9"/>
				<a:midPointStop  offset="0.5" style="stop-color:#1861A9"/>
				<a:midPointStop  offset="1" style="stop-color:#124A7F"/>
			</linearGradient>
			<path fill="url(#SVGID_16_)" d="M52.8,52.3c-0.3-0.3-0.3-0.8,0-1l0,0c0.3-0.3,0.8-0.3,1,0l2.4,2.4c0.3,0.3,0.3,0.8,0,1l0,0
				c-0.3,0.3-0.8,0.3-1,0L52.8,52.3z"/>
			<linearGradient id="SVGID_17_" gradientUnits="userSpaceOnUse" x1="46.8955" y1="19.5684" x2="46.8955" y2="89.8552">
				<stop  offset="1.098900e-002" style="stop-color:#FFFFFF"/>
				<stop  offset="0.1226" style="stop-color:#B7EDFF"/>
				<stop  offset="0.2582" style="stop-color:#63D8FE"/>
				<stop  offset="0.3957" style="stop-color:#49AFE0"/>
				<stop  offset="0.5565" style="stop-color:#2E85C2"/>
				<stop  offset="0.6829" style="stop-color:#1E6BB0"/>
				<stop  offset="0.7582" style="stop-color:#1861A9"/>
				<stop  offset="1" style="stop-color:#124A7F"/>
				<a:midPointStop  offset="1.098900e-002" style="stop-color:#FFFFFF"/>
				<a:midPointStop  offset="0.4889" style="stop-color:#FFFFFF"/>
				<a:midPointStop  offset="0.2582" style="stop-color:#63D8FE"/>
				<a:midPointStop  offset="0.4066" style="stop-color:#63D8FE"/>
				<a:midPointStop  offset="0.7582" style="stop-color:#1861A9"/>
				<a:midPointStop  offset="0.5" style="stop-color:#1861A9"/>
				<a:midPointStop  offset="1" style="stop-color:#124A7F"/>
			</linearGradient>
			<path fill="url(#SVGID_17_)" d="M45.2,44.7c-0.3-0.3-0.3-0.8,0-1l0,0c0.3-0.3,0.8-0.3,1,0l2.4,2.4c0.3,0.3,0.3,0.8,0,1l0,0
				c-0.3,0.3-0.8,0.3-1,0L45.2,44.7z"/>
		</g>
		<linearGradient id="SVGID_18_" gradientUnits="userSpaceOnUse" x1="14.9893" y1="-17.6991" x2="14.9893" y2="37.5053">
			<stop  offset="1.098900e-002" style="stop-color:#FFFFFF"/>
			<stop  offset="0.1226" style="stop-color:#B7EDFF"/>
			<stop  offset="0.2582" style="stop-color:#63D8FE"/>
			<stop  offset="0.3957" style="stop-color:#49AFE0"/>
			<stop  offset="0.5565" style="stop-color:#2E85C2"/>
			<stop  offset="0.6829" style="stop-color:#1E6BB0"/>
			<stop  offset="0.7582" style="stop-color:#1861A9"/>
			<stop  offset="1" style="stop-color:#124A7F"/>
			<a:midPointStop  offset="1.098900e-002" style="stop-color:#FFFFFF"/>
			<a:midPointStop  offset="0.4889" style="stop-color:#FFFFFF"/>
			<a:midPointStop  offset="0.2582" style="stop-color:#63D8FE"/>
			<a:midPointStop  offset="0.4066" style="stop-color:#63D8FE"/>
			<a:midPointStop  offset="0.7582" style="stop-color:#1861A9"/>
			<a:midPointStop  offset="0.5" style="stop-color:#1861A9"/>
			<a:midPointStop  offset="1" style="stop-color:#124A7F"/>
		</linearGradient>
		<path fill="url(#SVGID_18_)" d="M17.5,8.8c0,0.9-1.1,1.7-2.5,1.7l0,0c-1.4,0-2.5-0.8-2.5-1.7V1.7C12.5,0.8,13.6,0,15,0l0,0
			c1.4,0,2.5,0.8,2.5,1.7V8.8z"/>
	</g>
</g>
</svg>
