<?xml version="1.0" encoding="utf-8"?>
<!-- Generator: Adobe Illustrator 18.0.0, SVG Export Plug-In . SVG Version: 6.00 Build 0)  -->
<!DOCTYPE svg PUBLIC "-//W3C//DTD SVG 1.1//EN" "http://www.w3.org/Graphics/SVG/1.1/DTD/svg11.dtd">
<svg version="1.1" id="Layer_1" xmlns="http://www.w3.org/2000/svg" xmlns:xlink="http://www.w3.org/1999/xlink" x="0px" y="0px"
	 viewBox="0 0 57.7 61.4" enable-background="new 0 0 57.7 61.4" xml:space="preserve">
<g>
	<defs>
		<filter id="Adobe_OpacityMaskFilter" filterUnits="userSpaceOnUse" x="0" y="54.4" width="57.7" height="7">
			<feColorMatrix  type="matrix" values="1 0 0 0 0  0 1 0 0 0  0 0 1 0 0  0 0 0 1 0"/>
		</filter>
	</defs>
	<mask maskUnits="userSpaceOnUse" x="0" y="54.4" width="57.7" height="7" id="SVGID_1_">
		<g filter="url(#Adobe_OpacityMaskFilter)">
			
				<radialGradient id="SVGID_2_" cx="-94.7612" cy="-5084.2002" r="35.1803" gradientTransform="matrix(0.8244 0 0 0.1 106.4815 566.2305)" gradientUnits="userSpaceOnUse">
				<stop  offset="0" style="stop-color:#FFFFFF"/>
				<stop  offset="4.595643e-002" style="stop-color:#EBEBEB"/>
				<stop  offset="0.1989" style="stop-color:#AEAEAE"/>
				<stop  offset="0.3507" style="stop-color:#797979"/>
				<stop  offset="0.4976" style="stop-color:#4D4D4D"/>
				<stop  offset="0.6388" style="stop-color:#2C2C2C"/>
				<stop  offset="0.7728" style="stop-color:#141414"/>
				<stop  offset="0.8964" style="stop-color:#050505"/>
				<stop  offset="1" style="stop-color:#000000"/>
			</radialGradient>
			<ellipse fill="url(#SVGID_2_)" cx="28.4" cy="57.8" rx="28.8" ry="3.5"/>
		</g>
	</mask>
	<ellipse opacity="0.38" mask="url(#SVGID_1_)" cx="28.8" cy="57.9" rx="28.8" ry="3.5"/>
	<g>
		
			<linearGradient id="SVGID_3_" gradientUnits="userSpaceOnUse" x1="41.822" y1="49.2896" x2="41.7976" y2="56.2896" gradientTransform="matrix(1 -3.500000e-003 3.500000e-003 1 -4.3987 1.2241)">
			<stop  offset="0" style="stop-color:#F0F0F0"/>
			<stop  offset="0.956" style="stop-color:#DCDAD4"/>
		</linearGradient>
		<circle fill="url(#SVGID_3_)" cx="37.6" cy="40.2" r="17.4"/>
		<path fill="#FFFFFF" d="M24.2,32.4c3-4.4,7.8-7.5,13.3-7.5c5.7,0,10.9,3.5,13.9,8.1c0.5,0.8,0.1-0.7-0.9-2
			c-2.9-4.1-7.7-6.8-13-6.8c-5.4,0-10.2,2.7-13.1,6.9C23.1,33,23.1,34,24.2,32.4z"/>
		
			<linearGradient id="SVGID_4_" gradientUnits="userSpaceOnUse" x1="-848.5527" y1="709.4767" x2="-848.5527" y2="705.2328" gradientTransform="matrix(0.6778 0.6778 -0.7071 0.7071 1113.1034 114.6653)">
			<stop  offset="0" style="stop-color:#F0F0F0"/>
			<stop  offset="0.956" style="stop-color:#DCDAD4"/>
		</linearGradient>
		<path fill="url(#SVGID_4_)" d="M49.3,51c-0.5,0.5-1.4,0.6-1.9,0l-21-21c-0.5-0.5-0.5-1.4,0-1.9l0,0c0.5-0.5,1.4-0.6,1.9,0l21,21
			C49.9,49.6,49.9,50.5,49.3,51L49.3,51z"/>
		<linearGradient id="SVGID_5_" gradientUnits="userSpaceOnUse" x1="-59.6121" y1="33.1614" x2="49.5977" y2="27.8693">
			<stop  offset="0" style="stop-color:#FFFFFF"/>
			<stop  offset="6.185886e-002" style="stop-color:#D4E7FD"/>
			<stop  offset="0.1477" style="stop-color:#A0C9FA"/>
			<stop  offset="0.2222" style="stop-color:#79B3F9"/>
			<stop  offset="0.2817" style="stop-color:#62A6F7"/>
			<stop  offset="0.3187" style="stop-color:#59A1F7"/>
			<stop  offset="0.4355" style="stop-color:#468FE2"/>
			<stop  offset="0.5824" style="stop-color:#317CCB"/>
			<stop  offset="0.9282" style="stop-color:#09478D"/>
			<stop  offset="1" style="stop-color:#003C80"/>
		</linearGradient>
		<rect x="7.1" y="27.9" fill="url(#SVGID_5_)" width="24.9" height="2.9"/>
		<linearGradient id="SVGID_6_" gradientUnits="userSpaceOnUse" x1="19.5742" y1="-44.6307" x2="19.5742" y2="180.3689">
			<stop  offset="1.098900e-002" style="stop-color:#FFFFFF"/>
			<stop  offset="0.1226" style="stop-color:#B7EDFF"/>
			<stop  offset="0.2582" style="stop-color:#63D8FE"/>
			<stop  offset="0.3957" style="stop-color:#49AFE0"/>
			<stop  offset="0.5565" style="stop-color:#2E85C2"/>
			<stop  offset="0.6829" style="stop-color:#1E6BB0"/>
			<stop  offset="0.7582" style="stop-color:#1861A9"/>
			<stop  offset="1" style="stop-color:#124A7F"/>
		</linearGradient>
		<path fill="url(#SVGID_6_)" d="M18.8,59h1.5C26.8,59,32,54.5,32,48.8V30H7.1v18.8C7.1,54.5,12.4,59,18.8,59z"/>
		<linearGradient id="SVGID_7_" gradientUnits="userSpaceOnUse" x1="19.5742" y1="-60.6309" x2="19.5742" y2="101.369">
			<stop  offset="1.098900e-002" style="stop-color:#FFFFFF"/>
			<stop  offset="4.649890e-002" style="stop-color:#E8D6F4"/>
			<stop  offset="8.475413e-002" style="stop-color:#D4B2EB"/>
			<stop  offset="0.1251" style="stop-color:#C394E3"/>
			<stop  offset="0.1676" style="stop-color:#B67DDE"/>
			<stop  offset="0.2131" style="stop-color:#AD6DD9"/>
			<stop  offset="0.2637" style="stop-color:#A863D7"/>
			<stop  offset="0.3297" style="stop-color:#A660D6"/>
			<stop  offset="0.8571" style="stop-color:#754293"/>
			<stop  offset="0.8945" style="stop-color:#723F8F"/>
			<stop  offset="1" style="stop-color:#6D3B88"/>
		</linearGradient>
		<path fill="url(#SVGID_7_)" d="M32,10c0-5.5-5.2-10-11.7-10h-1.5C12.4,0,7.1,4.5,7.1,10v18H32V10z"/>
		<linearGradient id="SVGID_8_" gradientUnits="userSpaceOnUse" x1="19.7568" y1="-16.6309" x2="19.7568" y2="183.3706">
			<stop  offset="1.098900e-002" style="stop-color:#FFFFFF"/>
			<stop  offset="4.649890e-002" style="stop-color:#E8D6F4"/>
			<stop  offset="8.475413e-002" style="stop-color:#D4B2EB"/>
			<stop  offset="0.1251" style="stop-color:#C394E3"/>
			<stop  offset="0.1676" style="stop-color:#B67DDE"/>
			<stop  offset="0.2131" style="stop-color:#AD6DD9"/>
			<stop  offset="0.2637" style="stop-color:#A863D7"/>
			<stop  offset="0.3297" style="stop-color:#A660D6"/>
			<stop  offset="0.8571" style="stop-color:#754293"/>
			<stop  offset="0.8945" style="stop-color:#723F8F"/>
			<stop  offset="1" style="stop-color:#6D3B88"/>
		</linearGradient>
		<path opacity="0.61" fill="url(#SVGID_8_)" d="M18.8,5h1.4c4.2,0,7.7,2.5,8.7,6V10c0-4.4-3.8-8-8.4-8h-1.3c-4.4,0-8.1,3.3-8.4,7.4
			C12.2,6.8,15.2,5,18.8,5z"/>
		<path opacity="0.43" fill="#FFFFFF" d="M14.4,50.7c0,1.1-0.9,2-2.1,2l0,0c-1.1,0-2.1-0.9-2.1-2V8c0-1.1,0.9-2,2.1-2l0,0
			c1.1,0,2.1,0.9,2.1,2V50.7z"/>
	</g>
</g>
</svg>
