<?xml version="1.0" encoding="utf-8"?>
<!-- Generator: Adobe Illustrator 18.0.0, SVG Export Plug-In . SVG Version: 6.00 Build 0)  -->
<!DOCTYPE svg PUBLIC "-//W3C//DTD SVG 1.1//EN" "http://www.w3.org/Graphics/SVG/1.1/DTD/svg11.dtd" [
	<!ENTITY ns_flows "http://ns.adobe.com/Flows/1.0/">
	<!ENTITY ns_extend "http://ns.adobe.com/Extensibility/1.0/">
	<!ENTITY ns_ai "http://ns.adobe.com/AdobeIllustrator/10.0/">
	<!ENTITY ns_graphs "http://ns.adobe.com/Graphs/1.0/">
	<!ENTITY ns_vars "http://ns.adobe.com/Variables/1.0/">
	<!ENTITY ns_imrep "http://ns.adobe.com/ImageReplacement/1.0/">
	<!ENTITY ns_sfw "http://ns.adobe.com/SaveForWeb/1.0/">
	<!ENTITY ns_custom "http://ns.adobe.com/GenericCustomNamespace/1.0/">
	<!ENTITY ns_adobe_xpath "http://ns.adobe.com/XPath/1.0/">
]>
<svg version="1.1" id="Layer_1" xmlns:x="&ns_extend;" xmlns:i="&ns_ai;" xmlns:graph="&ns_graphs;"
	 xmlns="http://www.w3.org/2000/svg" xmlns:xlink="http://www.w3.org/1999/xlink" xmlns:a="http://ns.adobe.com/AdobeSVGViewerExtensions/3.0/"
	 x="0px" y="0px" viewBox="0 38.7 2048.1 436.3" enable-background="new 0 38.7 2048.1 436.3" xml:space="preserve">
<metadata>
	<sfw  xmlns="&ns_sfw;">
		<slices></slices>
		<sliceSourceBounds  height="436.3" width="2048.1" y="37" x="0" bottomLeftOrigin="true"></sliceSourceBounds>
	</sfw>
</metadata>
<g>
	<path fill="#0097A7" d="M81.8,38.7c21.7,0,39.4,17.6,39.4,39.4c0,21.7-17.6,39.4-39.4,39.4c-21.7-0.1-39.4-17.7-39.4-39.4
		C42.4,56.3,60.1,38.7,81.8,38.7L81.8,38.7z M212.1,470.6c-39.3-9.5-88.9-27.1-131.2-60.6C35.3,373.7-0.1,320.4,0,246.9
		c0.1-78.5,55.8-117.5,114-119c52.2-1.4,105.7,27.5,129.7,83c-51-40.6-92.7-43-122.2-26.9c-31.4,17.2-47.4,54.3-46.8,84.7
		c1.1,42.1,15.6,73,40.5,97.8c23.9,23.6,56.7,40.7,94.8,56.9c36.1,15.4,40,15.1,74.2-7.9c13.5-9.1,28.6-20.7,44.9-36.6
		c15.7-15.3,32.3-34.3,49.7-58.7c-3.9,17.2-14.5,39.9-30.1,63.2c-16.2,24.2-38.2,49.7-63.7,70.1
		C255.1,477.1,245.4,478.6,212.1,470.6z"/>
	<path fill="#F0592B" d="M381.9,100.7c16.2,0,29.5,13.2,29.5,29.5c0,16.2-13.2,29.5-29.5,29.5c-16.2,0-29.5-13.2-29.5-29.5
		C352.5,113.9,365.7,100.7,381.9,100.7L381.9,100.7z M271.9,406.4c29.5-19.8,61.7-46.1,85.2-77.3c22-29.3,37.2-64,36.1-105.3
		c-1.1-43.2-27.5-61.5-59.2-59.3c-34.6,2.4-76.7,29.2-96.3,76.7c37.2-25.5,67.1-36.3,87.3-36c19.3,0.3,30.7,10.6,31.5,29.4
		c0.8,19.5-6.1,43.3-19.8,67.2c-14.2,24.8-36.2,50.5-65.4,71.8c-21.2,15.5-27.9,17.5-52.4,9.9c-31.2-9.7-63.7-21.3-103-52.3
		c29.5,43.2,66,62.1,107.8,81.1C247.3,422.9,249.3,421.6,271.9,406.4z"/>
	<path fill="#F0592B" d="M171.9,291.2l13.8-51.7l15.1,53.9l17.3-75.5l15.2,84.3l2.8-13.2h88.6c-0.8,1.5-1.6,3-2.4,4.3
		c-1.6,2.7-3.2,5.4-4.8,8h-71.3l-14,64.4l-15.5-86L202,343.8l-16-57.3l-4.5,17.1h-85c-1.2-4-2.1-8.2-2.8-12.4h78.4V291.2z"/>
	<path fill="#2E3C3D" d="M1919.2,197.9v32.7h121.5v34.1h-121.5v35.6h128.3v33.7h-166.4V164.2h164.4v33.7H1919.2L1919.2,197.9z
		 M1788,199.6h-118.4v-35.4h182.2l0.1,30.8L1730,298.8h127.7v35.4h-191v-29.1L1788,199.6L1788,199.6z M1641,334.2h-36.9V164.2h36.9
		V334.2L1641,334.2z M1460.4,300.5h118.3v33.7h-156.1V164.2h37.7v136.2H1460.4z M1320.2,267l-37.8-65.9l-35,65.9H1320.2L1320.2,267z
		 M1339.9,301.9h-111.1l-19.1,32.2h-42l95.6-169.9h39l98.6,169.9l-40.6,0.1L1339.9,301.9L1339.9,301.9z M977.9,208.5v125.7h-35.3
		V164.2h42.6l123.4,126v-126h36.9v169.9h-43.6L977.9,208.5L977.9,208.5z M881.8,275H804v-34.8h114.6v40.1c0,6.3-0.6,12.7-2.3,18.9
		c-1.6,6-4.4,11.5-8.3,16.3c-6.6,8.4-16,13.5-26.3,16.1c-8.1,2.1-16.9,2.7-25.2,2.7c-1.5,0-3.1,0-4.5,0c-1.3,0-2.5,0-3.8,0h-48.9
		c-12.6,0-25.9-0.6-38.2-3.3c-8.6-1.8-18.4-5-24.9-11.4c-6.3-6.4-11.3-13.9-13.7-22.7c-2.2-7.7-2.6-16.8-2.6-24.8v-45.9
		c0-7.9,0.5-16.3,2.6-24c2.7-10.3,8-19.4,16.4-26.1c8.9-7.1,22.8-9.6,33.7-10.7c11.6-1.3,23.8-1.3,35.5-1.3H825
		c10.2,0,20.5,0,30.8,0.4c7.7,0.3,15.3,1.4,22.7,3.3c7.7,1.9,14.9,5.2,21.3,10c6.3,4.7,10.5,11.5,13.4,18.8
		c2.1,5.4,3.5,11.2,3.5,17.1v8.1h-37.7v-8.1c0-3.3-1.2-5.5-3.7-7.4c-3.4-2.5-9.8-4-13.8-4.7c-7.6-1.5-15.4-2.1-23.1-2.1h-41.2
		c-8.5,0-17.8,0.2-26.1,1.8c-2.1,0.4-8,1.7-9.7,3.2c-3,3.2-4.3,8.9-5.1,13c-0.8,4.7-1.2,9.6-1.2,14.4v27.9c0,7-0.1,14.8,0.7,21.6
		c0.3,2.3,1.4,9,3.3,10.5c3.2,2.7,7.4,4.2,11.4,5.2c6.3,1.4,13,1.9,19.5,1.9h57.5c6,0,13,0.1,19-0.5c3.4-0.4,8.4-1.3,11.3-3.4
		c1.6-1.2,2.4-3.3,2.8-5.2c1.1-4.3,1.4-9,1.4-13.4V275H881.8z M694.7,334.2h-36.9V164.2h36.9V334.2L694.7,334.2z M486.7,224.9
		c0.8,0.8,1.9,1.7,2.7,2.4c2.4,2.1,5.2,3.3,8.3,3.9c3.6,0.6,8.9,0.5,12.5,0.5h69.5c6.1,0,12.2,0.7,18.1,2.1c5.5,1.2,11.1,3.1,15.9,6
		c8,5.2,14,12.2,17.6,21.1c2.5,6.4,3.7,13.2,3.7,20v4.3c0,5.5-0.2,11.9-1.7,17.3c-2.1,7.6-6.3,14-12.4,19.1
		c-5.9,4.8-13.4,7.7-20.8,9.6c-10.7,2.7-23.6,3.2-34.7,3.2c-2,0-3.9,0-5.9,0c-1.9,0-3.7,0-5.5,0h-34.5c-10,0-20.9-0.5-30.8-2.7
		c-8.9-2.1-17.8-5.5-25-11.4c-4.8-4.1-7.7-9.7-9.2-15.8c-1.1-4.4-1.5-9.1-1.5-13.6c0-1.1,0-2.2,0-3.3v-8.1h33.4v8.4
		c0,2.6,0.5,5.3,2.5,7.2c1.9,1.8,9.9,3.3,12.3,3.6c10.4,1.6,21.6,1.9,32.1,1.9h9.5c8.7,0,17.5-0.1,26.2-0.5
		c5.5-0.2,11.1-0.7,16.4-1.8c2.5-0.5,7.6-1.8,9.5-3.8c1.1-1.2,3-3,3.7-4.2c0.5-0.9,0.6-2.2,0.6-3.3v-3.2c0-5.5-1.8-9.7-6.1-13
		c-2-1.5-4.1-2.4-6.6-2.8c-3.2-0.6-6.5-0.9-9.8-0.9h-59.7c-6.8,0-13.8-0.6-20.5-1.6c-5.9-0.8-12.7-2.1-18.2-4.5
		c-9.1-3.9-16.8-9.8-21.6-18.5c-3.8-7-5.2-14.9-5.2-22.7v-4.6c0-8.5,1.1-17.7,5.2-25.4c4.6-8.9,12.5-14.9,21.4-19
		c7.8-3.6,19-5,27.4-5.7c8.4-0.7,16.9-0.9,25.3-0.9h21.8c10.3,0,21.9,0,32.1,1.5c11.4,1.7,24.7,5.4,32.3,14.6
		c3.9,4.7,7.1,10.1,9,15.9c1.9,5.9,2.4,12.2,2.4,18.3v7h-35.3v-8.3c0-1.5-0.2-3-0.8-4.3c-0.7-1.7-1.8-3.2-3.1-4.5
		c-1.7-1.9-8.7-3.7-11.2-4.1c-8.2-1.7-16.9-2.2-25.2-2.2H525c-7,0-14,0.3-20.9,1.3c-2.7,0.4-12.2,2-14.2,4.1c-3,3.4-4,7.4-4,11.8
		v5.3C486.2,221.4,486.3,223.8,486.7,224.9z"/>
	<path fill="#6B7173" d="M465.6,390.4c0,1.8,0.2,3.7,0.7,5.4c0.4,1.4,1.2,2.5,2.3,3.3c1.3,0.8,3,1.2,4.5,1.4
		c2.4,0.2,4.8,0.3,7.4,0.3c2.2,0,4.4,0,6.6-0.2c1.3-0.1,2.7-0.3,4-0.7c0.7-0.3,1.4-0.7,1.8-1.4c0.4-0.7,0.5-1.6,0.5-2.4v-0.8h7.5
		v0.8c0,1.8-0.3,3.6-1.1,5.2c-0.8,1.6-2.1,2.7-3.6,3.6c-1.9,1.1-4.2,1.6-6.3,1.9c-3.1,0.4-6.3,0.5-9.4,0.5c-3.4,0-6.8-0.2-10.1-0.8
		c-2.5-0.5-5-1.4-7.1-3c-1.9-1.5-3.2-3.4-4-5.7c-0.9-2.7-1.2-5.8-1.2-8.6c0-3.3,0.2-6.7,1.2-9.8c0.7-2.4,2-4.7,4-6.4
		c2-1.8,4.4-2.7,7.1-3.3c3.3-0.7,6.8-0.9,10.1-0.9c2.4,0,5.1,0.1,7.5,0.6c1.9,0.4,3.8,0.9,5.5,1.9c1.5,0.7,2.7,1.8,3.8,3.1
		c0.9,1.2,1.7,2.3,2.2,3.7c0.6,1.4,0.9,3,1.2,4.5c0.2,1.8,0.3,3.6,0.3,5.4l-0.6,2.6L465.6,390.4L465.6,390.4z M465.6,385h27.7
		c0-1.5-0.2-3.2-0.7-4.5c-0.4-1.2-1.2-2.2-2.2-3c-1.2-0.8-2.5-1.4-3.9-1.7c-2-0.4-4.1-0.5-6.1-0.5c-1.8,0-3.5,0-5.2,0.1
		c-1.3,0.1-2.6,0.2-3.9,0.5c-0.9,0.2-1.9,0.5-2.7,1.1c-0.6,0.4-1.3,0.9-1.8,1.6c-0.5,0.7-0.8,1.8-0.9,2.6
		C465.7,382.4,465.6,383.7,465.6,385L465.6,385z M524.9,373.7c0.1-0.2,0.3-0.3,0.5-0.4c0.8-0.8,1.8-1.5,2.8-2s2.2-0.9,3.4-1.3
		c1.2-0.3,2.3-0.5,3.6-0.7c1.2-0.2,2.3-0.3,3.5-0.3c1.1-0.1,2-0.1,3.1-0.1c2.3,0,4.6,0.1,6.8,0.5c1.7,0.3,3.5,0.7,5.1,1.5
		c1.3,0.6,2.5,1.5,3.5,2.5c0.8,1.1,1.6,2.2,2,3.5c0.5,1.4,0.7,2.8,0.9,4.3c0.2,1.7,0.2,3.4,0.2,5.1v20.4h-7.5v-20.4
		c0-1.8-0.1-3.6-0.4-5.4c-0.3-1.3-0.8-2.3-1.7-3.2c-1.1-0.9-2.4-1.5-3.8-1.8c-2.2-0.5-4.6-0.6-7-0.6c-2.5,0-5.2,0.1-7.7,0.6
		c-1.5,0.3-3.2,0.9-4.5,1.9c-0.9,0.7-1.7,1.6-2.1,2.7c-0.4,1.2-0.6,2.4-0.6,3.7v22.3h-7.5v-36.9h7.5v4H524.9z M611.8,403.4
		c-0.7,0.8-1.7,1.6-2.6,2.1c-1.3,0.7-2.8,1.2-4.3,1.4c-2.2,0.4-4.6,0.5-6.8,0.5c-3.2,0-6.4-0.1-9.6-0.5c-2.2-0.3-4.6-0.8-6.6-1.8
		c-1.6-0.7-3.1-1.8-4-3.3c-0.9-1.5-1.3-3.2-1.3-4.8c0-1.6,0.2-3.3,0.6-4.7c0.4-1.3,1.1-2.4,2-3.4c0.9-0.9,2-1.7,3.2-2.1
		c1.3-0.5,2.7-0.8,4.1-1.2c1.6-0.3,3.3-0.4,5-0.4c1.9-0.1,3.7-0.1,5.6-0.1c2.3,0,4.7,0.1,7.1,0.3c1.6,0.2,3.3,0.4,4.7,0.9
		c0.9,0.3,2.1,0.6,3,1.3l0,0c0-1.4-0.1-2.6-0.3-4c-0.1-1.3-0.4-2.6-0.9-3.8c-0.3-0.8-0.8-1.7-1.5-2.3c-0.6-0.6-1.4-1.1-2.2-1.3
		c-1.1-0.3-2.2-0.5-3.4-0.6c-1.5-0.1-3.1-0.1-4.5-0.1c-2.2,0-4.4,0-6.6,0.2c-1.3,0.1-2.7,0.3-4,0.7c-0.6,0.2-1.4,0.6-1.8,1.3
		c-0.4,0.6-0.5,1.5-0.5,2.2v0.8h-7.5v-0.8c0-1.8,0.3-3.5,1.1-5.1c0.8-1.6,2.1-2.6,3.7-3.5c1.9-1.1,4.2-1.6,6.3-1.8
		c3.1-0.4,6.3-0.5,9.4-0.5s6.3,0.2,9.3,0.9c2.4,0.5,4.6,1.6,6.4,3.4c1.8,1.8,3,4,3.6,6.4c0.8,3.2,1.1,6.5,1.1,9.8v17.5h-7.5v-3.7
		H611.8z M599,400.9c2.1,0,4.3-0.1,6.4-0.3c1.3-0.2,2.7-0.4,4-1.1c0.7-0.3,1.5-0.8,1.9-1.5c0.4-0.6,0.5-1.4,0.5-2.1
		c0-0.7-0.2-1.4-0.6-2c-0.5-0.6-1.5-1.1-2.2-1.4c-1.5-0.5-3.2-0.7-4.6-0.8c-2.4-0.2-5-0.3-7.4-0.3c-2.3,0-4.7,0-7.1,0.1
		c-1.3,0.1-2.7,0.2-3.9,0.6c-0.6,0.2-1.3,0.6-1.6,1.2c-0.3,0.7-0.4,1.7-0.4,2.5s0.1,1.8,0.4,2.6c0.3,0.6,1.1,1.1,1.8,1.4
		c1.4,0.5,3.1,0.7,4.5,0.8C593.5,400.9,596.2,400.9,599,400.9L599,400.9z M643.3,403.1v3.6h-7.5V358h7.5v13.9l0,0
		c0.8-0.6,1.9-1.2,3-1.5c1.5-0.5,3.2-0.8,4.7-1.2c2.3-0.3,4.7-0.4,7.2-0.4c3.4,0,6.8,0.2,10.1,0.8c2.5,0.5,5.1,1.5,7.1,3.2
		c1.9,1.6,3.2,3.7,4,6c0.9,2.8,1.2,6.2,1.2,9.2c0,3.1-0.2,6.3-1.2,9.2c-0.7,2.3-2.1,4.4-4,6c-2,1.7-4.5,2.6-7.1,3.2
		c-3.3,0.7-6.7,0.8-10.1,0.8c-2.4,0-4.8-0.1-7.2-0.6c-1.6-0.3-3.2-0.7-4.7-1.4C645,404.9,644.1,404.1,643.3,403.1L643.3,403.1z
		 M658.2,400.8c1.9,0,3.9,0,5.8-0.2c1.4-0.1,2.7-0.3,4.1-0.7c0.9-0.3,1.8-0.7,2.5-1.4c0.6-0.6,1.2-1.4,1.5-2.1
		c0.4-1.1,0.6-2.2,0.7-3.4c0.2-1.6,0.2-3.3,0.2-4.8s0-3.3-0.2-4.8c-0.1-1.2-0.3-2.3-0.7-3.4c-0.3-0.8-0.8-1.6-1.5-2.2
		c-0.7-0.6-1.6-1.1-2.5-1.4c-1.3-0.4-2.7-0.6-4.1-0.7c-1.9-0.2-3.9-0.2-5.8-0.2c-1.7,0-3.5,0-5.2,0.1c-1.3,0.1-2.6,0.2-3.9,0.6
		c-0.9,0.3-1.9,0.6-2.7,1.3c-0.7,0.5-1.3,1.3-1.7,2.1c-0.5,1.1-0.8,2.3-1.1,3.5c-0.3,1.7-0.3,3.5-0.3,5.3c0,1.7,0.1,3.5,0.3,5.2
		c0.2,1.2,0.5,2.4,1.1,3.5c0.4,0.8,0.9,1.6,1.7,2.1c0.8,0.6,1.7,0.9,2.6,1.3c1.3,0.3,2.6,0.5,3.9,0.5
		C654.7,400.8,656.5,400.8,658.2,400.8L658.2,400.8z M698,358h7.5v48.7H698V358L698,358z M725.9,369.8h7.5v36.9h-7.5V369.8
		L725.9,369.8z M733.5,365.5h-7.6V358h7.5v7.5H733.5z M759.4,373.7c0.1-0.2,0.3-0.3,0.5-0.4c0.8-0.8,1.8-1.5,2.8-2
		c1.1-0.5,2.2-0.9,3.4-1.3c1.2-0.3,2.4-0.5,3.6-0.7c1.2-0.2,2.3-0.3,3.5-0.3c1.1-0.1,2-0.1,3.1-0.1c2.3,0,4.6,0.1,6.8,0.5
		c1.7,0.3,3.5,0.7,5.1,1.5c1.3,0.6,2.5,1.5,3.5,2.5c0.8,1.1,1.6,2.2,2,3.5c0.5,1.4,0.7,2.8,0.9,4.3c0.2,1.7,0.2,3.4,0.2,5.1v20.4
		h-7.5v-20.4c0-1.8-0.1-3.6-0.5-5.4c-0.3-1.3-0.8-2.3-1.7-3.2c-1.1-0.9-2.4-1.5-3.8-1.8c-2.2-0.5-4.6-0.6-7-0.6
		c-2.5,0-5.2,0.1-7.7,0.6c-1.6,0.3-3.3,0.9-4.5,1.9c-0.9,0.7-1.7,1.6-2.1,2.7c-0.4,1.2-0.6,2.4-0.6,3.7v22.3H752v-36.9h7.5
		L759.4,373.7L759.4,373.7z M847.4,404.1c-0.8,0.7-1.9,1.3-3,1.7c-1.5,0.6-3.2,0.9-4.7,1.3c-2.3,0.4-4.7,0.5-7.2,0.5
		c-3.4,0-6.8-0.2-10.1-0.8c-2.5-0.5-5.1-1.5-7.1-3.2c-1.9-1.6-3.3-3.7-4-6.1c-0.9-3-1.2-6.2-1.2-9.3s0.2-6.4,1.2-9.4
		c0.7-2.4,2-4.5,4-6.1c2-1.7,4.5-2.6,7.1-3.2c3.3-0.7,6.7-0.8,10.1-0.8c2.3,0,4.7,0.1,7.1,0.4c1.6,0.2,3.3,0.5,4.7,1.2
		c1.1,0.3,2.1,0.8,3,1.5l0,0v-2.1h7.5v31.2c0,3-0.2,6-1.2,8.9c-0.8,2.3-2.1,4.3-4,5.9c-2,1.7-4.5,2.6-7.1,3.1
		c-3.3,0.6-6.7,0.8-10.1,0.8c-3.1,0-6.3-0.1-9.4-0.5c-2.1-0.3-4.3-0.7-6.3-1.6c-1.5-0.6-2.8-1.6-3.7-3.1c-0.8-1.4-1.2-3-1.2-4.4
		v-0.8h7.5v0.8c0,0.5,0.1,1.1,0.4,1.5c0.4,0.5,1.2,0.7,1.8,0.9c1.3,0.3,2.7,0.5,4,0.5c2.2,0.1,4.4,0.2,6.6,0.2c2.4,0,5,0,7.4-0.3
		c1.5-0.2,3.2-0.5,4.5-1.4c1.2-0.7,1.9-1.9,2.3-3.2C847.1,406.9,847.3,405.5,847.4,404.1L847.4,404.1z M832.7,375.3
		c-1.9,0-3.9,0-5.9,0.2c-1.4,0.1-2.7,0.3-4.1,0.7c-0.9,0.3-1.8,0.7-2.5,1.4c-0.6,0.6-1.2,1.4-1.5,2.2c-0.4,1.1-0.6,2.3-0.7,3.5
		c-0.1,1.7-0.2,3.4-0.2,5c0,1.7,0,3.3,0.2,5c0.1,1.2,0.3,2.3,0.7,3.5c0.3,0.8,0.8,1.6,1.5,2.2c0.7,0.6,1.6,1.1,2.5,1.4
		c1.3,0.4,2.7,0.6,4.1,0.7c1.9,0.2,3.9,0.2,5.9,0.2c1.7,0,3.5,0,5.2-0.1c1.3-0.1,2.6-0.2,3.9-0.6c0.9-0.2,1.9-0.6,2.6-1.3
		c0.7-0.5,1.4-1.3,1.7-2.1c0.5-1.1,0.8-2.3,1.1-3.5c0.3-1.7,0.3-3.6,0.3-5.3c0-1.8-0.1-3.6-0.3-5.4c-0.2-1.2-0.5-2.4-1.1-3.6
		c-0.4-0.8-0.9-1.6-1.7-2.1c-0.8-0.5-1.7-0.9-2.6-1.3c-1.3-0.3-2.6-0.5-3.9-0.5C836,375.3,834.4,375.3,832.7,375.3L832.7,375.3z
		 M900.8,376.2h-7.3v-6.5h7.3v-9.6h7.5v9.6h22.1v6.5h-22.1v16.9c0,1.4,0,3,0.4,4.3c0.2,0.7,0.5,1.5,1.2,1.9c0.6,0.4,1.4,0.6,2.2,0.7
		c1.3,0.1,2.5,0.1,3.9,0.1c1.1,0,2.2,0,3.3-0.1c0.7,0,1.6-0.1,2.3-0.3c0.5-0.2,1.1-0.4,1.6-0.8c0.4-0.4,0.7-0.9,1.1-1.6
		c0.3-0.8,0.5-1.9,0.6-2.8c0.2-1.5,0.2-3,0.2-4.4v-0.8h6.5v0.8c0,2.5-0.1,5.3-0.7,7.7c-0.4,1.9-1.3,3.8-2.6,5.2
		c-1.4,1.4-3.1,2.3-5,2.8c-2.3,0.6-4.8,0.7-7.2,0.7c-2.3,0-4.6-0.1-7-0.6c-1.7-0.4-3.4-1.1-4.7-2.2c-1.3-1.2-2.2-2.6-2.6-4.3
		c-0.6-2-0.7-4.2-0.7-6.3v-16.8H900.8z M955.4,373.5c0.1-0.1,0.2-0.2,0.4-0.4c0.8-0.7,1.8-1.4,2.8-1.9c1.1-0.5,2.2-0.9,3.4-1.3
		c1.2-0.3,2.3-0.5,3.6-0.7c1.2-0.2,2.3-0.3,3.5-0.3c1.1-0.1,2.1-0.1,3.2-0.1c2.3,0,4.6,0.1,6.8,0.5c1.7,0.3,3.5,0.7,5.1,1.5
		c1.3,0.6,2.5,1.5,3.5,2.5c0.8,1.1,1.6,2.2,2,3.5c0.5,1.4,0.7,2.8,0.9,4.2c0.2,1.7,0.2,3.3,0.2,5v20.8h-7.5v-20.8
		c0-1.7-0.1-3.5-0.5-5.2c-0.3-1.2-0.8-2.3-1.7-3.2c-1.1-0.9-2.4-1.5-3.8-1.8c-2.2-0.5-4.6-0.5-7-0.5c-2.5,0-5.2,0.1-7.7,0.6
		c-1.5,0.3-3.3,0.8-4.5,1.8c-0.9,0.6-1.7,1.5-2.1,2.6c-0.4,1.2-0.6,2.4-0.6,3.6v22.7h-7.5V358h7.5L955.4,373.5L955.4,373.5z
		 M1013.8,390.4c0,1.8,0.2,3.7,0.7,5.4c0.4,1.4,1.2,2.5,2.3,3.3c1.3,0.8,3,1.2,4.5,1.4c2.4,0.2,4.8,0.3,7.3,0.3c2.2,0,4.4,0,6.6-0.2
		c1.3-0.1,2.7-0.3,4-0.7c0.7-0.3,1.4-0.7,1.8-1.4c0.4-0.7,0.5-1.6,0.5-2.4v-0.8h7.5v0.8c0,1.8-0.3,3.6-1.1,5.2
		c-0.8,1.6-2.1,2.7-3.6,3.6c-1.9,1.1-4.2,1.6-6.3,1.9c-3.1,0.4-6.3,0.5-9.4,0.5c-3.4,0-6.8-0.2-10.1-0.8c-2.5-0.5-5-1.4-7.1-3
		c-1.9-1.5-3.2-3.4-4-5.7c-0.9-2.7-1.2-5.8-1.2-8.6c0-3.3,0.2-6.7,1.2-9.8c0.7-2.4,2-4.7,4-6.4c2-1.8,4.4-2.7,7.1-3.3
		c3.3-0.7,6.8-0.9,10.1-0.9c2.4,0,5.1,0.1,7.5,0.6c1.9,0.4,3.8,0.9,5.5,1.9c1.5,0.7,2.7,1.8,3.8,3.1c0.9,1.2,1.7,2.3,2.2,3.7
		c0.6,1.4,0.9,3,1.2,4.5c0.2,1.8,0.3,3.6,0.3,5.4l-0.6,2.6L1013.8,390.4L1013.8,390.4z M1013.8,385h27.7c0-1.5-0.2-3.2-0.7-4.5
		c-0.4-1.2-1.2-2.2-2.2-3c-1.2-0.8-2.5-1.4-3.9-1.7c-2-0.4-4.1-0.5-6.1-0.5c-1.7,0-3.5,0-5.2,0.1c-1.3,0.1-2.6,0.2-3.9,0.5
		c-0.9,0.2-1.9,0.5-2.7,1.1c-0.6,0.4-1.3,0.9-1.8,1.6c-0.5,0.7-0.8,1.8-0.9,2.6C1013.9,382.4,1013.8,383.7,1013.8,385L1013.8,385z
		 M1111.8,400.1l15-30h8.6l-19.3,36.6h-9.7l-19.4-36.9l9.3-0.4L1111.8,400.1L1111.8,400.1z M1145.9,387.8c0-3.1,0.2-6.2,1.2-9.2
		c0.7-2.3,2.1-4.4,4-6c2-1.6,4.5-2.5,7.1-3.1c3.3-0.6,6.7-0.8,10.1-0.8s6.8,0.2,10.1,0.8c2.5,0.5,5,1.5,7.1,3.1c1.9,1.6,3.3,3.6,4,6
		c0.9,2.8,1.2,6.1,1.2,9.2c0,3.1-0.2,6.4-1.2,9.4c-0.7,2.4-2,4.5-4,6.1c-2,1.7-4.5,2.6-7.1,3.2c-3.3,0.7-6.7,0.9-10.1,0.9
		s-6.8-0.2-10.1-0.9c-2.5-0.5-5.1-1.5-7.1-3.2c-1.9-1.6-3.3-3.7-4-6.1C1146.1,394.1,1145.9,390.9,1145.9,387.8L1145.9,387.8z
		 M1153.4,387.8c0,1.7,0,3.4,0.2,5c0.1,1.2,0.3,2.4,0.7,3.5c0.3,0.8,0.7,1.6,1.5,2.2c0.7,0.6,1.6,1.1,2.5,1.4
		c1.3,0.4,2.7,0.6,4.1,0.7c1.9,0.1,3.9,0.2,5.9,0.2c1.7,0,3.5,0,5.2-0.1c1.3-0.1,2.6-0.2,3.9-0.6c0.9-0.3,1.9-0.6,2.7-1.3
		c0.7-0.5,1.4-1.3,1.7-2.1c0.5-1.2,0.8-2.3,1.1-3.6c0.3-1.7,0.3-3.6,0.3-5.3c0-1.7-0.1-3.5-0.3-5.2c-0.2-1.2-0.5-2.4-1.1-3.5
		c-0.4-0.8-0.9-1.5-1.7-2c-0.8-0.5-1.7-0.9-2.7-1.2c-1.3-0.3-2.6-0.4-3.9-0.5c-1.7-0.1-3.5-0.1-5.2-0.1s-3.5,0-5.2,0.1
		c-1.3,0.1-2.6,0.2-3.9,0.5c-0.9,0.2-1.9,0.6-2.7,1.2c-0.7,0.5-1.3,1.3-1.7,2c-0.5,1.1-0.8,2.3-1.1,3.5
		C1153.5,384.3,1153.4,386.1,1153.4,387.8L1153.4,387.8z M1208.2,369.8h7.5v36.9h-7.5V369.8L1208.2,369.8z M1215.7,365.5h-7.5V358
		h7.5V365.5L1215.7,365.5z M1233.1,388.1c0-2.2,0.1-4.4,0.4-6.5c0.2-1.7,0.6-3.5,1.4-5.1c0.6-1.5,1.6-2.7,2.7-3.7
		c1.3-1.1,2.7-1.9,4.2-2.4c1.9-0.6,3.9-1.1,5.9-1.3c2.5-0.3,5.2-0.4,7.8-0.4c3.3,0,6.6,0.1,9.8,0.7c2.2,0.4,4.4,1.1,6.3,2.3
		c1.6,1.1,2.7,2.4,3.4,4.1c0.6,1.8,0.9,3.8,0.9,5.7v0.8h-7.5v-0.8c0-0.7,0-1.4-0.1-2.1c0-0.5-0.1-1.1-0.3-1.5
		c-0.2-0.4-0.5-0.8-0.9-1.2c-0.6-0.4-1.4-0.7-2.1-0.9c-1.2-0.3-2.5-0.5-3.7-0.6c-1.9-0.2-3.8-0.2-5.7-0.2c-2.2,0-4.3,0.1-6.5,0.3
		c-1.4,0.1-3,0.4-4.2,0.8c-0.8,0.3-1.8,0.7-2.4,1.5c-0.6,0.6-0.9,1.4-1.2,2.2c-0.3,1.1-0.4,2.2-0.5,3.4c-0.1,1.6-0.1,3.2-0.1,4.6
		s0,3.1,0.1,4.6c0,1.2,0.2,2.2,0.5,3.4c0.2,0.8,0.6,1.6,1.2,2.2c0.6,0.6,1.5,1.2,2.4,1.5c1.4,0.5,2.8,0.7,4.2,0.8
		c2.1,0.2,4.3,0.3,6.5,0.3c1.9,0,3.8,0,5.7-0.2c1.3-0.1,2.5-0.3,3.8-0.6c0.7-0.2,1.5-0.5,2.1-0.9c0.4-0.3,0.7-0.7,0.9-1.2
		c0.2-0.5,0.3-1.1,0.3-1.6c0-0.7,0.1-1.5,0.1-2.1v-0.8h7.5v0.8c0,2-0.2,4-0.9,5.9c-0.6,1.8-1.8,3.2-3.4,4.2c-1.8,1.3-4.1,2-6.3,2.4
		c-3.2,0.6-6.6,0.7-9.8,0.7c-2.6,0-5.3-0.1-7.8-0.4c-2-0.2-4-0.6-5.9-1.3c-1.6-0.5-3.1-1.3-4.2-2.4c-1.2-1.1-2.1-2.3-2.7-3.7
		c-0.7-1.6-1.2-3.4-1.4-5.1C1233.1,392.4,1233.1,390.2,1233.1,388.1L1233.1,388.1z M1299,390.4c0,1.8,0.2,3.7,0.7,5.4
		c0.4,1.4,1.2,2.5,2.3,3.3c1.3,0.8,3,1.2,4.5,1.4c2.4,0.2,4.8,0.3,7.3,0.3c2.2,0,4.4,0,6.6-0.2c1.3-0.1,2.7-0.3,4-0.7
		c0.7-0.3,1.4-0.7,1.8-1.4c0.4-0.7,0.5-1.6,0.5-2.4v-0.8h7.5v0.8c0,1.8-0.3,3.6-1.1,5.2c-0.8,1.6-2.1,2.7-3.6,3.6
		c-1.9,1.1-4.2,1.6-6.3,1.9c-3.1,0.4-6.3,0.5-9.4,0.5c-3.4,0-6.8-0.2-10.1-0.8c-2.5-0.5-5-1.4-7.1-3c-1.9-1.5-3.2-3.4-4-5.7
		c-0.9-2.7-1.2-5.8-1.2-8.6c0-3.3,0.2-6.7,1.2-9.8c0.7-2.4,2-4.7,4-6.4c2-1.8,4.4-2.7,7.1-3.3c3.3-0.7,6.8-0.9,10.1-0.9
		c2.4,0,5.1,0.1,7.5,0.6c1.9,0.4,3.8,0.9,5.5,1.9c1.5,0.7,2.7,1.8,3.8,3.1c0.9,1.2,1.7,2.3,2.2,3.7c0.6,1.4,0.9,3,1.2,4.5
		c0.2,1.8,0.3,3.6,0.3,5.4l-0.6,2.6L1299,390.4L1299,390.4z M1299,385h27.7c0-1.5-0.2-3.2-0.7-4.5c-0.4-1.2-1.2-2.2-2.2-3
		c-1.2-0.8-2.5-1.4-3.9-1.7c-2-0.4-4.1-0.5-6.1-0.5c-1.7,0-3.5,0-5.2,0.1c-1.3,0.1-2.6,0.2-3.9,0.5c-0.9,0.2-1.9,0.5-2.7,1.1
		c-0.6,0.4-1.3,0.9-1.8,1.6c-0.5,0.7-0.8,1.8-0.9,2.6C1299.1,382.4,1299,383.7,1299,385L1299,385z M1373.8,387.8
		c0-3.1,0.2-6.2,1.2-9.2c0.7-2.3,2.1-4.4,4-6c2-1.6,4.5-2.5,7.1-3.1c3.3-0.6,6.7-0.8,10.1-0.8s6.8,0.2,10.1,0.8
		c2.5,0.5,5,1.5,7.1,3.1c1.9,1.6,3.3,3.6,4,6c0.9,2.8,1.2,6.1,1.2,9.2c0,3.1-0.2,6.4-1.2,9.4c-0.7,2.4-2,4.5-4,6.1
		c-2,1.7-4.5,2.6-7.1,3.2c-3.3,0.7-6.8,0.9-10.1,0.9c-3.4,0-6.8-0.2-10.1-0.9c-2.5-0.5-5.1-1.5-7.1-3.2c-1.9-1.6-3.3-3.7-4-6.1
		C1374,394.1,1373.8,390.9,1373.8,387.8L1373.8,387.8z M1381.3,387.8c0,1.7,0,3.4,0.2,5c0.1,1.2,0.3,2.4,0.7,3.5
		c0.3,0.8,0.7,1.6,1.5,2.2c0.7,0.6,1.6,1.1,2.5,1.4c1.3,0.4,2.7,0.6,4.1,0.7c1.9,0.1,3.9,0.2,5.9,0.2c1.7,0,3.5,0,5.2-0.1
		c1.3-0.1,2.6-0.2,3.9-0.6c0.9-0.3,1.9-0.6,2.7-1.3c0.7-0.5,1.3-1.3,1.7-2.1c0.5-1.2,0.8-2.3,1.1-3.6c0.3-1.7,0.3-3.6,0.3-5.3
		c0-1.7-0.1-3.5-0.3-5.2c-0.2-1.2-0.5-2.4-1.1-3.5c-0.4-0.8-0.9-1.5-1.7-2c-0.8-0.5-1.7-0.9-2.7-1.2c-1.3-0.3-2.6-0.4-3.9-0.5
		c-1.7-0.1-3.5-0.1-5.2-0.1c-1.7,0-3.5,0-5.2,0.1c-1.3,0.1-2.6,0.2-3.9,0.5c-0.9,0.2-1.9,0.6-2.7,1.2c-0.7,0.5-1.3,1.3-1.7,2
		c-0.5,1.1-0.8,2.3-1.1,3.5C1381.3,384.3,1381.3,386.1,1381.3,387.8L1381.3,387.8z M1447.4,376.2v30.3h-7.5v-30.3h-5.9v-6.5h5.9
		c0-1.9,0.2-3.9,0.8-5.7c0.5-1.7,1.5-3.2,3-4.2c1.5-1.2,3.4-1.8,5.2-2.2c2.4-0.5,5.1-0.6,7.6-0.6h7.6v6.5h-7.7c-1.6,0-3.1,0-4.6,0.1
		c-0.8,0.1-1.9,0.2-2.6,0.7c-0.6,0.4-1.1,1.1-1.3,1.8c-0.3,1.1-0.4,2.4-0.4,3.6h16.6v6.5L1447.4,376.2L1447.4,376.2z M1505.9,376.2
		h-7.3v-6.5h7.3v-9.6h7.5v9.6h22.1v6.5h-22.1v16.9c0,1.4,0,3,0.4,4.3c0.2,0.7,0.5,1.5,1.2,1.9c0.6,0.4,1.4,0.6,2.2,0.7
		c1.3,0.1,2.6,0.1,3.9,0.1c1.1,0,2.2,0,3.3-0.1c0.7,0,1.6-0.1,2.3-0.3c0.5-0.2,1.1-0.4,1.6-0.8c0.4-0.4,0.7-0.9,1.1-1.6
		c0.3-0.8,0.5-1.9,0.6-2.8c0.2-1.5,0.2-3,0.2-4.4v-0.8h6.5v0.8c0,2.5-0.1,5.3-0.7,7.7c-0.4,1.9-1.3,3.8-2.6,5.2
		c-1.4,1.4-3.1,2.3-5,2.8c-2.3,0.6-4.8,0.7-7.2,0.7c-2.3,0-4.6-0.1-7-0.6c-1.7-0.4-3.4-1.1-4.7-2.2c-1.3-1.2-2.2-2.6-2.6-4.3
		c-0.6-2-0.7-4.2-0.7-6.3v-16.8H1505.9z M1560.6,373.5c0.1-0.1,0.2-0.2,0.4-0.4c0.8-0.7,1.8-1.4,2.8-1.9c1.1-0.5,2.2-0.9,3.4-1.3
		c1.2-0.3,2.3-0.5,3.6-0.7c1.2-0.2,2.3-0.3,3.5-0.3c1.1-0.1,2.1-0.1,3.2-0.1c2.3,0,4.6,0.1,6.8,0.5c1.7,0.3,3.5,0.7,5.1,1.5
		c1.3,0.6,2.5,1.5,3.5,2.5c0.8,1.1,1.6,2.2,2,3.5c0.5,1.4,0.7,2.8,0.9,4.2c0.1,1.7,0.2,3.3,0.2,5v20.8h-7.5v-20.8
		c0-1.7-0.1-3.5-0.4-5.2c-0.3-1.2-0.8-2.3-1.7-3.2c-1.1-0.9-2.4-1.5-3.8-1.8c-2.2-0.5-4.6-0.5-7-0.5c-2.5,0-5.2,0.1-7.7,0.6
		c-1.5,0.3-3.2,0.8-4.5,1.8c-0.9,0.6-1.7,1.5-2.1,2.6c-0.4,1.2-0.6,2.4-0.6,3.6v22.7h-7.5V358h7.5v15.5H1560.6z M1619,390.4
		c0,1.8,0.2,3.7,0.7,5.4c0.4,1.4,1.2,2.5,2.3,3.3c1.3,0.8,3,1.2,4.5,1.4c2.4,0.2,4.8,0.3,7.3,0.3c2.2,0,4.4,0,6.6-0.2
		c1.3-0.1,2.7-0.3,4-0.7c0.7-0.3,1.4-0.7,1.8-1.4c0.4-0.7,0.5-1.6,0.5-2.4v-0.8h7.5v0.8c0,1.8-0.3,3.6-1.1,5.2
		c-0.8,1.6-2.1,2.7-3.6,3.6c-1.9,1.1-4.2,1.6-6.3,1.9c-3.1,0.4-6.3,0.5-9.4,0.5c-3.4,0-6.8-0.2-10.1-0.8c-2.5-0.5-5-1.4-7.1-3
		c-1.9-1.5-3.2-3.4-4-5.7c-0.9-2.7-1.2-5.8-1.2-8.6c0-3.3,0.2-6.7,1.2-9.8c0.7-2.4,2-4.7,4-6.4c2-1.8,4.4-2.7,7.1-3.3
		c3.3-0.7,6.8-0.9,10.1-0.9c2.4,0,5.1,0.1,7.5,0.6c1.9,0.4,3.8,0.9,5.5,1.9c1.5,0.7,2.7,1.8,3.8,3.1c0.9,1.2,1.7,2.3,2.2,3.7
		c0.6,1.4,0.9,3,1.2,4.5c0.2,1.8,0.3,3.6,0.3,5.4l-0.6,2.6L1619,390.4L1619,390.4z M1618.9,385h27.7c0-1.5-0.2-3.2-0.7-4.5
		c-0.4-1.2-1.2-2.2-2.2-3c-1.2-0.8-2.5-1.4-3.9-1.7c-2-0.4-4.1-0.5-6.1-0.5c-1.7,0-3.5,0-5.2,0.1c-1.3,0.1-2.6,0.2-3.9,0.5
		c-0.9,0.2-1.9,0.5-2.7,1.1c-0.6,0.4-1.3,0.9-1.8,1.6c-0.5,0.7-0.8,1.8-0.9,2.6C1619.1,382.4,1619,383.7,1618.9,385L1618.9,385z
		 M1702.2,403.8v14.5h-7.5v-48.7h7.5v2.1l0,0c0.8-0.6,1.9-1.2,3-1.5c1.5-0.5,3.2-0.8,4.7-1.2c2.3-0.3,4.7-0.4,7.2-0.4
		c3.4,0,6.8,0.2,10.1,0.8c2.5,0.5,5.1,1.5,7.1,3.2c1.9,1.6,3.3,3.7,4,6.1c0.9,2.8,1.2,6.1,1.2,9.2c0,3.1-0.2,6.3-1.2,9.2
		c-0.7,2.3-2.1,4.4-4,6c-2,1.7-4.5,2.6-7.1,3.2c-3.3,0.7-6.7,0.8-10.1,0.8c-2.3,0-4.8-0.1-7.2-0.5c-1.6-0.3-3.3-0.6-4.7-1.3
		C1704.1,405.1,1703,404.6,1702.2,403.8L1702.2,403.8z M1717.1,375.3c-1.7,0-3.5,0-5.2,0.1c-1.3,0.1-2.6,0.2-3.9,0.6
		c-0.9,0.2-1.9,0.6-2.7,1.3c-0.7,0.5-1.3,1.3-1.7,2.1c-0.5,1.1-0.8,2.3-1.1,3.5c-0.3,1.7-0.3,3.5-0.3,5.2c0,1.7,0.1,3.5,0.3,5.3
		c0.2,1.2,0.5,2.4,1.1,3.5c0.4,0.8,0.9,1.6,1.7,2.1c0.8,0.6,1.7,0.9,2.7,1.3c1.3,0.3,2.6,0.5,3.9,0.5c1.7,0.1,3.5,0.1,5.2,0.1
		c1.9,0,3.9,0,5.8-0.2c1.4-0.1,2.7-0.3,4.1-0.7c0.9-0.3,1.8-0.7,2.5-1.4c0.6-0.6,1.2-1.4,1.5-2.2c0.4-1.1,0.6-2.2,0.7-3.4
		c0.2-1.6,0.2-3.3,0.2-4.8c0-1.6,0-3.3-0.2-4.8c-0.1-1.2-0.3-2.3-0.7-3.4c-0.3-0.8-0.8-1.6-1.5-2.2c-0.7-0.6-1.6-1.1-2.5-1.4
		c-1.3-0.4-2.7-0.6-4-0.7C1721,375.4,1719.1,375.3,1717.1,375.3L1717.1,375.3z M1790.1,403.4c-0.7,0.8-1.7,1.6-2.6,2.1
		c-1.3,0.7-2.8,1.2-4.3,1.4c-2.2,0.4-4.6,0.5-6.8,0.5c-3.2,0-6.4-0.1-9.6-0.5c-2.2-0.3-4.6-0.8-6.6-1.8c-1.6-0.7-3.1-1.8-4-3.3
		c-0.9-1.5-1.3-3.2-1.3-4.8c0-1.6,0.2-3.3,0.6-4.7c0.4-1.3,1.1-2.4,2-3.4c0.9-0.9,2-1.7,3.2-2.1c1.3-0.5,2.7-0.8,4.1-1.2
		c1.6-0.3,3.3-0.4,5-0.4c1.9-0.1,3.7-0.1,5.6-0.1c2.3,0,4.7,0.1,7.1,0.3c1.6,0.2,3.3,0.4,4.7,0.9c0.9,0.3,2.1,0.6,3,1.3l0,0
		c0-1.4-0.1-2.6-0.3-4c-0.1-1.3-0.4-2.6-0.9-3.8c-0.3-0.8-0.8-1.7-1.5-2.3c-0.6-0.6-1.4-1.1-2.2-1.3c-1.1-0.3-2.2-0.5-3.4-0.6
		c-1.5-0.1-3.1-0.1-4.5-0.1c-2.2,0-4.4,0-6.6,0.2c-1.3,0.1-2.7,0.3-4,0.7c-0.6,0.2-1.4,0.6-1.8,1.3c-0.4,0.6-0.5,1.5-0.5,2.2v0.8
		h-7.5v-0.8c0-1.8,0.3-3.5,1.1-5.1c0.8-1.6,2.1-2.6,3.7-3.5c1.9-1.1,4.2-1.6,6.3-1.8c3.1-0.4,6.3-0.5,9.4-0.5c3.1,0,6.3,0.2,9.3,0.9
		c2.4,0.5,4.6,1.6,6.4,3.4c1.8,1.8,3,4,3.6,6.4c0.8,3.2,1.1,6.5,1.1,9.8v17.5h-7.5v-3.7H1790.1z M1777.2,400.9
		c2.1,0,4.3-0.1,6.4-0.3c1.3-0.2,2.7-0.4,4-1.1c0.7-0.3,1.5-0.8,1.9-1.5c0.4-0.6,0.5-1.4,0.5-2.1c0-0.7-0.2-1.4-0.6-2
		c-0.5-0.6-1.5-1.1-2.2-1.4c-1.5-0.5-3.2-0.7-4.6-0.8c-2.4-0.2-5-0.3-7.4-0.3c-2.3,0-4.7,0-7.1,0.1c-1.3,0.1-2.7,0.2-3.9,0.6
		c-0.6,0.2-1.3,0.6-1.6,1.2c-0.3,0.7-0.4,1.7-0.4,2.5s0.1,1.8,0.4,2.6c0.3,0.6,1.1,1.1,1.8,1.4c1.4,0.5,3.1,0.7,4.5,0.8
		C1771.7,400.9,1774.5,400.9,1777.2,400.9L1777.2,400.9z M1819.4,376.2h-7.3v-6.5h7.3v-9.6h7.5v9.6h22.1v6.5h-22.1v16.9
		c0,1.4,0,3,0.4,4.3c0.2,0.7,0.5,1.5,1.2,1.9c0.6,0.4,1.4,0.6,2.2,0.7c1.3,0.1,2.5,0.1,3.9,0.1c1.1,0,2.2,0,3.3-0.1
		c0.7,0,1.6-0.1,2.3-0.3c0.5-0.2,1.1-0.4,1.6-0.8c0.4-0.4,0.7-0.9,1.1-1.6c0.3-0.8,0.5-1.9,0.6-2.8c0.2-1.5,0.2-3,0.2-4.4v-0.8h6.5
		v0.8c0,2.5-0.1,5.3-0.7,7.7c-0.4,1.9-1.3,3.8-2.6,5.2c-1.4,1.4-3.1,2.3-5,2.8c-2.3,0.6-4.8,0.7-7.2,0.7c-2.3,0-4.6-0.1-7-0.6
		c-1.7-0.4-3.4-1.1-4.7-2.2c-1.4-1.2-2.2-2.6-2.6-4.3c-0.6-2-0.7-4.2-0.7-6.3v-16.8H1819.4z M1868.5,369.8h7.5v36.9h-7.5V369.8
		L1868.5,369.8z M1875.9,365.5h-7.5V358h7.5V365.5L1875.9,365.5z M1901,390.4c0,1.8,0.2,3.7,0.7,5.4c0.4,1.4,1.2,2.5,2.3,3.3
		c1.3,0.8,3,1.2,4.5,1.4c2.4,0.2,4.8,0.3,7.4,0.3c2.2,0,4.4,0,6.6-0.2c1.3-0.1,2.7-0.3,4-0.7c0.7-0.3,1.4-0.7,1.8-1.4
		c0.4-0.7,0.5-1.6,0.5-2.4v-0.8h7.5v0.8c0,1.8-0.3,3.6-1.1,5.2c-0.8,1.6-2.1,2.7-3.6,3.6c-1.9,1.1-4.2,1.6-6.3,1.9
		c-3.1,0.4-6.3,0.5-9.4,0.5c-3.4,0-6.8-0.2-10.1-0.8c-2.5-0.5-5-1.4-7.1-3c-1.9-1.5-3.2-3.4-4-5.7c-0.9-2.7-1.2-5.8-1.2-8.6
		c0-3.3,0.2-6.7,1.2-9.8c0.7-2.4,2-4.7,4-6.4c2-1.8,4.4-2.7,7.1-3.3c3.3-0.7,6.8-0.9,10.1-0.9c2.4,0,5.1,0.1,7.5,0.6
		c1.9,0.4,3.8,0.9,5.5,1.9c1.5,0.7,2.7,1.8,3.8,3.1c0.9,1.2,1.7,2.3,2.2,3.7c0.6,1.4,0.9,3,1.2,4.5c0.2,1.8,0.3,3.6,0.3,5.4
		l-0.6,2.6L1901,390.4L1901,390.4z M1900.9,385h27.7c0-1.5-0.2-3.2-0.7-4.5c-0.4-1.2-1.2-2.2-2.2-3c-1.2-0.8-2.5-1.4-3.9-1.7
		c-2-0.4-4.1-0.5-6.1-0.5c-1.7,0-3.5,0-5.2,0.1c-1.3,0.1-2.6,0.2-3.9,0.5c-0.9,0.2-1.9,0.5-2.7,1.1c-0.6,0.4-1.3,0.9-1.8,1.6
		c-0.5,0.7-0.8,1.8-0.9,2.6C1901.1,382.4,1901,383.7,1900.9,385L1900.9,385z M1960.2,373.7c0.1-0.2,0.3-0.3,0.5-0.4
		c0.8-0.8,1.8-1.5,2.8-2s2.2-0.9,3.4-1.3c1.2-0.3,2.4-0.5,3.6-0.7c1.2-0.2,2.3-0.3,3.5-0.3c1.1-0.1,2-0.1,3.1-0.1
		c2.3,0,4.6,0.1,6.8,0.5c1.7,0.3,3.5,0.7,5.1,1.5c1.3,0.6,2.5,1.5,3.5,2.5c0.8,1.1,1.6,2.2,2,3.5c0.5,1.4,0.7,2.8,0.9,4.3
		c0.2,1.7,0.2,3.4,0.2,5.1v20.4h-7.5v-20.4c0-1.8-0.1-3.6-0.5-5.4c-0.3-1.3-0.8-2.3-1.7-3.2c-1.1-0.9-2.4-1.5-3.8-1.8
		c-2.2-0.5-4.6-0.6-7-0.6c-2.5,0-5.2,0.1-7.7,0.6c-1.6,0.3-3.3,0.9-4.5,1.9c-0.9,0.7-1.7,1.6-2.1,2.7c-0.4,1.2-0.6,2.4-0.6,3.7v22.3
		h-7.5v-36.9h7.5L1960.2,373.7L1960.2,373.7z M2017.3,376.2h-7.3v-6.5h7.3v-9.6h7.5v9.6h22.1v6.5h-22.1v16.9c0,1.4,0,3,0.4,4.3
		c0.2,0.7,0.5,1.5,1.2,1.9c0.6,0.4,1.4,0.6,2.2,0.7c1.3,0.1,2.6,0.1,3.9,0.1c1.1,0,2.2,0,3.3-0.1c0.7,0,1.6-0.1,2.3-0.3
		c0.5-0.2,1.1-0.4,1.6-0.8c0.4-0.4,0.7-0.9,1.1-1.6c0.3-0.8,0.5-1.9,0.6-2.8c0.2-1.5,0.2-3,0.2-4.4v-0.8h6.5v0.8
		c0,2.5-0.1,5.3-0.7,7.7c-0.4,1.9-1.3,3.8-2.6,5.2c-1.4,1.4-3.1,2.3-5,2.8c-2.3,0.6-4.8,0.7-7.2,0.7c-2.3,0-4.6-0.1-7-0.6
		c-1.7-0.4-3.4-1.1-4.7-2.2c-1.3-1.2-2.2-2.6-2.6-4.3c-0.6-2-0.7-4.2-0.7-6.3v-16.8H2017.3z"/>
</g>
</svg>
