<?xml version="1.0" encoding="utf-8"?>
<!-- Generator: Adobe Illustrator 18.0.0, SVG Export Plug-In . SVG Version: 6.00 Build 0)  -->
<!DOCTYPE svg PUBLIC "-//W3C//DTD SVG 1.1//EN" "http://www.w3.org/Graphics/SVG/1.1/DTD/svg11.dtd">
<svg version="1.1" id="Layer_1" xmlns="http://www.w3.org/2000/svg" xmlns:xlink="http://www.w3.org/1999/xlink" x="0px" y="0px"
	 viewBox="0 0 485.3 103.5" enable-background="new 0 0 485.3 103.5" xml:space="preserve">
<path fill-rule="evenodd" clip-rule="evenodd" fill="#0297A7" d="M19.4,0c5.2,0,9.3,4.2,9.3,9.3c0,5.2-4.2,9.3-9.3,9.3
	c-5.2,0-9.3-4.2-9.3-9.3C10.1,4.2,14.2,0,19.4,0L19.4,0z M50.3,102.5c-9.3-2.3-21.1-6.4-31.1-14.4C8.4,79.5,0,66.8,0,49.4
	c0-18.6,13.3-27.9,27-28.2c12.4-0.3,25.1,6.5,30.8,19.7c-12.1-9.6-22-10.2-29-6.4c-7.4,4.1-11.3,12.9-11.1,20.1
	c0.2,10,3.7,17.3,9.6,23.2c5.7,5.6,13.5,9.7,22.5,13.5c8.6,3.6,9.5,3.6,17.6-1.9c3.2-2.2,6.8-4.9,10.6-8.7
	c3.7-3.6,7.7-8.1,11.8-13.9c-0.9,4.1-3.5,9.5-7.2,15c-3.9,5.8-9.1,11.8-15.1,16.6C60.5,104,58.2,104.4,50.3,102.5z"/>
<path fill-rule="evenodd" clip-rule="evenodd" fill="#F1592B" d="M90.6,14.7c3.9,0,7,3.1,7,7c0,3.9-3.1,7-7,7c-3.9,0-7-3.1-7-7
	C83.6,17.8,86.8,14.7,90.6,14.7L90.6,14.7z M64.5,87.3c7-4.7,14.7-11,20.2-18.4c5.2-7,8.8-15.2,8.6-25c-0.2-10.3-6.5-14.6-14.1-14.1
	c-8.2,0.6-18.2,6.9-22.8,18.2c8.8-6,15.9-8.6,20.7-8.6c4.6,0.1,7.3,2.5,7.5,7c0.2,4.6-1.5,10.3-4.7,15.9c-3.4,5.9-8.6,12-15.5,17
	c-5,3.7-6.6,4.1-12.4,2.3c-7.4-2.3-15.1-5.1-24.5-12.4c7,10.3,15.6,14.7,25.6,19.2C58.7,91.1,59.1,90.9,64.5,87.3z"/>
<path fill-rule="evenodd" clip-rule="evenodd" fill="#F1592B" d="M40.8,59.9l3.3-12.3l3.6,12.8l4.1-17.9l3.6,20l0.7-3.1h21
	c-0.2,0.4-0.4,0.7-0.6,1c-0.4,0.6-0.8,1.3-1.2,1.9H58.4l-3.3,15.3l-3.7-20.4l-3.5,15.2l-3.8-13.6l-1.1,4H22.9
	c-0.3-1-0.5-1.9-0.7-2.9H40.8z"/>
<path fill-rule="evenodd" clip-rule="evenodd" fill="#2E3C3E" d="M454.7,38.9v7.8h28.8v8.1h-28.8v8.5h30.4v8h-39.5V30.9h39v8H454.7
	L454.7,38.9z M423.6,39.3h-28.1v-8.4h43.2l0,7.3l-28.9,24.6h30.3v8.4h-45.3v-6.9L423.6,39.3L423.6,39.3z M388.7,71.2H380V30.9h8.7
	V71.2L388.7,71.2z M345.8,63.2h28.1v8h-37V30.9h9V63.2L345.8,63.2z M312.6,55.3l-9-15.6l-8.3,15.6H312.6L312.6,55.3z M317.2,63.6
	h-26.3l-4.5,7.7h-10l22.7-40.3h9.2l23.4,40.3l-9.6,0L317.2,63.6L317.2,63.6z M231.3,41.4v29.8H223V30.9h10.1l29.3,29.9V30.9h8.7
	v40.3h-10.3L231.3,41.4L231.3,41.4z M208.5,57.2h-18.5v-8.3h27.2v9.5c0,1.5-0.2,3-0.5,4.5c-0.4,1.4-1,2.7-2,3.9
	c-1.6,2-3.8,3.2-6.3,3.8c-1.9,0.5-4,0.6-6,0.6c-0.4,0-0.7,0-1.1,0c-0.3,0-0.6,0-0.9,0H189c-3,0-6.1-0.2-9.1-0.8
	c-2-0.4-4.4-1.2-5.9-2.7c-1.5-1.5-2.7-3.3-3.3-5.4c-0.5-1.8-0.6-4-0.6-5.9V45.6c0-1.9,0.1-3.9,0.6-5.7c0.7-2.5,1.9-4.6,3.9-6.2
	c2.1-1.7,5.4-2.3,8-2.5c2.7-0.3,5.7-0.3,8.4-0.3h4c2.4,0,4.9,0,7.3,0.1c1.8,0.1,3.6,0.3,5.4,0.8c1.8,0.5,3.5,1.2,5.1,2.4
	c1.5,1.1,2.5,2.7,3.2,4.5c0.5,1.3,0.8,2.7,0.8,4v1.9h-9v-1.9c0-0.8-0.3-1.3-0.9-1.7c-0.8-0.6-2.3-0.9-3.3-1.1
	c-1.8-0.4-3.6-0.5-5.5-0.5h-9.8c-2,0-4.2,0.1-6.2,0.4c-0.5,0.1-1.9,0.4-2.3,0.8c-0.7,0.8-1,2.1-1.2,3.1c-0.2,1.1-0.3,2.3-0.3,3.4
	v6.6c0,1.6,0,3.5,0.2,5.1c0.1,0.6,0.3,2.1,0.8,2.5c0.7,0.6,1.7,1,2.7,1.2c1.5,0.3,3.1,0.4,4.6,0.4h13.7c1.4,0,3.1,0,4.5-0.1
	c0.8-0.1,2-0.3,2.7-0.8c0.4-0.3,0.6-0.8,0.7-1.2c0.2-1,0.3-2.1,0.3-3.2V57.2L208.5,57.2z M164.2,71.2h-8.7V30.9h8.7V71.2L164.2,71.2
	z M114.8,45.3c0.2,0.2,0.5,0.4,0.7,0.6c0.6,0.5,1.2,0.8,2,0.9c0.9,0.1,2.1,0.1,3,0.1h16.5c1.5,0,2.9,0.2,4.3,0.5
	c1.3,0.3,2.6,0.7,3.8,1.4c1.9,1.2,3.3,2.9,4.2,5c0.6,1.5,0.9,3.1,0.9,4.8v1c0,1.3-0.1,2.8-0.4,4.1c-0.5,1.8-1.5,3.3-2.9,4.5
	c-1.4,1.1-3.2,1.8-4.9,2.3c-2.6,0.6-5.6,0.7-8.2,0.7c-0.5,0-0.9,0-1.4,0c-0.4,0-0.9,0-1.3,0h-8.2c-2.4,0-5-0.1-7.3-0.6
	c-2.1-0.5-4.2-1.3-5.9-2.7c-1.2-1-1.8-2.3-2.2-3.7c-0.3-1.1-0.4-2.1-0.4-3.2c0-0.3,0-0.5,0-0.8v-1.9h7.9v2c0,0.6,0.1,1.2,0.6,1.7
	c0.4,0.4,2.4,0.8,2.9,0.9c2.5,0.4,5.1,0.4,7.6,0.4h2.3c2.1,0,4.2,0,6.2-0.1c1.3-0.1,2.6-0.2,3.9-0.4c0.6-0.1,1.8-0.4,2.2-0.9
	c0.3-0.3,0.7-0.7,0.9-1c0.1-0.2,0.2-0.5,0.2-0.8v-0.7c0-1.3-0.4-2.3-1.4-3.1c-0.5-0.3-1-0.6-1.6-0.7c-0.8-0.2-1.6-0.2-2.3-0.2h-14.2
	c-1.6,0-3.3-0.2-4.9-0.4c-1.4-0.2-3-0.5-4.3-1.1c-2.2-0.9-4-2.3-5.1-4.4c-0.9-1.6-1.2-3.5-1.2-5.4V43c0-2,0.3-4.2,1.2-6
	c1.1-2.1,3-3.5,5.1-4.5c1.8-0.9,4.5-1.2,6.5-1.3c2-0.2,4-0.2,6-0.2h5.2c2.5,0,5.2,0,7.6,0.3c2.7,0.4,5.8,1.3,7.7,3.5
	c0.9,1.1,1.7,2.4,2.1,3.8c0.4,1.4,0.6,2.9,0.6,4.4v1.6h-8.4v-2c0-0.4-0.1-0.7-0.2-1c-0.2-0.4-0.4-0.8-0.7-1.1
	c-0.4-0.5-2.1-0.9-2.6-1c-2-0.4-4-0.5-6-0.5H124c-1.7,0-3.3,0.1-5,0.3c-0.6,0.1-2.9,0.5-3.4,1c-0.7,0.8-0.9,1.8-0.9,2.8v1.3
	C114.7,44.5,114.7,45,114.8,45.3z"/>
<path fill-rule="evenodd" clip-rule="evenodd" fill="#6B7173" d="M109.8,84.6c0,0.4,0.1,0.9,0.2,1.3c0.1,0.3,0.3,0.6,0.5,0.8
	c0.3,0.2,0.7,0.3,1.1,0.3c0.6,0.1,1.2,0.1,1.7,0.1c0.5,0,1.1,0,1.6-0.1c0.3,0,0.7-0.1,0.9-0.2c0.2-0.1,0.3-0.2,0.4-0.3
	c0.1-0.2,0.1-0.4,0.1-0.6v-0.2h1.8v0.2c0,0.4-0.1,0.9-0.3,1.2c-0.2,0.4-0.5,0.7-0.9,0.9c-0.5,0.2-1,0.4-1.5,0.4
	c-0.7,0.1-1.5,0.1-2.2,0.1c-0.8,0-1.6,0-2.4-0.2c-0.6-0.1-1.2-0.3-1.7-0.7c-0.5-0.4-0.8-0.8-1-1.4c-0.2-0.6-0.3-1.4-0.3-2.1
	c0-0.8,0.1-1.6,0.3-2.3c0.2-0.6,0.5-1.1,0.9-1.5c0.5-0.4,1.1-0.7,1.7-0.8c0.8-0.2,1.6-0.2,2.4-0.2c0.6,0,1.2,0,1.8,0.1
	c0.4,0.1,0.9,0.2,1.3,0.4c0.3,0.2,0.7,0.4,0.9,0.7c0.2,0.3,0.4,0.6,0.5,0.9c0.1,0.3,0.2,0.7,0.3,1.1c0,0.4,0.1,0.8,0.1,1.3l-0.2,0.6
	H109.8L109.8,84.6z M109.8,83.3h6.6c0-0.4,0-0.8-0.2-1.1c-0.1-0.3-0.3-0.5-0.5-0.7c-0.3-0.2-0.6-0.3-0.9-0.4c-0.5-0.1-1-0.1-1.5-0.1
	c-0.4,0-0.8,0-1.2,0c-0.3,0-0.6,0.1-0.9,0.1c-0.2,0.1-0.4,0.1-0.6,0.3c-0.2,0.1-0.3,0.2-0.4,0.4c-0.1,0.2-0.2,0.4-0.2,0.6
	C109.8,82.7,109.8,83,109.8,83.3L109.8,83.3z M123.9,80.6c0,0,0.1-0.1,0.1-0.1c0.2-0.2,0.4-0.3,0.7-0.5c0.3-0.1,0.5-0.2,0.8-0.3
	c0.3-0.1,0.6-0.1,0.8-0.2c0.3,0,0.5-0.1,0.8-0.1c0.2,0,0.5,0,0.7,0c0.5,0,1.1,0,1.6,0.1c0.4,0.1,0.8,0.2,1.2,0.4
	c0.3,0.1,0.6,0.3,0.8,0.6c0.2,0.2,0.4,0.5,0.5,0.8c0.1,0.3,0.2,0.7,0.2,1c0,0.4,0.1,0.8,0.1,1.2l0,4.8h-1.8v-4.8
	c0-0.4,0-0.9-0.1-1.3c-0.1-0.3-0.2-0.6-0.4-0.8c-0.2-0.2-0.6-0.4-0.9-0.4c-0.5-0.1-1.1-0.1-1.6-0.1c-0.6,0-1.2,0-1.8,0.2
	c-0.4,0.1-0.8,0.2-1.1,0.4c-0.2,0.2-0.4,0.4-0.5,0.6c-0.1,0.3-0.1,0.6-0.1,0.9v5.3h-1.8v-8.8h1.8V80.6L123.9,80.6z M144.5,87.6
	c-0.2,0.2-0.4,0.4-0.6,0.5c-0.3,0.2-0.7,0.3-1,0.3c-0.5,0.1-1.1,0.1-1.6,0.1c-0.8,0-1.5,0-2.3-0.1c-0.5-0.1-1.1-0.2-1.6-0.4
	c-0.4-0.2-0.7-0.4-0.9-0.8c-0.2-0.3-0.3-0.7-0.3-1.1c0-0.4,0-0.8,0.2-1.1c0.1-0.3,0.3-0.6,0.5-0.8c0.2-0.2,0.5-0.4,0.8-0.5
	c0.3-0.1,0.6-0.2,1-0.3c0.4-0.1,0.8-0.1,1.2-0.1c0.4,0,0.9,0,1.3,0c0.6,0,1.1,0,1.7,0.1c0.4,0,0.8,0.1,1.1,0.2
	c0.2,0.1,0.5,0.2,0.7,0.3c0,0,0,0,0,0c0-0.3,0-0.6-0.1-0.9c0-0.3-0.1-0.6-0.2-0.9c-0.1-0.2-0.2-0.4-0.4-0.5
	c-0.2-0.1-0.3-0.2-0.5-0.3c-0.3-0.1-0.5-0.1-0.8-0.1c-0.4,0-0.7,0-1.1,0c-0.5,0-1.1,0-1.6,0c-0.3,0-0.7,0.1-1,0.2
	c-0.2,0.1-0.3,0.2-0.4,0.3c-0.1,0.2-0.1,0.4-0.1,0.5v0.2h-1.8V82c0-0.4,0.1-0.8,0.3-1.2c0.2-0.4,0.5-0.6,0.9-0.8
	c0.5-0.2,1-0.4,1.5-0.4c0.7-0.1,1.5-0.1,2.2-0.1c0.7,0,1.5,0,2.2,0.2c0.6,0.1,1.1,0.4,1.5,0.8c0.4,0.4,0.7,0.9,0.8,1.5
	c0.2,0.7,0.2,1.6,0.2,2.3v4.1h-1.8V87.6L144.5,87.6z M141.4,87c0.5,0,1,0,1.5-0.1c0.3,0,0.7-0.1,0.9-0.2c0.2-0.1,0.4-0.2,0.5-0.4
	c0.1-0.2,0.1-0.3,0.1-0.5c0-0.2,0-0.3-0.1-0.5c-0.1-0.2-0.3-0.3-0.5-0.3c-0.3-0.1-0.7-0.2-1.1-0.2c-0.6-0.1-1.2-0.1-1.7-0.1
	c-0.6,0-1.1,0-1.7,0c-0.3,0-0.7,0.1-0.9,0.2c-0.1,0.1-0.3,0.1-0.4,0.3c-0.1,0.2-0.1,0.4-0.1,0.6c0,0.2,0,0.4,0.1,0.6
	c0.1,0.2,0.3,0.3,0.4,0.3c0.3,0.1,0.7,0.2,1.1,0.2C140.1,87,140.8,87,141.4,87L141.4,87z M152,87.6v0.8h-1.8V76.9h1.8v3.3
	c0,0,0,0,0,0c0.2-0.2,0.5-0.3,0.7-0.4c0.4-0.1,0.8-0.2,1.1-0.3c0.6-0.1,1.1-0.1,1.7-0.1c0.8,0,1.6,0,2.4,0.2
	c0.6,0.1,1.2,0.4,1.7,0.8c0.5,0.4,0.8,0.9,0.9,1.4c0.2,0.7,0.3,1.5,0.3,2.2c0,0.7-0.1,1.5-0.3,2.2c-0.2,0.6-0.5,1.1-0.9,1.4
	c-0.5,0.4-1.1,0.6-1.7,0.7c-0.8,0.2-1.6,0.2-2.4,0.2c-0.6,0-1.2,0-1.7-0.1c-0.4-0.1-0.8-0.2-1.1-0.3C152.4,88,152.1,87.8,152,87.6
	L152,87.6z M155.5,87c0.5,0,0.9,0,1.4,0c0.3,0,0.7-0.1,1-0.2c0.2-0.1,0.4-0.2,0.6-0.3c0.2-0.1,0.3-0.3,0.3-0.5
	c0.1-0.3,0.1-0.5,0.2-0.8c0-0.4,0-0.8,0-1.2c0-0.4,0-0.8,0-1.2c0-0.3-0.1-0.6-0.2-0.8c-0.1-0.2-0.2-0.4-0.4-0.5
	c-0.2-0.2-0.4-0.3-0.6-0.3c-0.3-0.1-0.6-0.1-1-0.2c-0.5,0-0.9,0-1.4,0c-0.4,0-0.8,0-1.2,0c-0.3,0-0.6,0.1-0.9,0.1
	c-0.2,0.1-0.4,0.2-0.6,0.3c-0.2,0.1-0.3,0.3-0.4,0.5c-0.1,0.3-0.2,0.6-0.2,0.8c-0.1,0.4-0.1,0.8-0.1,1.2c0,0.4,0,0.8,0.1,1.2
	c0,0.3,0.1,0.6,0.2,0.8c0.1,0.2,0.2,0.4,0.4,0.5c0.2,0.1,0.4,0.2,0.6,0.3c0.3,0.1,0.6,0.1,0.9,0.1C154.7,87,155.1,87,155.5,87
	L155.5,87z M164.9,76.9h1.8v11.5h-1.8V76.9L164.9,76.9z M171.6,79.7h1.8v8.8h-1.8V79.7L171.6,79.7z M173.3,78.6h-1.8v-1.8h1.8V78.6
	L173.3,78.6z M179.5,80.6c0,0,0.1-0.1,0.1-0.1c0.2-0.2,0.4-0.3,0.7-0.5c0.3-0.1,0.5-0.2,0.8-0.3c0.3-0.1,0.6-0.1,0.9-0.2
	c0.3,0,0.5-0.1,0.8-0.1c0.2,0,0.5,0,0.7,0c0.5,0,1.1,0,1.6,0.1c0.4,0.1,0.8,0.2,1.2,0.4c0.3,0.1,0.6,0.3,0.8,0.6
	c0.2,0.2,0.4,0.5,0.5,0.8c0.1,0.3,0.2,0.7,0.2,1c0,0.4,0.1,0.8,0.1,1.2l0,4.8h-1.8v-4.8c0-0.4,0-0.9-0.1-1.3
	c-0.1-0.3-0.2-0.6-0.4-0.8c-0.2-0.2-0.6-0.4-0.9-0.4c-0.5-0.1-1.1-0.1-1.6-0.1c-0.6,0-1.2,0-1.8,0.2c-0.4,0.1-0.8,0.2-1.1,0.4
	c-0.2,0.2-0.4,0.4-0.5,0.6c-0.1,0.3-0.1,0.6-0.1,0.9v5.3h-1.8v-8.8h1.8V80.6L179.5,80.6z M200.4,87.8c-0.2,0.2-0.5,0.3-0.7,0.4
	c-0.4,0.1-0.8,0.2-1.1,0.3c-0.6,0.1-1.1,0.1-1.7,0.1c-0.8,0-1.6,0-2.4-0.2c-0.6-0.1-1.2-0.4-1.7-0.7c-0.5-0.4-0.8-0.9-0.9-1.4
	c-0.2-0.7-0.3-1.5-0.3-2.2c0-0.7,0.1-1.5,0.3-2.2c0.2-0.6,0.5-1.1,0.9-1.4c0.5-0.4,1.1-0.6,1.7-0.7c0.8-0.2,1.6-0.2,2.4-0.2
	c0.6,0,1.1,0,1.7,0.1c0.4,0.1,0.8,0.1,1.1,0.3c0.2,0.1,0.5,0.2,0.7,0.4c0,0,0,0,0,0v-0.5h1.8v7.4c0,0.7-0.1,1.4-0.3,2.1
	c-0.2,0.5-0.5,1-0.9,1.4c-0.5,0.4-1.1,0.6-1.7,0.7c-0.8,0.2-1.6,0.2-2.4,0.2c-0.7,0-1.5,0-2.2-0.1c-0.5-0.1-1-0.2-1.5-0.4
	c-0.3-0.2-0.7-0.4-0.9-0.7c-0.2-0.3-0.3-0.7-0.3-1.1V89h1.8v0.2c0,0.1,0,0.2,0.1,0.3c0.1,0.1,0.3,0.2,0.4,0.2c0.3,0.1,0.6,0.1,1,0.1
	c0.5,0,1.1,0,1.6,0c0.6,0,1.2,0,1.7-0.1c0.4,0,0.8-0.1,1.1-0.3c0.3-0.2,0.4-0.4,0.5-0.8C200.3,88.5,200.4,88.1,200.4,87.8
	L200.4,87.8z M196.9,81c-0.5,0-0.9,0-1.4,0.1c-0.3,0-0.7,0.1-1,0.2c-0.2,0.1-0.4,0.2-0.6,0.3c-0.2,0.1-0.3,0.3-0.3,0.5
	c-0.1,0.3-0.1,0.5-0.2,0.8c0,0.4,0,0.8,0,1.2c0,0.4,0,0.8,0,1.2c0,0.3,0.1,0.6,0.2,0.8c0.1,0.2,0.2,0.4,0.3,0.5
	c0.2,0.2,0.4,0.3,0.6,0.3c0.3,0.1,0.6,0.1,1,0.2c0.5,0,0.9,0.1,1.4,0.1c0.4,0,0.8,0,1.2,0c0.3,0,0.6-0.1,0.9-0.1
	c0.2-0.1,0.4-0.2,0.6-0.3c0.2-0.1,0.3-0.3,0.4-0.5c0.1-0.3,0.2-0.6,0.2-0.8c0.1-0.4,0.1-0.8,0.1-1.3c0-0.4,0-0.9-0.1-1.3
	c0-0.3-0.1-0.6-0.2-0.8c-0.1-0.2-0.2-0.4-0.4-0.5c-0.2-0.1-0.4-0.2-0.6-0.3c-0.3-0.1-0.6-0.1-0.9-0.1C197.7,81,197.3,81,196.9,81
	L196.9,81z M213.1,81.2h-1.7v-1.5h1.7v-2.3h1.8v2.3h5.2v1.5h-5.2v4c0,0.3,0,0.7,0.1,1c0,0.2,0.1,0.3,0.3,0.4
	c0.1,0.1,0.3,0.2,0.5,0.2c0.3,0,0.6,0,0.9,0c0.3,0,0.5,0,0.8,0c0.2,0,0.4,0,0.6-0.1c0.1,0,0.3-0.1,0.4-0.2c0.1-0.1,0.2-0.2,0.2-0.4
	c0.1-0.2,0.1-0.4,0.2-0.7c0-0.3,0-0.7,0-1v-0.2h1.5v0.2c0,0.6,0,1.2-0.2,1.8c-0.1,0.5-0.3,0.9-0.6,1.2c-0.3,0.3-0.7,0.5-1.2,0.7
	c-0.5,0.1-1.1,0.2-1.7,0.2c-0.5,0-1.1,0-1.6-0.1c-0.4-0.1-0.8-0.3-1.1-0.5c-0.3-0.3-0.5-0.6-0.6-1c-0.1-0.5-0.2-1-0.2-1.5V81.2
	L213.1,81.2z M226,80.5C226,80.5,226.1,80.5,226,80.5c0.3-0.3,0.5-0.4,0.8-0.5c0.3-0.1,0.5-0.2,0.8-0.3c0.3-0.1,0.6-0.1,0.8-0.2
	c0.3,0,0.6-0.1,0.8-0.1c0.3,0,0.5,0,0.8,0c0.5,0,1.1,0,1.6,0.1c0.4,0.1,0.8,0.2,1.2,0.4c0.3,0.1,0.6,0.3,0.8,0.6
	c0.2,0.2,0.4,0.5,0.5,0.8c0.1,0.3,0.2,0.7,0.2,1c0,0.4,0.1,0.8,0.1,1.2l0,4.9h-1.8v-4.9c0-0.4,0-0.8-0.1-1.2
	c-0.1-0.3-0.2-0.5-0.4-0.7c-0.2-0.2-0.6-0.3-0.9-0.4c-0.5-0.1-1.1-0.1-1.6-0.1c-0.6,0-1.2,0-1.8,0.2c-0.4,0.1-0.8,0.2-1.1,0.4
	c-0.2,0.2-0.4,0.4-0.5,0.6c-0.1,0.3-0.1,0.6-0.1,0.9v5.4h-1.8V76.9h1.8V80.5L226,80.5z M239.9,84.6c0,0.4,0.1,0.9,0.2,1.3
	c0.1,0.3,0.3,0.6,0.5,0.8c0.3,0.2,0.7,0.3,1.1,0.3c0.6,0.1,1.2,0.1,1.7,0.1c0.5,0,1.1,0,1.6-0.1c0.3,0,0.7-0.1,0.9-0.2
	c0.2-0.1,0.3-0.2,0.4-0.3c0.1-0.2,0.1-0.4,0.1-0.6v-0.2h1.8v0.2c0,0.4-0.1,0.9-0.3,1.2c-0.2,0.4-0.5,0.7-0.9,0.9
	c-0.5,0.2-1,0.4-1.5,0.4c-0.7,0.1-1.5,0.1-2.2,0.1c-0.8,0-1.6,0-2.4-0.2c-0.6-0.1-1.2-0.3-1.7-0.7c-0.5-0.4-0.8-0.8-1-1.4
	c-0.2-0.6-0.3-1.4-0.3-2.1c0-0.8,0.1-1.6,0.3-2.3c0.2-0.6,0.5-1.1,0.9-1.5c0.5-0.4,1.1-0.7,1.7-0.8c0.8-0.2,1.6-0.2,2.4-0.2
	c0.6,0,1.2,0,1.8,0.1c0.4,0.1,0.9,0.2,1.3,0.4c0.3,0.2,0.7,0.4,0.9,0.7c0.2,0.3,0.4,0.6,0.5,0.9c0.1,0.3,0.2,0.7,0.3,1.1
	c0,0.4,0.1,0.8,0.1,1.3l-0.2,0.6H239.9L239.9,84.6z M239.9,83.3h6.6c0-0.4,0-0.8-0.2-1.1c-0.1-0.3-0.3-0.5-0.5-0.7
	c-0.3-0.2-0.6-0.3-0.9-0.4c-0.5-0.1-1-0.1-1.5-0.1c-0.4,0-0.8,0-1.2,0c-0.3,0-0.6,0.1-0.9,0.1c-0.2,0.1-0.4,0.1-0.6,0.3
	c-0.2,0.1-0.3,0.2-0.4,0.4c-0.1,0.2-0.2,0.4-0.2,0.6C239.9,82.7,239.9,83,239.9,83.3L239.9,83.3z M263.1,86.9l3.6-7.1l2.1,0
	l-4.6,8.7h-2.3l-4.6-8.7l2.2-0.1L263.1,86.9L263.1,86.9z M271.2,83.9c0-0.7,0.1-1.5,0.3-2.2c0.2-0.6,0.5-1,1-1.4
	c0.5-0.4,1.1-0.6,1.7-0.7c0.8-0.2,1.6-0.2,2.4-0.2c0.8,0,1.6,0,2.4,0.2c0.6,0.1,1.2,0.3,1.7,0.7c0.5,0.4,0.8,0.9,1,1.4
	c0.2,0.7,0.3,1.5,0.3,2.2c0,0.7-0.1,1.5-0.3,2.2c-0.2,0.6-0.5,1.1-0.9,1.5c-0.5,0.4-1.1,0.6-1.7,0.8c-0.8,0.2-1.6,0.2-2.4,0.2
	c-0.8,0-1.6,0-2.4-0.2c-0.6-0.1-1.2-0.4-1.7-0.8c-0.5-0.4-0.8-0.9-0.9-1.5C271.3,85.5,271.2,84.7,271.2,83.9L271.2,83.9z M273,83.9
	c0,0.4,0,0.8,0.1,1.2c0,0.3,0.1,0.6,0.2,0.8c0.1,0.2,0.2,0.4,0.3,0.5c0.2,0.2,0.4,0.3,0.6,0.3c0.3,0.1,0.6,0.2,1,0.2
	c0.5,0,0.9,0,1.4,0c0.4,0,0.8,0,1.2,0c0.3,0,0.6-0.1,0.9-0.1c0.2-0.1,0.4-0.2,0.6-0.3c0.2-0.1,0.3-0.3,0.4-0.5
	c0.1-0.3,0.2-0.6,0.2-0.8c0.1-0.4,0.1-0.8,0.1-1.3c0-0.4,0-0.8-0.1-1.2c0-0.3-0.1-0.6-0.2-0.8c-0.1-0.2-0.2-0.4-0.4-0.5
	c-0.2-0.1-0.4-0.2-0.6-0.3c-0.3-0.1-0.6-0.1-0.9-0.1c-0.4,0-0.8,0-1.2,0c-0.4,0-0.8,0-1.2,0c-0.3,0-0.6,0-0.9,0.1
	c-0.2,0.1-0.4,0.1-0.6,0.3c-0.2,0.1-0.3,0.3-0.4,0.5c-0.1,0.3-0.2,0.5-0.2,0.8C273,83.1,273,83.5,273,83.9L273,83.9z M286,79.7h1.8
	v8.8H286V79.7L286,79.7z M287.8,78.6H286v-1.8h1.8V78.6L287.8,78.6z M291.9,84c0-0.5,0-1,0.1-1.6c0.1-0.4,0.2-0.8,0.3-1.2
	c0.2-0.3,0.4-0.6,0.6-0.9c0.3-0.3,0.6-0.4,1-0.6c0.4-0.2,0.9-0.2,1.4-0.3c0.6-0.1,1.2-0.1,1.9-0.1c0.8,0,1.6,0,2.3,0.2
	c0.5,0.1,1.1,0.3,1.5,0.6c0.4,0.2,0.6,0.6,0.8,1c0.2,0.4,0.2,0.9,0.2,1.4v0.2h-1.8v-0.2c0-0.2,0-0.3,0-0.5c0-0.1,0-0.2-0.1-0.3
	c-0.1-0.1-0.1-0.2-0.2-0.3c-0.1-0.1-0.3-0.2-0.5-0.2c-0.3-0.1-0.6-0.1-0.9-0.1c-0.4,0-0.9,0-1.4,0c-0.5,0-1,0-1.5,0.1
	c-0.3,0-0.7,0.1-1,0.2c-0.2,0.1-0.4,0.2-0.6,0.3c-0.1,0.1-0.2,0.3-0.3,0.5c-0.1,0.3-0.1,0.5-0.1,0.8c0,0.4,0,0.7,0,1.1
	c0,0.4,0,0.7,0,1.1c0,0.3,0,0.5,0.1,0.8c0.1,0.2,0.1,0.4,0.3,0.5c0.1,0.2,0.4,0.3,0.6,0.3c0.3,0.1,0.7,0.2,1,0.2
	c0.5,0.1,1,0.1,1.5,0.1c0.4,0,0.9,0,1.3-0.1c0.3,0,0.6-0.1,0.9-0.2c0.2,0,0.4-0.1,0.5-0.2c0.1-0.1,0.2-0.2,0.2-0.3
	c0.1-0.1,0.1-0.2,0.1-0.4c0-0.2,0-0.3,0-0.5v-0.2h1.8v0.2c0,0.5-0.1,0.9-0.2,1.4c-0.2,0.4-0.4,0.8-0.8,1c-0.4,0.3-1,0.5-1.5,0.6
	c-0.8,0.1-1.6,0.2-2.3,0.2c-0.6,0-1.2,0-1.9-0.1c-0.5-0.1-1-0.1-1.4-0.3c-0.4-0.1-0.7-0.3-1-0.6c-0.3-0.2-0.5-0.5-0.6-0.9
	c-0.2-0.4-0.3-0.8-0.3-1.2C291.9,85,291.9,84.5,291.9,84L291.9,84z M307.5,84.6c0,0.4,0,0.9,0.2,1.3c0.1,0.3,0.3,0.6,0.5,0.8
	c0.3,0.2,0.7,0.3,1.1,0.3c0.6,0.1,1.2,0.1,1.7,0.1c0.5,0,1.1,0,1.6-0.1c0.3,0,0.7-0.1,0.9-0.2c0.2-0.1,0.3-0.2,0.4-0.3
	c0.1-0.2,0.1-0.4,0.1-0.6v-0.2h1.8v0.2c0,0.4-0.1,0.9-0.3,1.2c-0.2,0.4-0.5,0.7-0.9,0.9c-0.5,0.2-1,0.4-1.5,0.4
	c-0.7,0.1-1.5,0.1-2.2,0.1c-0.8,0-1.6,0-2.4-0.2c-0.6-0.1-1.2-0.3-1.7-0.7c-0.5-0.4-0.8-0.8-1-1.4c-0.2-0.6-0.3-1.4-0.3-2.1
	c0-0.8,0.1-1.6,0.3-2.3c0.2-0.6,0.5-1.1,0.9-1.5c0.5-0.4,1.1-0.7,1.7-0.8c0.8-0.2,1.6-0.2,2.4-0.2c0.6,0,1.2,0,1.8,0.1
	c0.4,0.1,0.9,0.2,1.3,0.4c0.3,0.2,0.7,0.4,0.9,0.7c0.2,0.3,0.4,0.6,0.5,0.9c0.1,0.3,0.2,0.7,0.3,1.1c0.1,0.4,0.1,0.8,0.1,1.3
	l-0.2,0.6H307.5L307.5,84.6z M307.5,83.3h6.6c0-0.4,0-0.8-0.2-1.1c-0.1-0.3-0.3-0.5-0.5-0.7c-0.3-0.2-0.6-0.3-0.9-0.4
	c-0.5-0.1-1-0.1-1.5-0.1c-0.4,0-0.8,0-1.2,0c-0.3,0-0.6,0.1-0.9,0.1c-0.2,0.1-0.4,0.1-0.6,0.3c-0.2,0.1-0.3,0.2-0.4,0.4
	c-0.1,0.2-0.2,0.4-0.2,0.6C307.6,82.7,307.5,83,307.5,83.3L307.5,83.3z M325.3,83.9c0-0.7,0.1-1.5,0.3-2.2c0.2-0.6,0.5-1,1-1.4
	c0.5-0.4,1.1-0.6,1.7-0.7c0.8-0.2,1.6-0.2,2.4-0.2c0.8,0,1.6,0,2.4,0.2c0.6,0.1,1.2,0.3,1.7,0.7c0.5,0.4,0.8,0.9,0.9,1.4
	c0.2,0.7,0.3,1.5,0.3,2.2c0,0.7-0.1,1.5-0.3,2.2c-0.2,0.6-0.5,1.1-0.9,1.5c-0.5,0.4-1.1,0.6-1.7,0.8c-0.8,0.2-1.6,0.2-2.4,0.2
	c-0.8,0-1.6,0-2.4-0.2c-0.6-0.1-1.2-0.4-1.7-0.8c-0.5-0.4-0.8-0.9-0.9-1.5C325.3,85.5,325.3,84.7,325.3,83.9L325.3,83.9z
	 M327.1,83.9c0,0.4,0,0.8,0,1.2c0,0.3,0.1,0.6,0.2,0.8c0.1,0.2,0.2,0.4,0.3,0.5c0.2,0.2,0.4,0.3,0.6,0.3c0.3,0.1,0.6,0.2,1,0.2
	c0.5,0,0.9,0,1.4,0c0.4,0,0.8,0,1.2,0c0.3,0,0.6-0.1,0.9-0.1c0.2-0.1,0.4-0.2,0.6-0.3c0.2-0.1,0.3-0.3,0.4-0.5
	c0.1-0.3,0.2-0.6,0.2-0.8c0.1-0.4,0.1-0.8,0.1-1.3c0-0.4,0-0.8-0.1-1.2c0-0.3-0.1-0.6-0.2-0.8c-0.1-0.2-0.2-0.4-0.4-0.5
	c-0.2-0.1-0.4-0.2-0.6-0.3c-0.3-0.1-0.6-0.1-0.9-0.1c-0.4,0-0.8,0-1.2,0s-0.8,0-1.2,0c-0.3,0-0.6,0-0.9,0.1
	c-0.2,0.1-0.4,0.1-0.6,0.3c-0.2,0.1-0.3,0.3-0.4,0.5c-0.1,0.3-0.2,0.5-0.2,0.8C327.1,83.1,327.1,83.5,327.1,83.9L327.1,83.9z
	 M342.8,81.2v7.2H341v-7.2h-1.4v-1.5h1.4c0-0.5,0.1-0.9,0.2-1.4c0.1-0.4,0.4-0.7,0.7-1c0.4-0.3,0.8-0.4,1.2-0.5
	c0.6-0.1,1.2-0.1,1.8-0.1h1.8v1.5h-1.8c-0.4,0-0.7,0-1.1,0c-0.2,0-0.4,0.1-0.6,0.2c-0.2,0.1-0.3,0.3-0.3,0.4
	c-0.1,0.3-0.1,0.6-0.1,0.9h4v1.5H342.8L342.8,81.2z M356.6,81.2h-1.7v-1.5h1.7v-2.3h1.8v2.3h5.2v1.5h-5.2v4c0,0.3,0,0.7,0.1,1
	c0,0.2,0.1,0.3,0.3,0.4c0.1,0.1,0.3,0.2,0.5,0.2c0.3,0,0.6,0,0.9,0c0.3,0,0.5,0,0.8,0c0.2,0,0.4,0,0.6-0.1c0.1,0,0.3-0.1,0.4-0.2
	c0.1-0.1,0.2-0.2,0.2-0.4c0.1-0.2,0.1-0.4,0.2-0.7c0-0.3,0-0.7,0-1v-0.2h1.5v0.2c0,0.6,0,1.2-0.2,1.8c-0.1,0.5-0.3,0.9-0.6,1.2
	c-0.3,0.3-0.7,0.5-1.2,0.7c-0.5,0.1-1.1,0.2-1.7,0.2c-0.5,0-1.1,0-1.6-0.1c-0.4-0.1-0.8-0.3-1.1-0.5c-0.3-0.3-0.5-0.6-0.6-1
	c-0.1-0.5-0.2-1-0.2-1.5V81.2L356.6,81.2z M369.6,80.5C369.6,80.5,369.7,80.5,369.6,80.5c0.3-0.3,0.5-0.4,0.8-0.5
	c0.3-0.1,0.5-0.2,0.8-0.3c0.3-0.1,0.6-0.1,0.8-0.2c0.3,0,0.6-0.1,0.8-0.1c0.3,0,0.5,0,0.8,0c0.5,0,1.1,0,1.6,0.1
	c0.4,0.1,0.8,0.2,1.2,0.4c0.3,0.1,0.6,0.3,0.8,0.6c0.2,0.2,0.4,0.5,0.5,0.8c0.1,0.3,0.2,0.7,0.2,1c0,0.4,0.1,0.8,0.1,1.2l0,4.9h-1.8
	v-4.9c0-0.4,0-0.8-0.1-1.2c-0.1-0.3-0.2-0.5-0.4-0.7c-0.2-0.2-0.6-0.3-0.9-0.4c-0.5-0.1-1.1-0.1-1.6-0.1c-0.6,0-1.2,0-1.8,0.2
	c-0.4,0.1-0.8,0.2-1.1,0.4c-0.2,0.2-0.4,0.4-0.5,0.6c-0.1,0.3-0.1,0.6-0.1,0.9v5.4h-1.8V76.9h1.8V80.5L369.6,80.5z M383.4,84.6
	c0,0.4,0,0.9,0.2,1.3c0.1,0.3,0.3,0.6,0.5,0.8c0.3,0.2,0.7,0.3,1.1,0.3c0.6,0.1,1.2,0.1,1.7,0.1c0.5,0,1.1,0,1.6-0.1
	c0.3,0,0.7-0.1,0.9-0.2c0.2-0.1,0.3-0.2,0.4-0.3c0.1-0.2,0.1-0.4,0.1-0.6v-0.2h1.8v0.2c0,0.4-0.1,0.9-0.3,1.2
	c-0.2,0.4-0.5,0.7-0.9,0.9c-0.5,0.2-1,0.4-1.5,0.4c-0.7,0.1-1.5,0.1-2.2,0.1c-0.8,0-1.6,0-2.4-0.2c-0.6-0.1-1.2-0.3-1.7-0.7
	c-0.5-0.4-0.8-0.8-1-1.4c-0.2-0.6-0.3-1.4-0.3-2.1c0-0.8,0.1-1.6,0.3-2.3c0.2-0.6,0.5-1.1,0.9-1.5c0.5-0.4,1.1-0.7,1.7-0.8
	c0.8-0.2,1.6-0.2,2.4-0.2c0.6,0,1.2,0,1.8,0.1c0.4,0.1,0.9,0.2,1.3,0.4c0.3,0.2,0.7,0.4,0.9,0.7c0.2,0.3,0.4,0.6,0.5,0.9
	c0.1,0.3,0.2,0.7,0.3,1.1c0,0.4,0.1,0.8,0.1,1.3l-0.2,0.6H383.4L383.4,84.6z M383.4,83.3h6.6c0-0.4,0-0.8-0.2-1.1
	c-0.1-0.3-0.3-0.5-0.5-0.7c-0.3-0.2-0.6-0.3-0.9-0.4c-0.5-0.1-1-0.1-1.5-0.1c-0.4,0-0.8,0-1.2,0c-0.3,0-0.6,0.1-0.9,0.1
	c-0.2,0.1-0.4,0.1-0.6,0.3c-0.2,0.1-0.3,0.2-0.4,0.4c-0.1,0.2-0.2,0.4-0.2,0.6C383.5,82.7,383.5,83,383.4,83.3L383.4,83.3z
	 M403.2,87.7v3.5h-1.8V79.7h1.8v0.5c0,0,0,0,0,0c0.2-0.2,0.5-0.3,0.7-0.4c0.4-0.1,0.8-0.2,1.1-0.3c0.6-0.1,1.1-0.1,1.7-0.1
	c0.8,0,1.6,0,2.4,0.2c0.6,0.1,1.2,0.4,1.7,0.8c0.5,0.4,0.8,0.9,0.9,1.4c0.2,0.7,0.3,1.5,0.3,2.2c0,0.7-0.1,1.5-0.3,2.2
	c-0.2,0.6-0.5,1.1-0.9,1.4c-0.5,0.4-1.1,0.6-1.7,0.7c-0.8,0.2-1.6,0.2-2.4,0.2c-0.6,0-1.1,0-1.7-0.1c-0.4-0.1-0.8-0.2-1.1-0.3
	C403.7,88,403.4,87.9,403.2,87.7L403.2,87.7z M406.7,81c-0.4,0-0.8,0-1.2,0c-0.3,0-0.6,0.1-0.9,0.1c-0.2,0.1-0.4,0.2-0.6,0.3
	c-0.2,0.1-0.3,0.3-0.4,0.5c-0.1,0.3-0.2,0.5-0.2,0.8c-0.1,0.4-0.1,0.8-0.1,1.2c0,0.4,0,0.8,0.1,1.2c0,0.3,0.1,0.6,0.2,0.8
	c0.1,0.2,0.2,0.4,0.4,0.5c0.2,0.1,0.4,0.2,0.6,0.3c0.3,0.1,0.6,0.1,0.9,0.1c0.4,0,0.8,0,1.2,0c0.5,0,0.9,0,1.4,0
	c0.3,0,0.7-0.1,1-0.2c0.2-0.1,0.4-0.2,0.6-0.3c0.2-0.1,0.3-0.3,0.3-0.5c0.1-0.3,0.2-0.5,0.2-0.8c0-0.4,0-0.8,0-1.2
	c0-0.4,0-0.8,0-1.2c0-0.3-0.1-0.6-0.2-0.8c-0.1-0.2-0.2-0.4-0.3-0.5c-0.2-0.2-0.4-0.3-0.6-0.3c-0.3-0.1-0.6-0.2-1-0.2
	C407.7,81,407.2,81,406.7,81L406.7,81z M424.1,87.6c-0.2,0.2-0.4,0.4-0.6,0.5c-0.3,0.2-0.7,0.3-1,0.3c-0.5,0.1-1.1,0.1-1.6,0.1
	c-0.8,0-1.5,0-2.3-0.1c-0.5-0.1-1.1-0.2-1.6-0.4c-0.4-0.2-0.7-0.4-0.9-0.8c-0.2-0.3-0.3-0.7-0.3-1.1c0-0.4,0-0.8,0.2-1.1
	c0.1-0.3,0.3-0.6,0.5-0.8c0.2-0.2,0.5-0.4,0.8-0.5c0.3-0.1,0.6-0.2,1-0.3c0.4-0.1,0.8-0.1,1.2-0.1c0.4,0,0.9,0,1.3,0
	c0.6,0,1.1,0,1.7,0.1c0.4,0,0.8,0.1,1.1,0.2c0.2,0.1,0.5,0.2,0.7,0.3c0,0,0,0,0,0c0-0.3,0-0.6-0.1-0.9c0-0.3-0.1-0.6-0.2-0.9
	c-0.1-0.2-0.2-0.4-0.4-0.5c-0.2-0.1-0.3-0.2-0.5-0.3c-0.3-0.1-0.5-0.1-0.8-0.1c-0.4,0-0.7,0-1.1,0c-0.5,0-1.1,0-1.6,0
	c-0.3,0-0.7,0.1-1,0.2c-0.2,0.1-0.3,0.2-0.4,0.3c-0.1,0.2-0.1,0.4-0.1,0.5v0.2h-1.8V82c0-0.4,0.1-0.8,0.3-1.2
	c0.2-0.4,0.5-0.6,0.9-0.8c0.5-0.2,1-0.4,1.5-0.4c0.7-0.1,1.5-0.1,2.2-0.1c0.7,0,1.5,0,2.2,0.2c0.6,0.1,1.1,0.4,1.5,0.8
	c0.4,0.4,0.7,0.9,0.8,1.5c0.2,0.7,0.3,1.6,0.3,2.3v4.1h-1.8V87.6L424.1,87.6z M421,87c0.5,0,1,0,1.5-0.1c0.3,0,0.7-0.1,0.9-0.2
	c0.2-0.1,0.4-0.2,0.5-0.4c0.1-0.2,0.1-0.3,0.1-0.5c0-0.2,0-0.3-0.1-0.5c-0.1-0.2-0.3-0.3-0.5-0.3c-0.3-0.1-0.7-0.2-1.1-0.2
	c-0.6-0.1-1.2-0.1-1.7-0.1c-0.6,0-1.1,0-1.7,0c-0.3,0-0.7,0.1-0.9,0.2c-0.1,0.1-0.3,0.1-0.4,0.3c-0.1,0.2-0.1,0.4-0.1,0.6
	c0,0.2,0,0.4,0.1,0.6c0.1,0.2,0.3,0.3,0.4,0.3c0.3,0.1,0.7,0.2,1.1,0.2C419.7,87,420.4,87,421,87L421,87z M431,81.2h-1.7v-1.5h1.7
	v-2.3h1.8v2.3h5.2v1.5h-5.2v4c0,0.3,0,0.7,0.1,1c0,0.2,0.1,0.3,0.3,0.4c0.1,0.1,0.3,0.2,0.5,0.2c0.3,0,0.6,0,0.9,0
	c0.3,0,0.5,0,0.8,0c0.2,0,0.4,0,0.6-0.1c0.1,0,0.3-0.1,0.4-0.2c0.1-0.1,0.2-0.2,0.2-0.4c0.1-0.2,0.1-0.4,0.2-0.7c0-0.3,0-0.7,0-1
	v-0.2h1.5v0.2c0,0.6,0,1.2-0.2,1.8c-0.1,0.5-0.3,0.9-0.6,1.2c-0.3,0.3-0.7,0.5-1.2,0.7c-0.5,0.1-1.1,0.2-1.7,0.2
	c-0.5,0-1.1,0-1.6-0.1c-0.4-0.1-0.8-0.3-1.1-0.5c-0.3-0.3-0.5-0.6-0.6-1c-0.1-0.5-0.2-1-0.2-1.5V81.2L431,81.2z M442.7,79.7h1.8v8.8
	h-1.8V79.7L442.7,79.7z M444.4,78.6h-1.8v-1.8h1.8V78.6L444.4,78.6z M450.4,84.6c0,0.4,0,0.9,0.2,1.3c0.1,0.3,0.3,0.6,0.5,0.8
	c0.3,0.2,0.7,0.3,1.1,0.3c0.6,0.1,1.2,0.1,1.7,0.1c0.5,0,1.1,0,1.6-0.1c0.3,0,0.7-0.1,0.9-0.2c0.2-0.1,0.3-0.2,0.4-0.3
	c0.1-0.2,0.1-0.4,0.1-0.6v-0.2h1.8v0.2c0,0.4-0.1,0.9-0.3,1.2c-0.2,0.4-0.5,0.7-0.9,0.9c-0.5,0.2-1,0.4-1.5,0.4
	c-0.7,0.1-1.5,0.1-2.2,0.1c-0.8,0-1.6,0-2.4-0.2c-0.6-0.1-1.2-0.3-1.7-0.7c-0.5-0.4-0.8-0.8-1-1.4c-0.2-0.6-0.3-1.4-0.3-2.1
	c0-0.8,0.1-1.6,0.3-2.3c0.2-0.6,0.5-1.1,0.9-1.5c0.5-0.4,1.1-0.7,1.7-0.8c0.8-0.2,1.6-0.2,2.4-0.2c0.6,0,1.2,0,1.8,0.1
	c0.4,0.1,0.9,0.2,1.3,0.4c0.3,0.2,0.7,0.4,0.9,0.7c0.2,0.3,0.4,0.6,0.5,0.9c0.1,0.3,0.2,0.7,0.3,1.1c0,0.4,0.1,0.8,0.1,1.3l-0.2,0.6
	H450.4L450.4,84.6z M450.4,83.3h6.6c0-0.4,0-0.8-0.2-1.1c-0.1-0.3-0.3-0.5-0.5-0.7c-0.3-0.2-0.6-0.3-0.9-0.4c-0.5-0.1-1-0.1-1.5-0.1
	c-0.4,0-0.8,0-1.2,0c-0.3,0-0.6,0.1-0.9,0.1c-0.2,0.1-0.4,0.1-0.6,0.3c-0.2,0.1-0.3,0.2-0.4,0.4c-0.1,0.2-0.2,0.4-0.2,0.6
	C450.4,82.7,450.4,83,450.4,83.3L450.4,83.3z M464.4,80.6c0,0,0.1-0.1,0.1-0.1c0.2-0.2,0.4-0.3,0.7-0.5c0.3-0.1,0.5-0.2,0.8-0.3
	c0.3-0.1,0.6-0.1,0.8-0.2c0.3,0,0.5-0.1,0.8-0.1c0.2,0,0.5,0,0.7,0c0.5,0,1.1,0,1.6,0.1c0.4,0.1,0.8,0.2,1.2,0.4
	c0.3,0.1,0.6,0.3,0.8,0.6c0.2,0.2,0.4,0.5,0.5,0.8c0.1,0.3,0.2,0.7,0.2,1c0,0.4,0.1,0.8,0.1,1.2l0,4.8H471v-4.8c0-0.4,0-0.9-0.1-1.3
	c-0.1-0.3-0.2-0.6-0.4-0.8c-0.2-0.2-0.6-0.4-0.9-0.4c-0.5-0.1-1.1-0.1-1.6-0.1c-0.6,0-1.2,0-1.8,0.2c-0.4,0.1-0.8,0.2-1.1,0.4
	c-0.2,0.2-0.4,0.4-0.5,0.6c-0.1,0.3-0.1,0.6-0.1,0.9v5.3h-1.8v-8.8h1.8V80.6L464.4,80.6z M478,81.2h-1.7v-1.5h1.7v-2.3h1.8v2.3h5.2
	v1.5h-5.2v4c0,0.3,0,0.7,0.1,1c0,0.2,0.1,0.3,0.3,0.4c0.1,0.1,0.3,0.2,0.5,0.2c0.3,0,0.6,0,0.9,0c0.3,0,0.5,0,0.8,0
	c0.2,0,0.4,0,0.6-0.1c0.1,0,0.3-0.1,0.4-0.2c0.1-0.1,0.2-0.2,0.2-0.4c0.1-0.2,0.1-0.4,0.2-0.7c0-0.3,0-0.7,0-1v-0.2h1.5v0.2
	c0,0.6,0,1.2-0.2,1.8c-0.1,0.5-0.3,0.9-0.6,1.2c-0.3,0.3-0.7,0.5-1.2,0.7c-0.5,0.1-1.1,0.2-1.7,0.2c-0.5,0-1.1,0-1.6-0.1
	c-0.4-0.1-0.8-0.3-1.1-0.5c-0.3-0.3-0.5-0.6-0.6-1c-0.1-0.5-0.2-1-0.2-1.5V81.2z"/>
</svg>
