<?xml version="1.0" encoding="utf-8"?>
<!-- Generator: Adobe Illustrator 18.0.0, SVG Export Plug-In . SVG Version: 6.00 Build 0)  -->
<!DOCTYPE svg PUBLIC "-//W3C//DTD SVG 1.1//EN" "http://www.w3.org/Graphics/SVG/1.1/DTD/svg11.dtd">
<svg version="1.1" id="Layer_1" xmlns="http://www.w3.org/2000/svg" xmlns:xlink="http://www.w3.org/1999/xlink" x="0px" y="0px"
	 viewBox="0 0 70.4 61.5" enable-background="new 0 0 70.4 61.5" xml:space="preserve">
<g>
	<defs>
		<filter id="Adobe_OpacityMaskFilter" filterUnits="userSpaceOnUse" x="0" y="52.8" width="70.4" height="8.6">
			<feColorMatrix  type="matrix" values="1 0 0 0 0  0 1 0 0 0  0 0 1 0 0  0 0 0 1 0"/>
		</filter>
	</defs>
	<mask maskUnits="userSpaceOnUse" x="0" y="52.8" width="70.4" height="8.6" id="SVGID_1_">
		<g filter="url(#Adobe_OpacityMaskFilter)">
			
				<radialGradient id="SVGID_2_" cx="-33.3358" cy="-234.8763" r="35.1747" gradientTransform="matrix(1.0063 0 0 0.1234 68.167 86.0684)" gradientUnits="userSpaceOnUse">
				<stop  offset="0" style="stop-color:#FFFFFF"/>
				<stop  offset="4.371321e-002" style="stop-color:#ECECEC"/>
				<stop  offset="0.197" style="stop-color:#AFAFAF"/>
				<stop  offset="0.3492" style="stop-color:#7A7A7A"/>
				<stop  offset="0.4965" style="stop-color:#4E4E4E"/>
				<stop  offset="0.638" style="stop-color:#2D2D2D"/>
				<stop  offset="0.7723" style="stop-color:#151515"/>
				<stop  offset="0.8962" style="stop-color:#060606"/>
				<stop  offset="1" style="stop-color:#010101"/>
			</radialGradient>
			<ellipse fill="url(#SVGID_2_)" cx="34.6" cy="57.1" rx="35.2" ry="4.3"/>
		</g>
	</mask>
	<ellipse opacity="0.38" mask="url(#SVGID_1_)" cx="35.2" cy="57.2" rx="35.2" ry="4.3"/>
	<g>
		<linearGradient id="SVGID_3_" gradientUnits="userSpaceOnUse" x1="34.4834" y1="-29.9669" x2="34.4834" y2="123.5104">
			<stop  offset="1.098900e-002" style="stop-color:#FFFFFF"/>
			<stop  offset="9.323062e-002" style="stop-color:#CFEDFB"/>
			<stop  offset="0.2582" style="stop-color:#6ECFF5"/>
			<stop  offset="0.3263" style="stop-color:#60B7E4"/>
			<stop  offset="0.4742" style="stop-color:#448EC8"/>
			<stop  offset="0.6007" style="stop-color:#2F75B7"/>
			<stop  offset="0.6994" style="stop-color:#2067AD"/>
			<stop  offset="0.7582" style="stop-color:#1A62AA"/>
			<stop  offset="1" style="stop-color:#134B7F"/>
		</linearGradient>
		<polygon fill="url(#SVGID_3_)" points="63.7,21.5 53.8,5.6 43.8,11.8 43.8,0 25.1,0 25.1,11.5 15.4,5.3 5.4,21.1 16.9,28.4 
			5.3,35.6 15.1,51.5 25.1,45.3 25.1,57.1 43.8,57.1 43.8,45.6 53.6,51.7 63.6,35.9 52.1,28.7 		"/>
		<g>
			<circle fill="#FFFFFF" cx="34.9" cy="11.9" r="4.1"/>
			<path fill="#FFFFFF" d="M35.2,48.4c-0.4-0.3-0.9-0.7-1.4-1.1c0,0,0,0-0.1,0l0.2,4.4c0.8-1,1.5-2.2,1.4-2.9
				C35.3,48.7,35.3,48.6,35.2,48.4z"/>
			<path fill="#FFFFFF" d="M37.4,18.2h-5.1l0.3,6.9c1.5,0.3,3,0.6,4.5,1.1L37.4,18.2z"/>
			<path fill="#FFFFFF" d="M29.8,39.2c-0.6,4,3.6,6.2,6.2,8.2c2.5,2.1-2.7,7-2.7,7s5.4-3.5,4.8-6.3c-0.6-2.9-6.5-4.4-6.2-8.2
				c0-0.3,0.1-0.6,0.2-0.8v-3.1C31,36.7,30,37.7,29.8,39.2z"/>
			<path fill="#FFFFFF" d="M41.1,31.9c-0.3-6.7-13.8-4.4-16.5-8.2c-2.3-3.3,3-5.7,3-5.7c1.9-0.2,2.5-2.1,2.5-2.1l-1.4-0.2l1.1-1.3
				c0,0-1.4-1.6-3.6-0.5c-2,1-0.8,2.1-2.5,3.3c-1.7,1.3-3.4,4-1.4,7.5c3.2,5.6,15.3,3.4,16.2,7c0.1,0.5-0.1,0.9-0.6,1.3v2.8
				C39.6,35,41.2,33.9,41.1,31.9z"/>
			<path fill="#FFFFFF" d="M36.9,31.8c-0.6-0.5-2.4-0.9-4-1.2l0.3,9.3l0.2-0.1l0.1,1.2c0.4,0.9,1.4,1.7,2.6,2.7
				c0.1,0.1,0.3,0.2,0.4,0.3L36.9,32L36.9,31.8z"/>
		</g>
	</g>
</g>
</svg>
