<?xml version="1.0" encoding="utf-8"?>
<!-- Generator: Adobe Illustrator 18.0.0, SVG Export Plug-In . SVG Version: 6.00 Build 0)  -->
<!DOCTYPE svg PUBLIC "-//W3C//DTD SVG 1.1//EN" "http://www.w3.org/Graphics/SVG/1.1/DTD/svg11.dtd" [
	<!ENTITY ns_flows "http://ns.adobe.com/Flows/1.0/">
	<!ENTITY ns_extend "http://ns.adobe.com/Extensibility/1.0/">
	<!ENTITY ns_ai "http://ns.adobe.com/AdobeIllustrator/10.0/">
	<!ENTITY ns_graphs "http://ns.adobe.com/Graphs/1.0/">
	<!ENTITY ns_vars "http://ns.adobe.com/Variables/1.0/">
	<!ENTITY ns_imrep "http://ns.adobe.com/ImageReplacement/1.0/">
	<!ENTITY ns_sfw "http://ns.adobe.com/SaveForWeb/1.0/">
	<!ENTITY ns_custom "http://ns.adobe.com/GenericCustomNamespace/1.0/">
	<!ENTITY ns_adobe_xpath "http://ns.adobe.com/XPath/1.0/">
]>
<svg version="1.1" id="Layer_1" xmlns:x="&ns_extend;" xmlns:i="&ns_ai;" xmlns:graph="&ns_graphs;"
	 xmlns="http://www.w3.org/2000/svg" xmlns:xlink="http://www.w3.org/1999/xlink" xmlns:a="http://ns.adobe.com/AdobeSVGViewerExtensions/3.0/"
	 x="0px" y="0px" viewBox="0 0 70 62.5" enable-background="new 0 0 70 62.5" xml:space="preserve">
<metadata>
	<sfw  xmlns="&ns_sfw;">
		<slices></slices>
		<sliceSourceBounds  width="70" height="62.5" x="989.2" y="-288.1" bottomLeftOrigin="true"></sliceSourceBounds>
	</sfw>
</metadata>
<g>
	<g>
		<g>
			<defs>
				<filter id="Adobe_OpacityMaskFilter" filterUnits="userSpaceOnUse" x="0" y="54" width="70" height="7.9">
					<feColorMatrix  type="matrix" values="1 0 0 0 0  0 1 0 0 0  0 0 1 0 0  0 0 0 1 0"/>
				</filter>
			</defs>
			<mask maskUnits="userSpaceOnUse" x="0" y="54" width="70" height="7.9" id="SVGID_1_">
				<g filter="url(#Adobe_OpacityMaskFilter)">
					
						<radialGradient id="SVGID_2_" cx="34.4039" cy="196.3848" r="35.1687" gradientTransform="matrix(1 0 0 0.1133 0 35.6829)" gradientUnits="userSpaceOnUse">
						<stop  offset="0" style="stop-color:#FFFFFF"/>
						<stop  offset="4.595643e-002" style="stop-color:#EBEBEB"/>
						<stop  offset="0.1989" style="stop-color:#AEAEAE"/>
						<stop  offset="0.3507" style="stop-color:#797979"/>
						<stop  offset="0.4976" style="stop-color:#4D4D4D"/>
						<stop  offset="0.6388" style="stop-color:#2C2C2C"/>
						<stop  offset="0.7728" style="stop-color:#141414"/>
						<stop  offset="0.8964" style="stop-color:#050505"/>
						<stop  offset="1" style="stop-color:#000000"/>
						<a:midPointStop  offset="0" style="stop-color:#FFFFFF"/>
						<a:midPointStop  offset="0.3297" style="stop-color:#FFFFFF"/>
						<a:midPointStop  offset="1" style="stop-color:#000000"/>
					</radialGradient>
					<ellipse fill="url(#SVGID_2_)" cx="34.4" cy="58" rx="35" ry="4"/>
				</g>
			</mask>
			<ellipse opacity="0.29" mask="url(#SVGID_1_)" cx="35" cy="58" rx="35" ry="4"/>
			<linearGradient id="SVGID_3_" gradientUnits="userSpaceOnUse" x1="35.2833" y1="4.834" x2="35.2833" y2="147.834">
				<stop  offset="0" style="stop-color:#F0F0F0"/>
				<stop  offset="0.2308" style="stop-color:#E1E1E1"/>
				<stop  offset="0.764" style="stop-color:#DEDDD9"/>
				<stop  offset="1" style="stop-color:#DCDAD4"/>
				<a:midPointStop  offset="0" style="stop-color:#F0F0F0"/>
				<a:midPointStop  offset="0.5" style="stop-color:#F0F0F0"/>
				<a:midPointStop  offset="0.2308" style="stop-color:#E1E1E1"/>
				<a:midPointStop  offset="0.6148" style="stop-color:#E1E1E1"/>
				<a:midPointStop  offset="1" style="stop-color:#DCDAD4"/>
			</linearGradient>
			<path fill="url(#SVGID_3_)" d="M54.5,5.8H16c-6.6,0-12,5.5-12,12.3v20.6C4,45.5,9.4,51,16,51h5.6v-2h-0.4c-1.4,0-2.5-1.1-2.5-2.5
				c0-1.4,1.1-2.5,2.5-2.5h4c1.4,0,2.5,1.1,2.5,2.5c0,1.4-1.1,2.5-2.5,2.5h-0.4v2h18.5v-2H43c-1.4,0-2.5-1.1-2.5-2.5
				c0-1.4,1.1-2.5,2.5-2.5h4c1.4,0,2.5,1.1,2.5,2.5c0,1.4-1.1,2.5-2.5,2.5h-0.4v2h7.9c6.6,0,12-5.5,12-12.3V18.1
				C66.5,11.3,61.2,5.8,54.5,5.8z"/>
			<linearGradient id="SVGID_4_" gradientUnits="userSpaceOnUse" x1="35.2832" y1="5.833" x2="35.2832" y2="59.8332">
				<stop  offset="0" style="stop-color:#FFFFFF"/>
				<stop  offset="0.2308" style="stop-color:#E1E1E1"/>
				<stop  offset="0.764" style="stop-color:#DEDDD9"/>
				<stop  offset="1" style="stop-color:#DCDAD4"/>
				<a:midPointStop  offset="0" style="stop-color:#FFFFFF"/>
				<a:midPointStop  offset="0.5" style="stop-color:#FFFFFF"/>
				<a:midPointStop  offset="0.2308" style="stop-color:#E1E1E1"/>
				<a:midPointStop  offset="0.6148" style="stop-color:#E1E1E1"/>
				<a:midPointStop  offset="1" style="stop-color:#DCDAD4"/>
			</linearGradient>
			<path fill="url(#SVGID_4_)" d="M53.2,10c3.5,0,6.6,1.2,8.9,3.1C60,10,56.3,8,52.1,8H18.5c-4.2,0-7.9,2-10.1,5.1
				c2.3-1.9,5.5-3.1,8.9-3.1H53.2z"/>
			<linearGradient id="SVGID_5_" gradientUnits="userSpaceOnUse" x1="34.6131" y1="3.9692" x2="37.7828" y2="28.2703">
				<stop  offset="0" style="stop-color:#A660D6"/>
				<stop  offset="0.8571" style="stop-color:#754293"/>
				<stop  offset="0.9261" style="stop-color:#6C3985"/>
				<stop  offset="0.989" style="stop-color:#68357E"/>
				<a:midPointStop  offset="0" style="stop-color:#A660D6"/>
				<a:midPointStop  offset="0.4936" style="stop-color:#A660D6"/>
				<a:midPointStop  offset="0.8571" style="stop-color:#754293"/>
				<a:midPointStop  offset="0.375" style="stop-color:#754293"/>
				<a:midPointStop  offset="0.989" style="stop-color:#68357E"/>
			</linearGradient>
			<path opacity="0.29" fill="url(#SVGID_5_)" d="M22.3,9.1c0,0,2.5,5.9,5.5,5.9h15c3,0,5.5-5.9,5.5-5.9H22.3z"/>
			<linearGradient id="SVGID_6_" gradientUnits="userSpaceOnUse" x1="37.6632" y1="-7.5764" x2="30.1746" y2="41.0987">
				<stop  offset="1.098900e-002" style="stop-color:#FFFFFF"/>
				<stop  offset="1.410747e-002" style="stop-color:#FEFDFE"/>
				<stop  offset="8.511937e-002" style="stop-color:#E3CDF2"/>
				<stop  offset="0.1559" style="stop-color:#CDA6E8"/>
				<stop  offset="0.2253" style="stop-color:#BC87E0"/>
				<stop  offset="0.293" style="stop-color:#B072DB"/>
				<stop  offset="0.358" style="stop-color:#A864D7"/>
				<stop  offset="0.4176" style="stop-color:#A660D6"/>
				<stop  offset="0.5388" style="stop-color:#A35ED2"/>
				<stop  offset="0.651" style="stop-color:#9B59C7"/>
				<stop  offset="0.7598" style="stop-color:#8D51B4"/>
				<stop  offset="0.8657" style="stop-color:#7A459A"/>
				<stop  offset="0.8901" style="stop-color:#754293"/>
				<stop  offset="0.9188" style="stop-color:#723F8F"/>
				<stop  offset="1" style="stop-color:#6D3B88"/>
				<a:midPointStop  offset="1.098900e-002" style="stop-color:#FFFFFF"/>
				<a:midPointStop  offset="0.3108" style="stop-color:#FFFFFF"/>
				<a:midPointStop  offset="0.4176" style="stop-color:#A660D6"/>
				<a:midPointStop  offset="0.7228" style="stop-color:#A660D6"/>
				<a:midPointStop  offset="0.8901" style="stop-color:#754293"/>
				<a:midPointStop  offset="0.375" style="stop-color:#754293"/>
				<a:midPointStop  offset="1" style="stop-color:#6D3B88"/>
			</linearGradient>
			<path fill="url(#SVGID_6_)" d="M42.8,2.8H41C40.4,1.2,38.7,0,36.8,0h-3c-2,0-3.6,1.2-4.2,2.8h-1.8c-3,0-5.5,2.3-5.5,5.1
				s2.5,5.1,5.5,5.1h15c3,0,5.5-2.3,5.5-5.1S45.8,2.8,42.8,2.8z M35.3,7c-1.4,0-2.5-1.1-2.5-2.5c0-1.4,1.1-2.5,2.5-2.5
				c1.4,0,2.5,1.1,2.5,2.5C37.8,5.9,36.7,7,35.3,7z"/>
			<linearGradient id="SVGID_7_" gradientUnits="userSpaceOnUse" x1="52.4995" y1="-13.7106" x2="38.5009" y2="94.2796">
				<stop  offset="1.098900e-002" style="stop-color:#FFFFFF"/>
				<stop  offset="0.1226" style="stop-color:#B7EDFF"/>
				<stop  offset="0.2582" style="stop-color:#63D8FE"/>
				<stop  offset="0.3957" style="stop-color:#49AFE0"/>
				<stop  offset="0.5565" style="stop-color:#2E85C2"/>
				<stop  offset="0.6829" style="stop-color:#1E6BB0"/>
				<stop  offset="0.7582" style="stop-color:#1861A9"/>
				<stop  offset="1" style="stop-color:#124A7F"/>
				<a:midPointStop  offset="1.098900e-002" style="stop-color:#FFFFFF"/>
				<a:midPointStop  offset="0.4889" style="stop-color:#FFFFFF"/>
				<a:midPointStop  offset="0.2582" style="stop-color:#63D8FE"/>
				<a:midPointStop  offset="0.4066" style="stop-color:#63D8FE"/>
				<a:midPointStop  offset="0.7582" style="stop-color:#1861A9"/>
				<a:midPointStop  offset="0.5" style="stop-color:#1861A9"/>
				<a:midPointStop  offset="1" style="stop-color:#124A7F"/>
			</linearGradient>
			<rect x="37" y="20" opacity="0.54" fill="url(#SVGID_7_)" width="22" height="2"/>
			<linearGradient id="SVGID_8_" gradientUnits="userSpaceOnUse" x1="53.3923" y1="-13.5982" x2="39.3923" y2="94.4029">
				<stop  offset="1.098900e-002" style="stop-color:#FFFFFF"/>
				<stop  offset="0.1226" style="stop-color:#B7EDFF"/>
				<stop  offset="0.2582" style="stop-color:#63D8FE"/>
				<stop  offset="0.3957" style="stop-color:#49AFE0"/>
				<stop  offset="0.5565" style="stop-color:#2E85C2"/>
				<stop  offset="0.6829" style="stop-color:#1E6BB0"/>
				<stop  offset="0.7582" style="stop-color:#1861A9"/>
				<stop  offset="1" style="stop-color:#124A7F"/>
				<a:midPointStop  offset="1.098900e-002" style="stop-color:#FFFFFF"/>
				<a:midPointStop  offset="0.4889" style="stop-color:#FFFFFF"/>
				<a:midPointStop  offset="0.2582" style="stop-color:#63D8FE"/>
				<a:midPointStop  offset="0.4066" style="stop-color:#63D8FE"/>
				<a:midPointStop  offset="0.7582" style="stop-color:#1861A9"/>
				<a:midPointStop  offset="0.5" style="stop-color:#1861A9"/>
				<a:midPointStop  offset="1" style="stop-color:#124A7F"/>
			</linearGradient>
			<rect x="37" y="27" opacity="0.54" fill="url(#SVGID_8_)" width="22" height="2"/>
			<linearGradient id="SVGID_9_" gradientUnits="userSpaceOnUse" x1="57.7269" y1="-13.0367" x2="43.7267" y2="94.9654">
				<stop  offset="1.098900e-002" style="stop-color:#FFFFFF"/>
				<stop  offset="0.1226" style="stop-color:#B7EDFF"/>
				<stop  offset="0.2582" style="stop-color:#63D8FE"/>
				<stop  offset="0.3957" style="stop-color:#49AFE0"/>
				<stop  offset="0.5565" style="stop-color:#2E85C2"/>
				<stop  offset="0.6829" style="stop-color:#1E6BB0"/>
				<stop  offset="0.7582" style="stop-color:#1861A9"/>
				<stop  offset="1" style="stop-color:#124A7F"/>
				<a:midPointStop  offset="1.098900e-002" style="stop-color:#FFFFFF"/>
				<a:midPointStop  offset="0.4889" style="stop-color:#FFFFFF"/>
				<a:midPointStop  offset="0.2582" style="stop-color:#63D8FE"/>
				<a:midPointStop  offset="0.4066" style="stop-color:#63D8FE"/>
				<a:midPointStop  offset="0.7582" style="stop-color:#1861A9"/>
				<a:midPointStop  offset="0.5" style="stop-color:#1861A9"/>
				<a:midPointStop  offset="1" style="stop-color:#124A7F"/>
			</linearGradient>
			<rect x="44" y="34" opacity="0.54" fill="url(#SVGID_9_)" width="15" height="2"/>
		</g>
		<path opacity="0.22" fill="#754293" d="M31.7,39.5H11.3c-1.1,0-1.6-0.7-1.6-1.4c0-1.3,0.2-3.1,1.2-4.2c0.8-0.9,2.7-1.3,4.5-1.7
			c0.2-0.1,0.4-0.1,0.6-0.1c0.2,0,0.3-0.1,0.5-0.1c0.3-0.1,0.8-0.2,0.9-0.3c0.3-0.5,0.3-0.6,0.3-1.1c0-0.1,0-0.2,0-0.4
			c0-0.2-0.2-0.7-0.5-1.2c-0.3,0-0.6-0.2-0.8-0.4c-0.5-0.5-1.6-3-1.1-4.2c0.1-0.2,0.2-0.4,0.4-0.6c-0.2-0.7-0.5-1.7-0.5-2.7
			c-0.1-1,0.4-2.2,1.3-3.2c1.3-1.4,3.3-2.3,5.5-2.3c2,0,3.8,0.7,5,2.1c1,1,1.5,2.3,1.4,3.5c-0.1,0.9-0.3,1.8-0.4,2.5
			c0.1,0.1,0.1,0.1,0.2,0.2c1,1.2-0.5,4-0.9,4.5c-0.3,0.3-0.6,0.4-0.9,0.5c-0.2,0.3-0.4,0.7-0.5,1.1c-0.2,1-0.2,1.1,0,1.6
			c0.2,0.4,0.6,0.5,1.6,0.7c4.2,0.8,4.8,1.7,5,2c0.6,0.8,0.8,2.1,0.7,3.8C33.3,38.7,32.7,39.5,31.7,39.5L31.7,39.5z"/>
		<linearGradient id="SVGID_10_" gradientUnits="userSpaceOnUse" x1="21.5064" y1="-9.9688" x2="21.5064" y2="80.5091">
			<stop  offset="1.098900e-002" style="stop-color:#FFFFFF"/>
			<stop  offset="0.1226" style="stop-color:#B7EDFF"/>
			<stop  offset="0.2582" style="stop-color:#63D8FE"/>
			<stop  offset="0.3957" style="stop-color:#49AFE0"/>
			<stop  offset="0.5565" style="stop-color:#2E85C2"/>
			<stop  offset="0.6829" style="stop-color:#1E6BB0"/>
			<stop  offset="0.7582" style="stop-color:#1861A9"/>
			<stop  offset="1" style="stop-color:#124A7F"/>
			<a:midPointStop  offset="1.098900e-002" style="stop-color:#FFFFFF"/>
			<a:midPointStop  offset="0.4889" style="stop-color:#FFFFFF"/>
			<a:midPointStop  offset="0.2582" style="stop-color:#63D8FE"/>
			<a:midPointStop  offset="0.4066" style="stop-color:#63D8FE"/>
			<a:midPointStop  offset="0.7582" style="stop-color:#1861A9"/>
			<a:midPointStop  offset="0.5" style="stop-color:#1861A9"/>
			<a:midPointStop  offset="1" style="stop-color:#124A7F"/>
		</linearGradient>
		<path fill="url(#SVGID_10_)" d="M32.3,38c0-0.9,0-2.4-0.6-3.1c-0.5-0.7-3.1-1.3-4.4-1.6c-1.1-0.2-1.9-0.4-2.4-1.2
			c-0.4-0.8-0.4-1.2-0.1-2.3c0.2-1,0.9-1.9,0.9-1.9s0.4,0.1,0.8-0.3c0.4-0.4,1.3-2.6,0.9-3.2c-0.3-0.3-0.7-0.1-0.7-0.1
			s0.6-1.5,0.7-3.3c0.1-1.8-1.9-4.5-5.5-4.5c-3.8,0-6,2.7-5.8,4.4c0.1,1.7,0.8,3.5,0.8,3.5s-0.6-0.2-0.8,0.2
			c-0.3,0.7,0.6,2.8,0.9,3.1c0.3,0.3,0.7,0.1,0.7,0.1s0.9,1.5,0.9,2.3c0,0.7,0.2,1-0.4,2c-0.4,0.6-1.3,0.7-2,0.9
			c-0.8,0.2-3.8,0.7-4.6,1.5c-0.8,0.9-1,2.6-1,3.5c0,0.2,0.1,0.4,0.6,0.4c0.5,0,20,0,20.4,0C32.1,38.5,32.3,38.2,32.3,38z"/>
	</g>
	<g>
		<defs>
			<filter id="Adobe_OpacityMaskFilter_1_" filterUnits="userSpaceOnUse" x="18.7" y="56.6" width="45" height="5.9">
				<feColorMatrix  type="matrix" values="1 0 0 0 0  0 1 0 0 0  0 0 1 0 0  0 0 0 1 0"/>
			</filter>
		</defs>
		<mask maskUnits="userSpaceOnUse" x="18.7" y="56.6" width="45" height="5.9" id="SVGID_11_">
			<g filter="url(#Adobe_OpacityMaskFilter_1_)">
				
					<radialGradient id="SVGID_12_" cx="865.749" cy="685.0323" r="18.0236" gradientTransform="matrix(-1.2562 0 0 0.1647 1129.1082 -53.3287)" gradientUnits="userSpaceOnUse">
					<stop  offset="0" style="stop-color:#FFFFFF"/>
					<stop  offset="4.595643e-002" style="stop-color:#EBEBEB"/>
					<stop  offset="0.1989" style="stop-color:#AEAEAE"/>
					<stop  offset="0.3507" style="stop-color:#797979"/>
					<stop  offset="0.4976" style="stop-color:#4D4D4D"/>
					<stop  offset="0.6388" style="stop-color:#2C2C2C"/>
					<stop  offset="0.7728" style="stop-color:#141414"/>
					<stop  offset="0.8964" style="stop-color:#050505"/>
					<stop  offset="1" style="stop-color:#000000"/>
					<a:midPointStop  offset="0" style="stop-color:#FFFFFF"/>
					<a:midPointStop  offset="0.3297" style="stop-color:#FFFFFF"/>
					<a:midPointStop  offset="1" style="stop-color:#000000"/>
				</radialGradient>
				<path fill="url(#SVGID_12_)" d="M19,59.5c0,1.6,10.1,3,22.5,3c12.4,0,22.5-1.3,22.5-3c0-1.6-10.1-3-22.5-3
					C29.1,56.6,19,57.9,19,59.5z"/>
			</g>
		</mask>
		<path opacity="0.16" mask="url(#SVGID_11_)" d="M18.7,59.5c0,1.6,10.1,3,22.5,3c12.4,0,22.5-1.3,22.5-3c0-1.6-10.1-3-22.5-3
			C28.7,56.6,18.7,57.9,18.7,59.5z"/>
		<g>
			<linearGradient id="SVGID_13_" gradientUnits="userSpaceOnUse" x1="72.3491" y1="10.1185" x2="-29.383" y2="129.8793">
				<stop  offset="1.098900e-002" style="stop-color:#FFFFFF"/>
				<stop  offset="5.650050e-002" style="stop-color:#F2D7C7"/>
				<stop  offset="0.1059" style="stop-color:#E5B090"/>
				<stop  offset="0.1487" style="stop-color:#DC9468"/>
				<stop  offset="0.1826" style="stop-color:#D68250"/>
				<stop  offset="0.2033" style="stop-color:#D47C47"/>
				<stop  offset="0.2986" style="stop-color:#C0603F"/>
				<stop  offset="0.4366" style="stop-color:#A73D34"/>
				<stop  offset="0.511" style="stop-color:#9D3030"/>
				<stop  offset="0.5703" style="stop-color:#942D2D"/>
				<stop  offset="0.6671" style="stop-color:#7C2626"/>
				<stop  offset="0.7892" style="stop-color:#541A1A"/>
				<stop  offset="0.9305" style="stop-color:#1D0909"/>
				<stop  offset="1" style="stop-color:#000000"/>
				<a:midPointStop  offset="1.098900e-002" style="stop-color:#FFFFFF"/>
				<a:midPointStop  offset="0.4" style="stop-color:#FFFFFF"/>
				<a:midPointStop  offset="0.2033" style="stop-color:#D47C47"/>
				<a:midPointStop  offset="0.4314" style="stop-color:#D47C47"/>
				<a:midPointStop  offset="0.511" style="stop-color:#9D3030"/>
				<a:midPointStop  offset="0.6" style="stop-color:#9D3030"/>
				<a:midPointStop  offset="1" style="stop-color:#000000"/>
			</linearGradient>
			<path fill="url(#SVGID_13_)" d="M62.3,25.9l-2.6-2.6c-3.4-3.4-8.9-3.5-12.3-0.2l-0.1,0.1l15,15l0.1-0.1
				C65.8,34.8,65.7,29.3,62.3,25.9z"/>
			<linearGradient id="SVGID_14_" gradientUnits="userSpaceOnUse" x1="29.0626" y1="28.251" x2="133.363" y2="132.5514">
				<stop  offset="1.098900e-002" style="stop-color:#FFFFFF"/>
				<stop  offset="4.649890e-002" style="stop-color:#E8D6F4"/>
				<stop  offset="8.475413e-002" style="stop-color:#D4B2EB"/>
				<stop  offset="0.1251" style="stop-color:#C394E3"/>
				<stop  offset="0.1676" style="stop-color:#B67DDE"/>
				<stop  offset="0.2131" style="stop-color:#AD6DD9"/>
				<stop  offset="0.2637" style="stop-color:#A863D7"/>
				<stop  offset="0.3297" style="stop-color:#A660D6"/>
				<stop  offset="0.8571" style="stop-color:#754293"/>
				<stop  offset="0.8945" style="stop-color:#723F8F"/>
				<stop  offset="1" style="stop-color:#6D3B88"/>
				<a:midPointStop  offset="1.098900e-002" style="stop-color:#FFFFFF"/>
				<a:midPointStop  offset="0.2414" style="stop-color:#FFFFFF"/>
				<a:midPointStop  offset="0.3297" style="stop-color:#A660D6"/>
				<a:midPointStop  offset="0.4936" style="stop-color:#A660D6"/>
				<a:midPointStop  offset="0.8571" style="stop-color:#754293"/>
				<a:midPointStop  offset="0.375" style="stop-color:#754293"/>
				<a:midPointStop  offset="1" style="stop-color:#6D3B88"/>
			</linearGradient>
			<polygon fill="url(#SVGID_14_)" points="31,39.5 31,43.4 41.3,53.8 46.1,54.5 57.3,43.2 42.3,28.2 			"/>
			<linearGradient id="SVGID_15_" gradientUnits="userSpaceOnUse" x1="7.9228" y1="4.2238" x2="94.8579" y2="92.4469">
				<stop  offset="1.098900e-002" style="stop-color:#FFFFFF"/>
				<stop  offset="4.649890e-002" style="stop-color:#E8D6F4"/>
				<stop  offset="8.475413e-002" style="stop-color:#D4B2EB"/>
				<stop  offset="0.1251" style="stop-color:#C394E3"/>
				<stop  offset="0.1676" style="stop-color:#B67DDE"/>
				<stop  offset="0.2131" style="stop-color:#AD6DD9"/>
				<stop  offset="0.2637" style="stop-color:#A863D7"/>
				<stop  offset="0.3297" style="stop-color:#A660D6"/>
				<stop  offset="0.8571" style="stop-color:#754293"/>
				<stop  offset="0.8945" style="stop-color:#723F8F"/>
				<stop  offset="1" style="stop-color:#6D3B88"/>
				<a:midPointStop  offset="1.098900e-002" style="stop-color:#FFFFFF"/>
				<a:midPointStop  offset="0.2414" style="stop-color:#FFFFFF"/>
				<a:midPointStop  offset="0.3297" style="stop-color:#A660D6"/>
				<a:midPointStop  offset="0.4936" style="stop-color:#A660D6"/>
				<a:midPointStop  offset="0.8571" style="stop-color:#754293"/>
				<a:midPointStop  offset="0.375" style="stop-color:#754293"/>
				<a:midPointStop  offset="1" style="stop-color:#6D3B88"/>
			</linearGradient>
			<polygon fill="url(#SVGID_15_)" points="40.7,53.1 56.1,37.6 59.4,40.8 46.1,54.5 			"/>
			<linearGradient id="SVGID_16_" gradientUnits="userSpaceOnUse" x1="7.8583" y1="4.3048" x2="94.7745" y2="92.5087">
				<stop  offset="1.098900e-002" style="stop-color:#FFFFFF"/>
				<stop  offset="4.649890e-002" style="stop-color:#E8D6F4"/>
				<stop  offset="8.475413e-002" style="stop-color:#D4B2EB"/>
				<stop  offset="0.1251" style="stop-color:#C394E3"/>
				<stop  offset="0.1676" style="stop-color:#B67DDE"/>
				<stop  offset="0.2131" style="stop-color:#AD6DD9"/>
				<stop  offset="0.2637" style="stop-color:#A863D7"/>
				<stop  offset="0.3297" style="stop-color:#A660D6"/>
				<stop  offset="0.8571" style="stop-color:#754293"/>
				<stop  offset="0.8945" style="stop-color:#723F8F"/>
				<stop  offset="1" style="stop-color:#6D3B88"/>
				<a:midPointStop  offset="1.098900e-002" style="stop-color:#FFFFFF"/>
				<a:midPointStop  offset="0.2414" style="stop-color:#FFFFFF"/>
				<a:midPointStop  offset="0.3297" style="stop-color:#A660D6"/>
				<a:midPointStop  offset="0.4936" style="stop-color:#A660D6"/>
				<a:midPointStop  offset="0.8571" style="stop-color:#754293"/>
				<a:midPointStop  offset="0.375" style="stop-color:#754293"/>
				<a:midPointStop  offset="1" style="stop-color:#6D3B88"/>
			</linearGradient>
			<polygon fill="url(#SVGID_16_)" points="43.9,26.7 31,39.5 33,44 47.1,29.9 			"/>
			
				<linearGradient id="SVGID_17_" gradientUnits="userSpaceOnUse" x1="38.9552" y1="18.0034" x2="154.5146" y2="141.2883" gradientTransform="matrix(1.0258 2.580000e-002 2.580000e-002 1.0258 -17.2601 -17.2616)">
				<stop  offset="0" style="stop-color:#B5B7B9"/>
				<stop  offset="3.249786e-002" style="stop-color:#B2B4B6"/>
				<stop  offset="5.691342e-002" style="stop-color:#A9AAAD"/>
				<stop  offset="7.869470e-002" style="stop-color:#999A9D"/>
				<stop  offset="9.892479e-002" style="stop-color:#838387"/>
				<stop  offset="0.1179" style="stop-color:#66666A"/>
				<stop  offset="0.1236" style="stop-color:#5C5C60"/>
				<stop  offset="0.1308" style="stop-color:#737376"/>
				<stop  offset="0.1459" style="stop-color:#9E9EA0"/>
				<stop  offset="0.1613" style="stop-color:#C1C1C2"/>
				<stop  offset="0.1768" style="stop-color:#DCDCDD"/>
				<stop  offset="0.1925" style="stop-color:#F0F0F0"/>
				<stop  offset="0.2083" style="stop-color:#FBFBFB"/>
				<stop  offset="0.2247" style="stop-color:#FFFFFF"/>
				<stop  offset="0.2345" style="stop-color:#FCFCFC"/>
				<stop  offset="0.3107" style="stop-color:#EAEAEB"/>
				<stop  offset="0.3901" style="stop-color:#DFE0E0"/>
				<stop  offset="0.4775" style="stop-color:#DBDCDD"/>
				<stop  offset="0.5674" style="stop-color:#9B9C9E"/>
				<stop  offset="0.7191" style="stop-color:#FFFFFF"/>
				<stop  offset="0.7765" style="stop-color:#FDFDFD"/>
				<stop  offset="0.8028" style="stop-color:#F5F5F5"/>
				<stop  offset="0.8227" style="stop-color:#E9E9E9"/>
				<stop  offset="0.8258" style="stop-color:#E6E6E6"/>
				<stop  offset="0.927" style="stop-color:#797A7D"/>
				<stop  offset="1" style="stop-color:#B9BBBD"/>
				<a:midPointStop  offset="0" style="stop-color:#B5B7B9"/>
				<a:midPointStop  offset="0.7622" style="stop-color:#B5B7B9"/>
				<a:midPointStop  offset="0.1236" style="stop-color:#5C5C60"/>
				<a:midPointStop  offset="0.2857" style="stop-color:#5C5C60"/>
				<a:midPointStop  offset="0.2247" style="stop-color:#FFFFFF"/>
				<a:midPointStop  offset="0.2738" style="stop-color:#FFFFFF"/>
				<a:midPointStop  offset="0.4775" style="stop-color:#DBDCDD"/>
				<a:midPointStop  offset="0.5008" style="stop-color:#DBDCDD"/>
				<a:midPointStop  offset="0.5674" style="stop-color:#9B9C9E"/>
				<a:midPointStop  offset="0.4984" style="stop-color:#9B9C9E"/>
				<a:midPointStop  offset="0.7191" style="stop-color:#FFFFFF"/>
				<a:midPointStop  offset="0.8397" style="stop-color:#FFFFFF"/>
				<a:midPointStop  offset="0.8258" style="stop-color:#E6E6E6"/>
				<a:midPointStop  offset="0.5007" style="stop-color:#E6E6E6"/>
				<a:midPointStop  offset="0.927" style="stop-color:#797A7D"/>
				<a:midPointStop  offset="0.4989" style="stop-color:#797A7D"/>
				<a:midPointStop  offset="1" style="stop-color:#B9BBBD"/>
			</linearGradient>
			<polygon fill="url(#SVGID_17_)" points="47,22.9 42,27.9 57.8,43.7 62.8,38.7 			"/>
			<linearGradient id="SVGID_18_" gradientUnits="userSpaceOnUse" x1="43.5513" y1="39.741" x2="-22.1236" y2="135.034">
				<stop  offset="1.098900e-002" style="stop-color:#FFFFFF"/>
				<stop  offset="5.650050e-002" style="stop-color:#F2D7C7"/>
				<stop  offset="0.1059" style="stop-color:#E5B090"/>
				<stop  offset="0.1487" style="stop-color:#DC9468"/>
				<stop  offset="0.1826" style="stop-color:#D68250"/>
				<stop  offset="0.2033" style="stop-color:#D47C47"/>
				<stop  offset="0.2986" style="stop-color:#C0603F"/>
				<stop  offset="0.4366" style="stop-color:#A73D34"/>
				<stop  offset="0.511" style="stop-color:#9D3030"/>
				<stop  offset="0.5703" style="stop-color:#942D2D"/>
				<stop  offset="0.6671" style="stop-color:#7C2626"/>
				<stop  offset="0.7892" style="stop-color:#541A1A"/>
				<stop  offset="0.9305" style="stop-color:#1D0909"/>
				<stop  offset="1" style="stop-color:#000000"/>
				<a:midPointStop  offset="1.098900e-002" style="stop-color:#FFFFFF"/>
				<a:midPointStop  offset="0.4" style="stop-color:#FFFFFF"/>
				<a:midPointStop  offset="0.2033" style="stop-color:#D47C47"/>
				<a:midPointStop  offset="0.4314" style="stop-color:#D47C47"/>
				<a:midPointStop  offset="0.511" style="stop-color:#9D3030"/>
				<a:midPointStop  offset="0.6" style="stop-color:#9D3030"/>
				<a:midPointStop  offset="1" style="stop-color:#000000"/>
			</linearGradient>
			<polygon fill="url(#SVGID_18_)" points="27.4,54.3 31,39.5 33,44.7 40.7,53.1 46.1,54.5 32.3,58.8 			"/>
			<linearGradient id="SVGID_19_" gradientUnits="userSpaceOnUse" x1="47.7528" y1="38.3327" x2="-202.0654" y2="279.1365">
				<stop  offset="1.098900e-002" style="stop-color:#FFFFFF"/>
				<stop  offset="5.650050e-002" style="stop-color:#F2D7C7"/>
				<stop  offset="0.1059" style="stop-color:#E5B090"/>
				<stop  offset="0.1487" style="stop-color:#DC9468"/>
				<stop  offset="0.1826" style="stop-color:#D68250"/>
				<stop  offset="0.2033" style="stop-color:#D47C47"/>
				<stop  offset="0.2986" style="stop-color:#C0603F"/>
				<stop  offset="0.4366" style="stop-color:#A73D34"/>
				<stop  offset="0.511" style="stop-color:#9D3030"/>
				<stop  offset="0.5703" style="stop-color:#942D2D"/>
				<stop  offset="0.6671" style="stop-color:#7C2626"/>
				<stop  offset="0.7892" style="stop-color:#541A1A"/>
				<stop  offset="0.9305" style="stop-color:#1D0909"/>
				<stop  offset="1" style="stop-color:#000000"/>
				<a:midPointStop  offset="1.098900e-002" style="stop-color:#FFFFFF"/>
				<a:midPointStop  offset="0.4" style="stop-color:#FFFFFF"/>
				<a:midPointStop  offset="0.2033" style="stop-color:#D47C47"/>
				<a:midPointStop  offset="0.4314" style="stop-color:#D47C47"/>
				<a:midPointStop  offset="0.511" style="stop-color:#9D3030"/>
				<a:midPointStop  offset="0.6" style="stop-color:#9D3030"/>
				<a:midPointStop  offset="1" style="stop-color:#000000"/>
			</linearGradient>
			<polygon opacity="0.71" fill="url(#SVGID_19_)" points="41.3,53.1 29.1,58.9 27.8,56.9 33,44 			"/>
			<linearGradient id="SVGID_20_" gradientUnits="userSpaceOnUse" x1="48.8115" y1="35.0906" x2="-10.421" y2="102.049">
				<stop  offset="1.098900e-002" style="stop-color:#FFFFFF"/>
				<stop  offset="8.176690e-002" style="stop-color:#D4D4D4"/>
				<stop  offset="0.1735" style="stop-color:#A3A3A3"/>
				<stop  offset="0.2702" style="stop-color:#777777"/>
				<stop  offset="0.3701" style="stop-color:#525252"/>
				<stop  offset="0.474" style="stop-color:#343434"/>
				<stop  offset="0.5833" style="stop-color:#1D1D1D"/>
				<stop  offset="0.7002" style="stop-color:#0D0D0D"/>
				<stop  offset="0.8303" style="stop-color:#030303"/>
				<stop  offset="1" style="stop-color:#000000"/>
				<a:midPointStop  offset="1.098900e-002" style="stop-color:#FFFFFF"/>
				<a:midPointStop  offset="0.2414" style="stop-color:#FFFFFF"/>
				<a:midPointStop  offset="1" style="stop-color:#000000"/>
			</linearGradient>
			<polygon fill="url(#SVGID_20_)" points="27.8,53.7 32.3,58.9 27.8,60.8 25.7,58.5 			"/>
		</g>
	</g>
</g>
</svg>
